<svg width="58" height="60" viewBox="0 0 58 60" fill="none" xmlns="http://www.w3.org/2000/svg">
<path d="M13.6764 49.6617C13.6764 48.7592 13.6692 48.0095 13.6764 47.2671C13.6837 46.6994 13.9239 46.2845 14.5426 46.2845C15.1613 46.2772 15.416 46.6921 15.4306 47.2525C15.4815 48.7446 15.5325 50.2295 15.547 51.7216C15.5543 52.5805 15.0885 52.9589 14.2442 52.8352C12.8612 52.6241 11.4783 52.4058 10.1027 52.1656C9.49126 52.0637 8.88714 51.838 8.98904 51.0738C9.09821 50.3168 9.70961 50.2513 10.3429 50.3386C10.6413 50.3823 10.947 50.4042 11.4637 50.4551C10.6413 49.5453 9.93525 48.8102 9.28018 48.0241C-1.41932 35.1701 3.18074 15.6417 18.5021 8.95269C19.3319 8.58877 19.6958 8.18845 19.8341 7.24223C20.4528 2.99882 23.8955 0.0146095 28.0007 5.23898e-05C32.1058 -0.0145048 35.5995 3.0061 36.2109 7.184C36.3128 7.8973 36.6258 8.14477 37.2299 8.38497C48.2133 12.723 54.3564 22.469 53.5703 34.2385C52.806 45.6658 42.8853 55.8049 31.4507 56.8603C26.7633 57.2897 22.0686 57.0131 17.3739 57.0568C12.2717 57.1077 7.16939 57.0713 2.06711 57.0641C1.70319 57.0641 1.34654 57.0713 0.982607 57.0495C0.414879 57.0131 0 56.7074 0 56.1397C0 55.5792 0.385764 55.2517 0.96805 55.2226C1.33198 55.208 1.68863 55.2153 2.05256 55.2153C10.765 55.2153 19.4775 55.2299 28.1899 55.208C40.054 55.1789 49.4724 47.2453 51.5541 35.5559C53.3956 25.2057 46.9613 13.9385 37.1353 10.2774C36.5093 10.0445 36.1891 9.95714 35.8906 10.8087C34.6533 14.3825 31.7491 16.4933 28.1826 16.5661C24.6744 16.6389 21.7047 14.6664 20.2999 11.2454C20.0161 10.554 19.8341 10.3283 19.0699 10.6704C3.53011 17.6943 0.575008 38.1907 13.0869 49.3051C13.2106 49.4143 13.3707 49.4798 13.6764 49.6617ZM21.5955 8.18117C21.5519 11.7549 24.3468 14.6809 27.9133 14.7756C31.4143 14.8702 34.4058 11.9879 34.4931 8.42864C34.5878 4.91309 31.6909 1.90704 28.1608 1.84881C24.5943 1.79058 21.6392 4.64378 21.5955 8.18117Z" fill="#C10016"/>
<path d="M42.1283 33.1685C42.1283 35.4685 42.1065 37.7758 42.1429 40.0759C42.1575 40.8911 41.8663 41.4078 41.1457 41.8154C37.0697 44.1373 33.0083 46.481 28.9541 48.8538C28.2845 49.2469 27.7532 49.225 27.0835 48.8393C23.0367 46.4665 18.9679 44.13 14.8992 41.8009C14.2296 41.4224 13.9603 40.9566 13.9603 40.1778C13.9894 35.4831 13.9967 30.7884 13.953 26.0865C13.9457 25.2421 14.2805 24.769 14.9793 24.376C19.0189 22.076 23.0439 19.7614 27.0544 17.4104C27.775 16.9882 28.3282 17.0101 29.0415 17.425C33.0083 19.7541 36.9897 22.0541 41.0002 24.3178C41.8736 24.8127 42.172 25.4241 42.1502 26.3922C42.0992 28.6558 42.1283 30.9121 42.1283 33.1685ZM27.0908 46.7139C27.0908 42.3686 27.0835 38.3217 27.0981 34.2676C27.0981 33.729 26.8215 33.4742 26.4066 33.234C23.1677 31.378 19.9287 29.5074 16.7043 27.6222C16.0056 27.2146 15.7799 27.3529 15.7799 28.1608C15.7945 31.902 15.7872 35.6359 15.7872 39.3771C15.7872 39.8502 15.8454 40.2506 16.3185 40.5199C19.8195 42.5215 23.3205 44.5376 27.0908 46.7139ZM40.2869 27.3165C37.3682 28.3792 37.2881 28.4811 37.2881 31.2106C37.2881 32.1568 37.2881 33.103 37.2881 34.0565C37.2881 37.9287 37.2881 37.9287 33.8672 39.792C33.7871 39.8357 33.7143 39.8866 33.6343 39.9303C32.5643 40.4543 31.9893 40.1487 31.9456 38.955C31.902 37.7394 31.9311 36.5166 31.9311 35.3011C31.9311 34.253 31.9311 33.2049 31.9311 31.9603C30.963 32.5062 30.2788 32.9283 29.5583 33.285C29.0196 33.547 28.925 33.94 28.925 34.4859C28.9396 38.2344 28.9469 41.9756 28.925 45.724C28.9177 46.5684 29.1579 46.6411 29.8348 46.2408C33.1029 44.3338 36.3855 42.4414 39.6755 40.5635C40.1195 40.3088 40.3014 40.0176 40.3014 39.4936C40.2723 35.4758 40.2869 31.458 40.2869 27.3165ZM25.2057 20.8168C28.7867 22.8839 32.3314 24.9364 35.8761 26.9963C36.2327 27.2001 36.5384 27.1782 36.8732 26.9744C37.6447 26.5086 38.4163 26.0573 39.3407 25.5114C36.3273 23.7719 33.3504 22.2434 30.5918 20.3946C28.6048 19.0626 26.9598 18.8952 25.2057 20.8168ZM16.8208 25.5915C20.4309 27.6732 23.9392 29.6893 27.4402 31.7201C27.8332 31.953 28.168 31.9967 28.5611 31.7565C29.3108 31.2979 30.075 30.8758 31.0212 30.3226C27.8915 28.5102 24.8636 27.0036 22.105 25.0893C20.0743 23.6772 18.5531 24.0193 16.8208 25.5915ZM21.7047 22.8184C25.3294 24.9073 28.8595 26.989 32.4406 28.9906C33.4232 29.5365 33.8744 30.1625 33.8162 31.3343C33.7216 33.3796 33.7871 35.4394 33.7871 37.5502C35.4248 36.8879 35.4248 36.8879 35.4248 35.4103C35.4248 33.6489 35.3811 31.8875 35.4466 30.1261C35.483 29.2162 35.2283 28.6703 34.3912 28.2045C31.0431 26.3412 27.7168 24.4342 24.4341 22.4544C23.4224 21.843 22.6363 21.7775 21.7047 22.8184Z" fill="#C10016"/>
<path d="M54.007 54.7858C53.5411 54.371 53.0462 53.9852 52.6022 53.5412C52.2383 53.1773 52.2092 52.7187 52.5585 52.3257C52.9006 51.9326 53.3446 51.8671 53.7595 52.2019C55.0187 53.2209 56.2779 54.2399 57.5007 55.3026C57.9956 55.732 57.9738 56.2925 57.4861 56.7147C56.2924 57.7409 55.0769 58.7381 53.8541 59.7353C53.4101 60.0992 52.9079 60.1065 52.5367 59.6406C52.1655 59.1821 52.2965 58.709 52.7259 58.3305C53.1772 57.9229 53.643 57.5298 54.3855 56.8893C51.9763 56.8893 49.9237 56.8893 47.8784 56.8893C47.0705 56.8893 46.2553 56.8893 45.4474 56.8893C44.7559 56.8893 43.9407 56.9403 43.9553 55.9868C43.9698 55.0333 44.7996 55.1061 45.4765 55.0988C48.3006 55.0915 51.1174 55.0988 53.9415 55.0988C53.9633 54.9969 53.9851 54.895 54.007 54.7858Z" fill="#C10016"/>
<path d="M23.9027 7.2568C24.6451 7.40237 25.0454 8.11567 25.4749 8.71251C26.1154 9.6005 26.5885 9.54955 27.3382 8.82169C28.6265 7.56978 30.024 6.42704 31.3705 5.23336C31.8436 4.81848 32.3677 4.51278 32.899 5.07323C33.4449 5.64823 33.1028 6.14318 32.6224 6.56533C30.7664 8.20301 28.9031 9.82613 27.0471 11.4638C26.523 11.9224 26.0062 12.0024 25.5113 11.4565C24.7252 10.5904 23.9537 9.70968 23.1821 8.82897C22.891 8.49416 22.8109 8.10839 23.0147 7.70079C23.1749 7.40965 23.4442 7.2568 23.9027 7.2568Z" fill="#C10016"/>
</svg>
