<svg width="14" height="15" viewBox="0 0 14 15" fill="none" xmlns="http://www.w3.org/2000/svg">
<path d="M9.72835 6.2476C7.02756 9.12668 4.38189 11.9482 1.48819 15C0.909449 14.2514 0.523622 13.9059 0 13.2438C2.72835 10.4511 5.45669 7.45681 8.40551 4.43378C6.14567 4.00192 4.43701 3.31094 3.16929 1.35317C3.61024 0.978887 4.05118 0.575816 4.5748 0.115163C7.11024 2.61996 9.75591 2.90787 12.5669 0C13.0079 0.547025 13.4213 1.03647 13.8898 1.61228C11.2992 4.3762 11.4094 7.14011 14 9.96161C13.5315 10.4223 13.1181 10.8541 12.7047 11.2572C11.189 10.1919 11.0787 10.048 9.72835 6.2476Z" fill="#C10016"/>
</svg>
