<svg width="79" height="60" viewBox="0 0 79 60" fill="none" xmlns="http://www.w3.org/2000/svg">
<path d="M29.1766 8.8189C29.6831 9.30769 30.1631 9.74316 30.6252 10.2053C31.2828 10.8629 31.0695 11.6272 30.1719 11.8761C25.8706 13.0314 21.5692 14.1779 17.2589 15.3243C16.2991 15.582 15.757 15.031 16.0236 14.0623C17.1612 9.80537 18.3076 5.53954 19.4363 1.28259C19.5518 0.856011 19.7207 0.500525 20.1828 0.384992C20.636 0.278346 20.9382 0.527187 21.2315 0.820462C22.1557 1.7625 23.0889 2.68676 24.0131 3.6288C24.2264 3.85098 24.3864 3.85987 24.653 3.71767C32.4204 -0.405964 40.5077 -1.10805 48.8438 1.65585C54.1139 3.38885 58.5131 6.49935 62.1035 10.7385C62.6367 11.3695 62.5923 11.805 61.9702 12.3293C60.8504 13.2536 59.7306 14.169 58.6019 15.0932C57.9798 15.5998 57.5621 15.5642 57.0467 14.9599C53.5452 10.8452 49.146 8.21457 43.867 7.11257C38.9702 6.08166 34.2156 6.58822 29.6209 8.58783C29.4965 8.63227 29.381 8.70337 29.1766 8.8189ZM20.9293 3.03336C20.8582 3.12223 20.8227 3.1489 20.8138 3.19333C19.9428 6.43714 19.0808 9.68095 18.2009 12.9248C18.121 13.2269 18.2454 13.2092 18.4676 13.1469C19.3118 12.9159 20.1561 12.6937 21.0004 12.4715C23.3288 11.8494 25.6573 11.2273 27.9946 10.6052C28.279 10.5252 28.3945 10.4541 28.1101 10.2053C27.808 9.93868 27.5413 9.6454 27.257 9.36101C26.5638 8.66782 26.6526 8.04572 27.5236 7.61025C34.5889 4.09093 41.7874 3.81543 49.0749 6.84595C52.3987 8.22346 55.2693 10.3031 57.6954 12.9692C57.9443 13.2447 58.0954 13.2447 58.3709 13.0047C58.8863 12.5426 59.4284 12.1071 59.9883 11.6894C60.2727 11.4762 60.2816 11.3428 60.0417 11.0762C58.0332 8.89888 55.8025 6.99703 53.2074 5.58398C43.9737 0.553848 34.6777 0.491638 25.3729 5.39735C23.9509 6.15275 23.942 6.09054 22.9023 5.02409C22.2446 4.35755 21.5958 3.6999 20.9293 3.03336Z" fill="#C10016"/>
<path d="M39.0145 60C29.7808 59.7689 22.1023 56.223 16.0501 49.2021C15.5524 48.6155 15.6058 48.1356 16.2012 47.6468C17.3388 46.7226 18.4674 45.7894 19.605 44.8652C20.1915 44.3942 20.627 44.4386 21.1247 45.0251C24.5107 49.0066 28.741 51.6016 33.8244 52.7747C38.8723 53.939 43.7958 53.4679 48.5593 51.4239C48.9592 51.255 48.9326 51.1306 48.6482 50.8729C48.2749 50.5352 47.9283 50.1708 47.5728 49.8064C46.9152 49.1399 47.0929 48.3756 48.0083 48.1268C50.5945 47.4247 53.1806 46.7404 55.7668 46.0472C57.4642 45.5939 59.1706 45.1407 60.868 44.6874C61.8989 44.4119 62.4322 44.9363 62.1567 45.9583C61.0191 50.233 59.8727 54.5077 58.7262 58.7824C58.4685 59.7423 57.722 59.9467 57.011 59.2446C56.0512 58.2937 55.1003 57.3427 54.1582 56.3829C53.9449 56.1607 53.7938 56.1341 53.5183 56.2852C50.0168 58.187 46.2842 59.3512 42.3205 59.7867C41.2363 59.9289 40.1343 59.9822 39.0145 60ZM57.3665 56.9428C57.402 56.8184 57.4554 56.7029 57.482 56.5784C57.8908 55.0676 58.2907 53.5479 58.6996 52.0282C59.135 50.4108 59.5527 48.7933 59.9971 47.1847C60.0948 46.8203 60.0149 46.7759 59.6771 46.8826C59.1261 47.0514 58.5662 47.1847 58.0064 47.3358C55.4646 48.0112 52.914 48.6955 50.3723 49.3798C49.8391 49.522 49.8391 49.522 50.239 49.9308C50.5145 50.2064 50.79 50.473 51.0566 50.7485C51.6254 51.3261 51.5365 51.9749 50.8167 52.3393C45.7865 54.9077 40.4631 55.7786 34.882 54.8188C29.2031 53.8501 24.4129 51.1839 20.4937 46.9625C20.2893 46.7404 20.1649 46.7048 19.9249 46.9092C19.4006 47.3713 18.8496 47.7979 18.3163 48.2334C17.8809 48.5889 17.8809 48.5889 18.2808 49.0155C19.1162 49.9131 19.9871 50.7929 20.9381 51.5661C28.0211 57.3427 36.0551 59.3601 45.0222 57.5649C47.9905 56.9695 50.7633 55.8319 53.385 54.3033C54.0249 53.9301 54.3093 53.9745 54.8336 54.4988C55.5624 55.2187 56.2823 55.9474 57.0021 56.6673C57.1088 56.774 57.1799 56.9073 57.3665 56.9428Z" fill="#C10016"/>
<path d="M12.3976 41.5059C9.31373 41.5059 6.23878 41.5059 3.15494 41.5059C1.12867 41.5059 0 40.3683 0 38.342C0 34.4139 0 30.4947 0 26.5666C0 24.6203 1.14644 23.4827 3.10162 23.4827C4.21251 23.4827 5.3234 23.4738 6.4343 23.4916C6.74535 23.5005 6.84311 23.3938 6.83422 23.0828C6.81644 21.9452 6.82533 20.7988 6.82533 19.6612C6.82533 18.7725 7.10972 18.4792 7.98066 18.4792C10.9312 18.4792 13.8728 18.4792 16.8234 18.4792C17.5966 18.4792 17.9254 18.817 17.9254 19.599C17.9254 20.7366 17.9432 21.883 17.9165 23.0206C17.9076 23.3761 17.9965 23.5094 18.3786 23.5005C19.534 23.4738 20.6893 23.4916 21.8446 23.4916C23.622 23.5005 24.7952 24.6736 24.7952 26.451C24.7952 30.468 24.7952 34.4761 24.7952 38.4931C24.7952 40.3505 23.6398 41.5147 21.7735 41.5236C18.6452 41.5147 15.5259 41.5059 12.3976 41.5059ZM12.362 39.7018C15.517 39.7018 18.6719 39.7018 21.8268 39.7018C22.6178 39.7018 22.9999 39.3196 22.9999 38.5287C22.9999 34.5028 22.9999 30.468 22.9999 26.4421C22.9999 25.6956 22.6 25.2868 21.8535 25.2779C20.0583 25.269 18.272 25.2868 16.4768 25.269C16.1657 25.269 16.068 25.3668 16.0769 25.6778C16.0946 27.0376 16.0769 28.4062 16.0857 29.7659C16.0857 30.1303 15.988 30.4236 15.748 30.6902C14.8949 31.6411 14.0684 32.6009 13.2241 33.5519C12.6642 34.1828 12.1398 34.1917 11.58 33.5607C10.7357 32.6098 9.90917 31.6411 9.05601 30.6902C8.79828 30.4058 8.70052 30.0948 8.70052 29.7215C8.70941 28.4151 8.69163 27.1176 8.7183 25.8111C8.72718 25.3935 8.62942 25.2513 8.18507 25.2601C6.52317 25.2868 4.87016 25.269 3.20826 25.269C2.13292 25.269 1.7952 25.5979 1.7952 26.6643C1.7952 30.5747 1.7952 34.485 1.7952 38.3954C1.7952 39.3285 2.15069 39.6929 3.07495 39.6929C6.16768 39.7018 9.2693 39.7018 12.362 39.7018ZM12.3976 23.4738C13.5262 23.4738 14.646 23.4649 15.7747 23.4827C16.0502 23.4827 16.1746 23.4205 16.1657 23.1183C16.148 22.2918 16.148 21.4653 16.1657 20.6299C16.1746 20.3544 16.068 20.2745 15.8014 20.2833C13.5351 20.2922 11.2778 20.2922 9.01157 20.2833C8.70052 20.2833 8.63831 20.3989 8.63831 20.6744C8.6472 21.4742 8.65609 22.2741 8.63831 23.0739C8.62942 23.4116 8.74496 23.5005 9.07378 23.5005C10.1758 23.4649 11.2867 23.4738 12.3976 23.4738ZM14.2905 27.5441C14.2905 26.922 14.2817 26.2999 14.2994 25.6778C14.3083 25.3846 14.2372 25.2601 13.9084 25.269C12.9041 25.2868 11.8999 25.2868 10.8956 25.269C10.5846 25.2601 10.4957 25.3668 10.4957 25.669C10.5135 26.8776 10.5046 28.0951 10.5046 29.3038C10.5046 29.5082 10.549 29.6682 10.6824 29.8281C11.1889 30.388 11.6866 30.9568 12.1754 31.5345C12.3443 31.73 12.442 31.7478 12.6198 31.5434C13.0819 30.9924 13.5618 30.4414 14.0595 29.917C14.2461 29.7126 14.3172 29.5082 14.3083 29.2416C14.2728 28.6728 14.2905 28.1129 14.2905 27.5441Z" fill="#C10016"/>
<path d="M65.7472 41.5058C62.6545 41.5058 59.5528 41.5147 56.4601 41.5058C54.5138 41.4969 53.394 40.3505 53.394 38.3953C53.394 34.4228 53.394 30.4591 53.394 26.4865C53.394 24.6558 54.5583 23.4916 56.389 23.4827C57.5266 23.4827 58.673 23.4738 59.8106 23.4916C60.1394 23.5005 60.246 23.4116 60.2371 23.0739C60.2194 21.9008 60.2283 20.7366 60.2283 19.5635C60.2283 18.808 60.5482 18.4881 61.3125 18.4881C64.2897 18.4792 67.2669 18.4792 70.2441 18.4881C70.9995 18.4881 71.3283 18.8258 71.3283 19.5812C71.3283 20.7366 71.3372 21.8919 71.3194 23.0472C71.3105 23.3849 71.3994 23.5094 71.7638 23.5005C72.9369 23.4827 74.1011 23.4827 75.2742 23.4916C76.9894 23.5005 78.1803 24.6913 78.1803 26.3977C78.1803 30.468 78.1803 34.5383 78.1803 38.6175C78.1803 40.1994 77.0961 41.3992 75.5142 41.4881C74.3944 41.5503 73.2657 41.5147 72.137 41.5147C70.013 41.5147 67.8801 41.5058 65.7472 41.5058ZM65.7738 39.7017C68.911 39.7017 72.0482 39.7017 75.1853 39.7017C75.9941 39.7017 76.3851 39.3107 76.3851 38.5109C76.3851 34.5116 76.3851 30.5124 76.3851 26.5221C76.3851 25.6956 75.9852 25.2868 75.1676 25.2868C73.4079 25.2868 71.6483 25.2957 69.8797 25.2779C69.5509 25.2779 69.4531 25.3579 69.4531 25.6956C69.4709 27.0553 69.4531 28.4239 69.462 29.7837C69.462 30.1303 69.3731 30.4058 69.1332 30.6724C68.2711 31.6322 67.4357 32.6098 66.5826 33.5785C66.0316 34.2095 65.5072 34.2095 64.9473 33.5785C64.1031 32.6276 63.2766 31.6589 62.4234 30.7079C62.1834 30.4413 62.0679 30.1481 62.0768 29.7837C62.0857 28.4328 62.0679 27.0909 62.0857 25.74C62.0857 25.4023 62.0146 25.2779 61.6502 25.2868C59.9172 25.3046 58.1842 25.2957 56.4512 25.2957C55.5358 25.2957 55.1626 25.6689 55.1626 26.5932C55.1626 30.5302 55.1626 34.4672 55.1626 38.4042C55.1626 39.364 55.5181 39.7195 56.469 39.7195C59.5884 39.7017 62.6811 39.7017 65.7738 39.7017ZM65.8005 20.2833C64.6807 20.2833 63.5521 20.2922 62.4323 20.2744C62.1568 20.2744 62.0324 20.3366 62.0412 20.6388C62.059 21.4653 62.059 22.2918 62.0412 23.1272C62.0324 23.4027 62.139 23.4827 62.4056 23.4827C64.6718 23.4738 66.9292 23.4738 69.1954 23.4827C69.4976 23.4827 69.5687 23.3672 69.5687 23.0917C69.5509 22.2829 69.5509 21.4653 69.5687 20.6477C69.5775 20.3455 69.462 20.2744 69.1865 20.2744C68.049 20.2922 66.9292 20.2833 65.8005 20.2833ZM63.9253 27.473C63.9253 28.0773 63.9253 28.6906 63.9253 29.2949C63.9253 29.5082 63.9609 29.6948 64.1119 29.8637C64.6096 30.4058 65.1073 30.9657 65.5783 31.5344C65.7738 31.7655 65.8716 31.73 66.0493 31.5256C66.5381 30.9479 67.0358 30.388 67.5424 29.8192C67.6579 29.6859 67.7112 29.5526 67.7112 29.3838C67.7024 28.1218 67.7024 26.8687 67.7112 25.6067C67.7112 25.349 67.6135 25.2779 67.3735 25.2779C66.3337 25.2868 65.3028 25.2868 64.263 25.2779C64.0142 25.2779 63.9253 25.3579 63.9342 25.6067C63.9342 26.2288 63.9253 26.8509 63.9253 27.473Z" fill="#C10016"/>
</svg>
