<svg width="20" height="15" viewBox="0 0 20 15" fill="none" xmlns="http://www.w3.org/2000/svg">
<path d="M6.95402 8.70283C11.1734 8.66986 15.3077 8.63841 19.8028 8.57921C19.6391 7.58158 19.939 7.10565 19.8027 6.21398C15.6307 6.33126 11.0122 6.22458 6.49946 6.34797C7.80837 4.25956 8.51303 2.41614 7.90574 0.00014165C7.29175 0.0750008 6.65524 0.128975 5.91347 0.206122C6.02482 4.01474 4.3222 6.3018 -6.48012e-05 6.40048C0.106424 7.14367 0.187964 7.82343 0.296887 8.60915C4.34593 8.57923 6.42704 10.6708 6.7459 14.7525C7.44751 14.7186 8.08645 14.7072 8.70288 14.6748C8.97428 12.7114 8.94202 12.5204 6.95402 8.70283Z" fill="#C10016"/>
</svg>
