<svg width="50" height="50" viewBox="0 0 50 50" fill="none" xmlns="http://www.w3.org/2000/svg">
<path d="M14.4962 36.2071C13.9496 34.0126 15.3043 31.6043 15.2171 29.0295C15.1617 27.3341 15.2964 27.35 13.6169 26.9776C11.8106 26.5894 10.036 26.0982 8.404 25.1793C6.99384 24.3791 6.20162 23.2779 6.43928 21.5588C6.59773 20.4259 6.72448 19.293 7.04138 18.1997C7.18398 17.6927 7.46918 17.3282 8.03958 17.455C8.68921 17.5976 8.75258 18.1046 8.60206 18.6433C8.31686 19.6495 8.19803 20.6794 8.05542 21.7093C7.9049 22.7471 8.35647 23.3571 9.22792 23.8008C11.0421 24.7277 12.9831 25.2268 14.9716 25.5833C16.968 25.9477 16.968 25.9239 16.8808 27.9125C16.8254 29.1166 16.7699 30.3288 16.7065 31.533C16.6907 31.9211 16.6669 32.3173 17.2452 32.2301C17.673 32.1667 18.2593 32.5232 18.3623 31.6597C18.5683 29.8613 18.8614 28.0709 19.1387 26.2805C19.2417 25.615 19.0515 25.1476 18.4811 24.7435C16.8174 23.5552 15.2092 22.2876 13.5456 21.0913C12.8801 20.6081 12.7612 20.1248 13.1178 19.3801C13.9813 17.5976 14.7577 15.7755 15.1855 13.8345C15.637 11.7985 13.7119 10.0397 11.7076 10.6735C9.45766 11.3865 7.39788 12.5115 5.31432 13.5968C4.99743 13.7632 4.79937 14.0167 4.63301 14.3178C3.93585 15.5378 3.23869 16.7657 2.52569 17.9779C2.2088 18.5166 1.98697 19.0632 2.69205 19.4276C3.35752 19.7683 3.75364 19.3405 4.05468 18.7859C4.10222 18.6988 4.17352 18.6196 4.19728 18.5245C5.04496 15.5774 7.50087 14.6346 10.0598 13.8028C10.5985 13.6285 11.0104 13.7315 11.2164 14.2544C11.4145 14.7535 11.153 15.1734 10.6856 15.2843C7.99997 15.9339 6.20954 17.5104 5.10042 20.0773C4.56963 21.3052 2.88219 21.4954 1.7493 20.7903C0.632265 20.0931 0.259919 18.7622 0.925389 17.5342C1.70969 16.0924 2.55737 14.6822 3.38129 13.2562C3.61896 12.8442 3.94377 12.5035 4.37157 12.2738C6.53435 11.1251 8.69713 9.9684 11.0263 9.19993C14.4328 8.07496 17.4908 10.8161 16.7382 14.3019C16.3738 16.0131 15.7083 17.6372 14.9716 19.2137C14.726 19.7445 14.7814 20.0218 15.2647 20.3625C16.6907 21.3686 18.0533 22.4619 19.4793 23.476C20.5171 24.2206 20.9529 25.1634 20.7627 26.4231C20.5092 28.0788 20.3112 29.7504 20.026 31.3983C19.9151 32.0558 20.018 32.2697 20.731 32.2618C22.569 32.246 22.569 32.2856 22.569 34.1077C22.569 35.3515 22.5611 36.5953 22.569 37.8391C22.569 38.3937 22.4581 38.8928 21.8006 38.9166C21.0717 38.9403 20.9449 38.4254 20.9449 37.8233C20.9529 36.7141 20.9291 35.605 20.9529 34.4959C20.9608 34.0206 20.8182 33.8463 20.327 33.8542C19.1545 33.8859 17.9741 33.8938 16.8016 33.8463C16.1757 33.8225 16.0965 34.0998 16.1044 34.6227C16.1282 36.3022 16.1124 37.9817 16.1203 39.6613C16.1203 40.2713 16.0807 40.8971 15.2964 40.8892C14.5121 40.8813 14.4962 40.2396 14.4962 39.6375C14.5041 38.6234 14.4962 37.6173 14.4962 36.2071Z" fill="white"/>
<path d="M37.0746 26.6049C37.0746 24.656 37.0746 22.7071 37.0746 20.7661C37.0746 19.4985 37.2251 19.2767 38.4372 19.3718C39.3879 19.4431 39.5146 19.0787 39.5067 18.2468C39.4671 13.4459 39.4829 8.64496 39.4909 3.84404C39.4909 2.54477 39.6255 2.41802 40.9486 2.41802C43.5312 2.41802 46.1218 2.41802 48.7045 2.41802C49.1877 2.41802 49.6789 2.40217 49.9007 2.94089C50.1305 3.49545 49.7185 3.80442 49.3937 4.14508C47.833 5.75331 47.833 5.75331 49.1956 7.57545C49.3382 7.76558 49.4729 7.95572 49.6155 8.13793C49.869 8.46275 50.1067 8.79548 49.869 9.23121C49.6393 9.6511 49.2511 9.69071 48.8312 9.69071C46.5179 9.68278 44.1967 9.70655 41.8834 9.67486C41.2655 9.66694 41.0832 9.83331 41.0912 10.4592C41.1228 13.1765 41.1149 15.8939 41.0912 18.6192C41.0832 19.1737 41.2179 19.4114 41.8121 19.3718C42.5489 19.3242 43.2856 19.3718 44.0303 19.3559C44.7829 19.3401 45.1474 19.6728 45.1394 20.4413C45.1236 22.2238 45.1315 23.9984 45.1394 25.7809C45.1394 26.3434 45.0127 26.8267 44.3472 26.8346C43.6184 26.8425 43.5154 26.3117 43.5154 25.7176C43.5233 24.4104 43.4758 23.0953 43.5312 21.7881C43.5629 21.0988 43.3094 20.9404 42.6756 20.9642C41.6061 21.0117 40.5287 21.0117 39.4513 20.9642C38.8175 20.9325 38.6669 21.1464 38.6669 21.7564C38.6907 25.3452 38.6828 28.9419 38.6828 32.5308C38.6828 32.8952 38.7382 33.2834 38.4293 33.5686C38.1916 33.7825 37.9223 33.8775 37.5974 33.7429C37.1538 33.5527 37.0667 33.1883 37.0667 32.7605C37.0746 30.7007 37.0746 28.6488 37.0746 26.6049ZM47.0249 4.10547C46.8665 4.06586 46.8031 4.04209 46.7397 4.04209C45.6623 4.03417 44.5928 4.03417 43.5154 4.03417C41.107 4.03417 41.107 4.03417 41.107 6.39502C41.107 8.05871 41.107 8.05871 42.8103 8.05871C44.3234 8.05871 45.8445 8.05871 47.4607 8.05871C45.8762 5.54733 45.8762 5.54733 47.0249 4.10547Z" fill="white"/>
<path d="M47.2471 25.8679C46.4945 25.7808 45.8766 25.654 45.9796 24.8776C46.0746 24.1804 46.6688 24.1725 47.2313 24.1725C50.2576 24.1804 49.9724 23.9032 49.9882 26.9374C49.9882 27.5078 49.9724 28.0782 49.2752 28.1812C48.6335 28.2763 48.4355 27.7693 48.2691 27.1592C46.8035 28.7279 45.3933 30.241 43.9752 31.7621C42.5334 33.3149 41.0836 34.8518 39.6655 36.4204C39.1902 36.9512 38.7149 37.1255 37.986 36.9592C35.9579 36.4917 33.9061 36.1352 31.878 35.6995C31.1729 35.549 30.6342 35.644 30.0479 36.1273C26.5859 38.9556 23.0763 41.7125 19.6143 44.525C18.9726 45.0478 18.418 45.2063 17.61 44.8577C16.1364 44.2239 14.5916 43.7327 13.1022 43.1227C12.3892 42.8296 11.795 42.885 11.0979 43.194C7.96857 44.5725 4.81551 45.9035 1.67037 47.2502C1.42478 47.3532 1.17919 47.4721 0.917755 47.5196C0.545409 47.5909 0.26813 47.4008 0.0938399 47.068C-0.0883721 46.7194 0.00669498 46.4105 0.276052 46.157C0.394886 46.046 0.553331 45.9748 0.703854 45.9035C4.34017 44.3428 7.97649 42.79 11.6128 41.2214C12.0327 41.0391 12.3892 41.1421 12.7695 41.2847C14.3698 41.8868 15.9859 42.4572 17.5624 43.0989C18.1724 43.3445 18.5923 43.2574 19.0993 42.8454C22.5693 40.033 26.0709 37.2602 29.5409 34.4557C30.1351 33.9804 30.6738 33.7823 31.4581 33.9724C33.4466 34.4399 35.4667 34.7805 37.4711 35.2004C38.1207 35.3351 38.5723 35.2242 39.0476 34.7013C41.7174 31.7859 44.4268 28.9022 47.2471 25.8679Z" fill="white"/>
<path d="M45.1396 41.7127C45.1396 44.0261 45.1158 46.3473 45.1554 48.6606C45.1712 49.5955 44.8544 50.0153 43.872 49.9916C41.9944 49.952 40.1089 49.9678 38.2313 49.9836C37.4312 49.9916 37.0589 49.6668 37.0668 48.8508C37.0826 45.6581 37.0747 42.4733 37.0668 39.2806C37.0668 38.7181 37.2015 38.2348 37.859 38.219C38.5799 38.2111 38.6908 38.734 38.6908 39.336C38.6829 42.0534 38.7146 44.7708 38.6671 47.496C38.6591 48.2249 38.8889 48.4071 39.5781 48.3754C40.6159 48.32 41.6617 48.32 42.6995 48.3754C43.3729 48.4071 43.5393 48.1853 43.5313 47.5277C43.5076 43.4002 43.5155 39.2727 43.5155 35.1372C43.5155 34.8995 43.5155 34.6698 43.5155 34.4321C43.5234 33.9172 43.769 33.5686 44.284 33.5528C44.8544 33.5369 45.1316 33.8934 45.1316 34.4559C45.1396 35.8344 45.1316 37.2049 45.1316 38.5834C45.1396 39.6292 45.1396 40.6749 45.1396 41.7127Z" fill="white"/>
<path d="M33.8503 43.6294C33.8503 45.3089 33.8186 46.9885 33.8661 48.668C33.8899 49.6028 33.565 50.0227 32.5827 49.9989C30.7051 49.9593 28.8196 49.9752 26.942 49.991C26.1419 49.9989 25.7695 49.6741 25.7775 48.8581C25.7933 46.5052 25.7854 44.1602 25.7775 41.8073C25.7775 41.2448 25.9042 40.7457 26.5459 40.7298C27.2589 40.7061 27.4015 41.2289 27.3936 41.831C27.3857 43.7086 27.4174 45.5941 27.3778 47.4717C27.3619 48.1451 27.5045 48.4303 28.2413 48.3907C29.3108 48.3273 30.3882 48.3353 31.4657 48.3907C32.1153 48.4224 32.242 48.1768 32.2341 47.5826C32.2103 44.5642 32.2183 41.5379 32.2262 38.5195C32.2262 38.1868 32.1787 37.8461 32.4163 37.553C32.6381 37.2836 32.9154 37.2044 33.2244 37.2836C33.6918 37.4025 33.8423 37.751 33.8423 38.1947C33.8503 40.001 33.8503 41.8152 33.8503 43.6294Z" fill="white"/>
<path d="M5.00572 35.8256C3.99959 35.7543 3.19944 35.3344 2.73203 34.4075C2.26461 33.4806 2.3676 32.5774 2.99346 31.7614C3.29451 31.3653 3.64309 30.985 4.01543 30.6523C5.20377 29.5986 6.02769 28.3469 6.3525 26.7704C6.47133 26.1841 6.74069 25.5899 7.4933 25.8276C8.238 26.0653 8.03202 26.6515 7.90526 27.2536C7.50915 29.0599 6.61393 30.5335 5.22754 31.7377C4.92649 31.9991 4.66506 32.316 4.3957 32.6091C4.0392 33.0052 3.94413 33.4489 4.3244 33.8688C4.65714 34.249 5.09286 34.2966 5.51274 34.0272C7.41408 32.8151 9.53725 31.809 10.0205 29.2421C10.1077 28.7906 10.3295 28.3548 10.5355 27.935C10.7494 27.4992 11.1138 27.2616 11.605 27.4913C12.0248 27.6894 12.1991 28.0617 12.0328 28.4974C11.5178 29.8442 10.9791 31.1831 10.4245 32.5141C10.3374 32.7121 10.1393 32.8943 9.95713 33.0211C8.74502 33.8292 7.54876 34.6293 6.33665 35.4215C5.94054 35.683 5.48105 35.786 5.00572 35.8256Z" fill="white"/>
<path d="M20.9529 4.67581C20.9608 6.5534 20.026 8.00318 18.5049 8.60528C17.0314 9.18361 15.2568 8.74788 14.1477 7.40901C12.9118 5.91961 12.484 4.19254 13.2287 2.34664C13.8942 0.698803 15.3043 0.0570947 16.9997 0.00163845C18.9644 -0.0617401 20.6519 1.72078 20.9212 4.09748C20.945 4.33515 20.945 4.56489 20.9529 4.67581ZM19.3368 4.76295C19.3447 4.18462 19.2258 3.63006 18.9882 3.10719C18.2673 1.52272 16.7066 1.11076 15.336 2.14066C14.314 2.90913 14.2111 4.75503 15.1221 6.07806C15.7321 6.96536 16.8571 7.43277 17.7285 7.16341C18.7426 6.84652 19.3447 5.94338 19.3368 4.76295Z" fill="white"/>
<path d="M25.786 30.4634C25.786 29.2512 25.7939 28.0471 25.786 26.8349C25.7781 26.1219 26.1187 25.7892 26.8317 25.7892C28.8123 25.7971 30.7928 25.7971 32.7813 25.7892C33.5498 25.7813 33.8746 26.1457 33.8667 26.8983C33.8508 28.6095 33.8588 30.3208 33.8588 32.0399C33.8588 32.6182 33.6607 33.0619 33.0111 33.046C32.4248 33.0302 32.2426 32.6024 32.2426 32.0637C32.2426 30.7565 32.2189 29.4414 32.2505 28.1342C32.2664 27.5559 32.0842 27.3816 31.5138 27.3974C30.4047 27.437 29.2955 27.445 28.1864 27.3974C27.5685 27.3737 27.3784 27.5559 27.3942 28.1817C27.4338 30.0593 27.4021 31.9448 27.41 33.8224C27.41 34.4324 27.3704 35.0583 26.5782 35.0425C25.7939 35.0266 25.7781 34.3849 25.786 33.7828C25.7939 32.6816 25.786 31.5725 25.786 30.4634Z" fill="white"/>
<path d="M20.0341 20.1489C19.0596 20.2677 17.9505 20.0855 16.8652 19.6577C16.3106 19.4438 15.8432 19.1824 16.0888 18.501C16.3106 17.891 16.8097 17.8673 17.3326 18.1049C18.7031 18.7308 20.1608 18.501 21.5948 18.5327C22.1414 18.5406 22.5375 18.2951 22.5296 17.7167C22.5217 17.1384 22.1097 16.9245 21.5631 16.9324C20.755 16.9324 19.9469 16.8611 19.1468 16.9483C18.1724 17.0592 17.6733 16.4571 17.1425 15.8471C16.8335 15.4906 16.8652 15.0944 17.2058 14.7696C17.5148 14.4765 17.9426 14.3973 18.1961 14.7221C18.7824 15.4589 19.5587 15.3083 20.3114 15.3163C20.8501 15.3242 21.3888 15.2925 21.9196 15.3321C23.203 15.4351 24.1616 16.4888 24.1616 17.7405C24.1616 19.0001 23.1951 20.0538 21.9117 20.1489C21.3571 20.1806 20.7867 20.1489 20.0341 20.1489Z" fill="white"/>
<path d="M18.5287 49.9838C17.5543 49.9838 16.5878 49.968 15.6134 49.9917C14.8687 50.0076 14.4805 49.6986 14.4963 48.9222C14.5122 48.0508 14.4963 47.1793 14.5042 46.3079C14.5042 45.7691 14.734 45.3651 15.3044 45.3651C15.8827 45.3651 16.0887 45.7612 16.1204 46.2999C16.16 46.9575 15.8193 47.821 16.2709 48.2251C16.7542 48.6529 17.6177 48.3677 18.3069 48.3518C19.1625 48.336 20.3033 48.74 20.7945 48.1696C21.2144 47.6784 20.9371 46.5772 20.9371 45.7454C20.9371 45.1591 21.0401 44.6046 21.7373 44.5887C22.4344 44.5729 22.577 45.1116 22.5691 45.7137C22.5533 46.7515 22.5453 47.7893 22.5691 48.8272C22.5929 49.7065 22.173 50.0234 21.3411 49.9917C20.4063 49.9601 19.4636 49.9838 18.5287 49.9838Z" fill="white"/>
<path d="M7.22398 49.9836C6.24954 49.9836 5.28302 49.9757 4.30859 49.9836C3.88078 49.9916 3.45298 49.9282 3.31038 49.4845C3.14401 48.9775 3.05687 48.4071 3.39753 47.9397C3.73026 47.4723 4.26897 47.4247 4.57794 47.8921C4.91068 48.3913 5.30679 48.3675 5.7742 48.3675C6.84371 48.3596 7.92114 48.3358 8.99064 48.3754C9.52143 48.3913 9.70365 48.217 9.67196 47.6941C9.63234 47.092 9.66403 46.4899 9.66403 45.8878C9.66403 45.357 9.85417 44.945 10.4404 44.9292C11.0267 44.9134 11.2723 45.2857 11.2723 45.8323C11.2802 46.9019 11.2802 47.9793 11.2723 49.0488C11.2643 49.7222 10.8841 49.9995 10.2424 49.9916C9.23623 49.9757 8.2301 49.9836 7.22398 49.9836Z" fill="white"/>
<path d="M7.85815 40.31C7.5888 40.31 7.31944 40.31 7.058 40.31C6.39253 40.3179 5.59239 40.0961 5.08536 40.3892C4.49119 40.7299 4.91899 41.6013 4.83977 42.2351C4.77639 42.7342 4.54665 43.0828 4.03962 43.0907C3.5326 43.0986 3.23947 42.7659 3.23155 42.2589C3.21571 41.3557 3.20779 40.4526 3.23155 39.5494C3.2474 38.9869 3.58805 38.7017 4.14261 38.7017C6.21824 38.6938 8.29388 38.6938 10.3695 38.7017C10.9161 38.7017 11.2885 38.9869 11.2647 39.5574C11.241 40.0644 10.8924 40.3179 10.3854 40.3258C9.53767 40.3179 8.69791 40.31 7.85815 40.31Z" fill="white"/>
</svg>
