<svg width="16" height="21" viewBox="0 0 16 21" fill="none" xmlns="http://www.w3.org/2000/svg">
<path d="M7.99997 1.14289C7.45604 1.14289 7.22525 1.14333 7.0368 1.16187C5.13769 1.34891 3.63456 2.85204 3.44751 4.75115C3.42898 4.9396 3.42854 5.17039 3.42854 5.71432L3.42854 6.28575C3.42854 6.60134 3.1727 6.85718 2.85711 6.85718C2.54152 6.85718 2.28568 6.60134 2.28568 6.28575L2.28568 5.71432C2.28568 5.19725 2.28477 4.89691 2.31023 4.63843C2.55086 2.197 4.48265 0.265216 6.92408 0.0245889C7.18255 -0.000868989 7.48289 3.55297e-05 7.99997 3.54591e-05C8.51704 3.49116e-05 8.81739 -0.000869213 9.07586 0.0245886C11.5173 0.265216 13.4491 2.197 13.6897 4.63843C13.7152 4.8969 13.7143 5.19724 13.7143 5.71432L13.7143 6.28575C13.7143 6.60134 13.4584 6.85718 13.1428 6.85718C12.8272 6.85718 12.5714 6.60134 12.5714 6.28575L12.5714 5.71432C12.5714 5.17039 12.571 4.9396 12.5524 4.75115C12.3654 2.85204 10.8623 1.34891 8.96314 1.16187C8.77469 1.14333 8.5439 1.14289 7.99997 1.14289Z" fill="#222222"/>
<path d="M11.4283 12V9.71425C11.4283 9.39866 11.6841 9.14282 11.9997 9.14282C12.3153 9.14282 12.5711 9.39866 12.5711 9.71425V12C12.5711 12.3156 12.3153 12.5714 11.9997 12.5714C11.6841 12.5714 11.4283 12.3156 11.4283 12Z" fill="#222222"/>
<path d="M3.42838 12V9.71425C3.42838 9.39866 3.68421 9.14282 3.9998 9.14282C4.3154 9.14282 4.57123 9.39866 4.57123 9.71425V12C4.57123 12.3156 4.3154 12.5714 3.9998 12.5714C3.68421 12.5714 3.42838 12.3156 3.42838 12Z" fill="#222222"/>
<path d="M14.8572 10.3996C14.8572 9.41396 14.8558 8.73201 14.7868 8.21882C14.72 7.7221 14.5993 7.46986 14.4219 7.29248C14.2445 7.11511 13.9923 6.99433 13.4956 6.92753C12.9824 6.85853 12.3004 6.85721 11.3147 6.85721H4.68527C3.69961 6.85721 3.01765 6.85853 2.50447 6.92753C2.00775 6.99433 1.7555 7.11511 1.57813 7.29248C1.40075 7.46986 1.27997 7.7221 1.21317 8.21882C1.14418 8.73201 1.14286 9.41396 1.14286 10.3996V13.1429C1.14286 14.7753 1.14418 15.9426 1.2634 16.8293C1.38042 17.6993 1.60175 18.2134 1.97991 18.5916C2.35808 18.9698 2.87219 19.1911 3.74219 19.3081C4.62891 19.4273 5.79618 19.4286 7.42858 19.4286H8.57144C10.2038 19.4286 11.3711 19.4273 12.2578 19.3081C13.1278 19.1911 13.6419 18.9698 14.0201 18.5916C14.3983 18.2134 14.6196 17.6993 14.7366 16.8293C14.8558 15.9426 14.8572 14.7753 14.8572 13.1429V10.3996ZM16 13.1429C16 14.743 16.0013 16.0005 15.8694 16.9811C15.7354 17.9781 15.4541 18.7737 14.8281 19.3996C14.2022 20.0256 13.4066 20.3069 12.4096 20.4409C11.429 20.5727 10.1715 20.5715 8.57144 20.5715H7.42858C5.82852 20.5715 4.57097 20.5727 3.59041 20.4409C2.59339 20.3069 1.79785 20.0256 1.17188 19.3996C0.545906 18.7737 0.264627 17.9781 0.130582 16.9811C-0.00124646 16.0005 1.02787e-06 14.743 1.02787e-06 13.1429V10.3996C6.51143e-07 9.44642 -0.00120589 8.674 0.0803583 8.06703C0.164193 7.44348 0.344961 6.90958 0.770091 6.48445C1.19522 6.05932 1.72913 5.87855 2.35268 5.79471C2.95965 5.71315 3.73207 5.71436 4.68527 5.71436H11.3147C12.2679 5.71436 13.0404 5.71315 13.6473 5.79471C14.2709 5.87855 14.8048 6.05932 15.2299 6.48445C15.6551 6.90958 15.8358 7.44348 15.9197 8.06703C16.0012 8.674 16 9.44642 16 10.3996V13.1429Z" fill="#222222"/>
</svg>
