<svg width="48" height="50" viewBox="0 0 48 50" fill="none" xmlns="http://www.w3.org/2000/svg">
<path d="M28.1712 22.1676C28.1712 20.782 28.1712 19.3964 28.1712 18.0183C28.1712 16.4219 28.1411 14.8254 28.1863 13.2365C28.2089 12.3404 27.8625 12.0392 26.9814 12.0467C22.3954 12.0768 17.8094 12.0618 13.2159 12.0618C12.9523 12.0618 12.6963 12.0618 12.4327 12.0618C11.8905 12.0542 11.3031 12.0241 11.3257 11.2937C11.3408 10.5632 11.9282 10.5707 12.4703 10.5707C17.3802 10.5707 22.2975 10.5632 27.2073 10.5783C28.7887 10.5783 29.6623 11.4744 29.6623 13.0859C29.6698 17.8376 29.6849 22.5893 29.6472 27.3335C29.6397 28.1242 29.8204 28.3727 30.6487 28.3651C35.4004 28.32 40.1521 28.3426 44.8963 28.3426C46.824 28.3426 47.6298 29.1483 47.6298 31.061C47.6298 36.498 47.6298 41.9274 47.6298 47.3644C47.6298 49.1717 46.809 50.0001 45.0168 50.0001C36.8839 50.0001 28.7511 50.0001 20.6107 50.0001C18.8185 50.0001 17.9751 49.1642 17.9675 47.3945C17.96 46.0315 17.9675 44.661 17.9675 43.298C17.9675 42.7483 18.0052 42.1759 18.7281 42.191C19.4586 42.2061 19.4586 42.801 19.4661 43.3356C19.4736 44.6986 19.4962 46.0692 19.4586 47.4322C19.436 48.2304 19.7748 48.5392 20.558 48.5392C28.721 48.5316 36.8914 48.5316 45.0544 48.5392C45.8451 48.5392 46.1538 48.2003 46.1463 47.4171C46.1313 41.9199 46.1313 36.4227 46.1463 30.918C46.1463 30.1122 45.8074 29.8411 45.0243 29.8411C40.1446 29.8637 35.2649 29.8562 30.3852 29.8411C29.8581 29.8411 29.6924 30.0068 29.5644 30.5113C29.2707 31.6635 28.5026 32.2207 27.2751 32.2283C25.0311 32.2433 22.787 32.2734 20.5429 32.2132C19.7221 32.1906 19.4059 32.3563 19.4435 33.2599C19.5188 35.1726 19.4661 37.1004 19.4661 39.0207C19.4661 39.5704 19.4134 40.1578 18.7206 40.1653C18.0278 40.1729 17.9675 39.6005 17.9675 39.0358C17.9751 37.0477 17.9374 35.0672 17.9826 33.0792C17.9977 32.3939 17.7943 32.2132 17.1166 32.2132C12.3348 32.2433 7.553 32.2283 2.77119 32.2283C0.783162 32.2283 0 31.4451 0 29.4571C0 24.0577 0 18.6584 0 13.2516C0 11.3991 0.820814 10.5783 2.67329 10.5707C4.42788 10.5632 6.18999 10.5707 7.94458 10.5707C8.52442 10.5707 9.28499 10.4653 9.28499 11.2937C9.29252 12.1898 8.4943 12.0618 7.88433 12.0693C6.12975 12.0768 4.36763 12.0919 2.61305 12.0618C1.84495 12.0467 1.46843 12.3103 1.47596 13.1236C1.49102 16.5047 1.48349 19.8934 1.48349 23.2746C1.48349 23.4252 1.52867 23.5758 1.58892 23.9297C2.38714 23.1164 3.04981 22.4236 3.73508 21.7534C4.85711 20.654 6.03938 20.6465 7.16141 21.7384C8.02741 22.5742 8.89341 23.4177 9.70669 24.2987C10.1058 24.7355 10.3392 24.7355 10.7609 24.3062C13.2912 21.7308 15.859 19.1856 18.4118 16.6327C19.8351 15.217 20.8969 15.217 22.3352 16.6553C24.1952 18.5153 26.0552 20.3904 27.9077 22.258C28.0056 22.2128 28.0884 22.1902 28.1712 22.1676ZM14.8424 30.7222C18.8787 30.7222 22.9075 30.7071 26.9438 30.7372C27.8776 30.7448 28.224 30.4059 28.1863 29.4796C28.1336 28.0865 28.1487 26.6859 28.1863 25.2852C28.2014 24.7505 28.0206 24.374 27.6441 24.005C25.5356 21.9266 23.4497 19.8256 21.3562 17.7322C20.4601 16.8436 20.2794 16.8361 19.3908 17.7322C16.838 20.285 14.2852 22.8378 11.7324 25.3906C10.407 26.716 10.0907 26.716 8.79551 25.4283C8.24579 24.8786 7.68854 24.3288 7.13882 23.7716C5.33153 21.9568 5.70805 22.0998 3.75767 23.7339C1.90519 25.2852 1.15968 27.0398 1.46843 29.3968C1.62657 30.6017 1.60398 30.7222 2.83896 30.7222C6.84514 30.7297 10.8438 30.7222 14.8424 30.7222Z" fill="white"/>
<path d="M23.7283 9.06475C16.8003 9.06475 9.87236 9.06475 2.94439 9.06475C0.707863 9.06475 0.0150656 8.37195 0.0150656 6.16554C0.0150656 4.93055 0.00753519 3.69556 0.0150656 2.46057C0.0301264 0.894238 0.881062 0.00564782 2.40973 0.00564782C16.6949 -0.00188261 30.9726 -0.00188261 45.2577 0.00564782C46.7488 0.00564782 47.6223 0.886708 47.6449 2.36267C47.6675 3.62778 47.6524 4.90042 47.6524 6.16554C47.6524 8.37195 46.9521 9.05722 44.7155 9.05722C38.4728 9.05722 32.2226 9.05722 25.9799 9.05722C25.2269 9.06475 24.4738 9.06475 23.7283 9.06475ZM23.8262 7.60385C30.8521 7.60385 37.8779 7.59632 44.9038 7.61891C45.83 7.61891 46.2066 7.2951 46.1689 6.36886C46.1237 5.29954 46.1614 4.22269 46.1614 3.14584C46.1614 1.49667 46.1388 1.47408 44.467 1.47408C30.709 1.47408 16.9509 1.47408 3.1929 1.47408C2.99711 1.47408 2.80131 1.48914 2.60552 1.47408C1.82989 1.4289 1.46843 1.76777 1.49102 2.56599C1.52115 3.77086 1.49102 4.97573 1.49856 6.17307C1.50609 7.50595 1.60398 7.60385 2.95192 7.60385C9.91002 7.60385 16.8681 7.60385 23.8262 7.60385Z" fill="white"/>
<path d="M39.5495 26.5955C37.7272 26.5955 35.9048 26.6106 34.0825 26.5955C32.4258 26.5805 31.6351 25.7823 31.62 24.1331C31.6125 22.996 31.6275 21.8589 31.6125 20.7143C31.6049 20.157 31.6501 19.5772 32.358 19.5923C33.0658 19.6073 33.0658 20.2173 33.0658 20.7595C33.0583 21.8363 33.0809 22.9056 33.0583 23.9825C33.0433 24.7958 33.3671 25.1723 34.2105 25.1723C37.8175 25.1572 41.4321 25.1572 45.0467 25.1723C45.8148 25.1723 46.1838 24.8786 46.1838 24.0804C46.1687 20.4357 46.1687 16.7909 46.1838 13.1537C46.1838 12.363 45.8675 12.0543 45.0768 12.0618C41.4698 12.0844 37.8552 12.0919 34.2406 12.0618C33.3219 12.0543 33.0357 12.4534 33.0583 13.2968C33.0884 14.4038 33.0658 15.5108 33.0658 16.6177C33.0658 17.1072 32.9905 17.5816 32.3806 17.5892C31.7104 17.6042 31.62 17.1147 31.6275 16.5801C31.6351 15.315 31.6049 14.0423 31.6426 12.7772C31.6727 11.5121 32.5237 10.6009 33.7888 10.5934C37.6895 10.5633 41.5978 10.5633 45.4985 10.5934C46.7486 10.6009 47.6372 11.5272 47.6447 12.7923C47.6748 16.6629 47.6748 20.5336 47.6447 24.4042C47.6372 25.722 46.7411 26.5805 45.4082 26.6031C43.4503 26.6106 41.4999 26.588 39.5495 26.5955Z" fill="white"/>
<path d="M28.8641 39.051C28.8641 37.9817 28.8415 36.9123 28.8716 35.8355C28.9093 34.3068 30.1593 33.5538 31.4997 34.2917C33.4576 35.3761 35.3929 36.4906 37.3132 37.6503C38.616 38.4335 38.5934 39.917 37.2831 40.7077C35.3628 41.8598 33.4275 42.9819 31.4696 44.0587C30.1819 44.7666 28.9243 44.0211 28.8791 42.5526C28.834 41.3854 28.8641 40.2182 28.8641 39.051ZM30.3024 39.1564C30.3024 40.1655 30.3175 41.167 30.2949 42.1761C30.2873 42.8087 30.5208 42.9216 31.0554 42.6129C32.795 41.6038 34.5345 40.5947 36.2815 39.6007C36.8237 39.292 36.8388 39.0585 36.2891 38.7422C34.542 37.7482 32.8025 36.7467 31.063 35.7301C30.4078 35.346 30.2873 35.6322 30.2949 36.2346C30.3175 37.206 30.3024 38.1774 30.3024 39.1564Z" fill="white"/>
<path d="M40.3779 18.5381C40.3779 19.2234 40.3854 19.9011 40.3779 20.5864C40.3704 21.2039 40.2649 21.844 41.2364 21.8214C41.5828 21.8138 41.7936 22.1678 41.7635 22.5292C41.7258 22.9283 41.4623 23.1994 41.0556 23.207C40.1143 23.2296 39.173 23.2296 38.2317 23.207C37.8326 23.1994 37.554 22.9585 37.5163 22.5443C37.4712 22.0699 37.7648 21.7611 38.1941 21.7687C38.8492 21.7687 38.9019 21.4373 38.8944 20.9102C38.8718 19.3514 38.8568 17.7926 38.8944 16.2338C38.9095 15.6163 38.7589 15.3226 38.0962 15.413C37.7799 15.4582 37.4486 15.4431 37.1248 15.413C36.6955 15.3829 36.4621 15.4732 36.4771 15.9853C36.4922 16.4974 36.2437 16.8965 35.6563 16.8362C35.1367 16.7835 34.9937 16.3844 34.9937 15.9175C34.9937 15.5636 34.9937 15.2021 34.9937 14.8482C35.0012 14.2458 35.3325 13.9521 35.9124 13.9445C38.3823 13.937 40.8523 13.937 43.3223 13.937C43.9624 13.937 44.2786 14.2608 44.2862 14.9009C44.2862 15.2925 44.3012 15.6841 44.2711 16.0681C44.241 16.4974 44.0377 16.8287 43.5633 16.8362C43.0964 16.8438 42.8554 16.5651 42.8102 16.1133C42.6445 14.6599 41.5602 15.6012 40.9351 15.4506C40.167 15.2624 40.4306 16.0003 40.408 16.3769C40.3478 17.1073 40.3779 17.8227 40.3779 18.5381Z" fill="white"/>
<path d="M8.60719 36.1294C10.4898 36.1294 12.3724 36.1369 14.255 36.1294C14.8122 36.1294 15.3846 36.1821 15.3846 36.8749C15.3846 37.5752 14.7972 37.6204 14.2475 37.6204C10.4521 37.6204 6.65682 37.6204 2.85396 37.6204C2.31177 37.6204 1.73193 37.5903 1.73193 36.8674C1.73946 36.1369 2.31931 36.1294 2.86149 36.1294C4.77422 36.1294 6.68694 36.1294 8.60719 36.1294Z" fill="white"/>
<path d="M8.59962 40.0298C10.4822 40.0298 12.3648 40.0373 14.2474 40.0298C14.8047 40.0298 15.377 40.0825 15.377 40.7753C15.377 41.4756 14.7896 41.5283 14.2399 41.5283C10.4446 41.5283 6.64925 41.5283 2.8464 41.5283C2.30421 41.5283 1.72437 41.5058 1.72437 40.7753C1.7319 40.0448 2.30421 40.0373 2.85393 40.0373C4.77418 40.0373 6.6869 40.0298 8.59962 40.0298Z" fill="white"/>
<path d="M8.5018 43.938C10.4145 43.938 12.3348 43.9455 14.2475 43.938C14.8048 43.938 15.3771 43.9907 15.3846 44.676C15.3921 45.3763 14.8048 45.429 14.255 45.429C10.4597 45.429 6.66439 45.429 2.86153 45.429C2.32687 45.429 1.7395 45.4064 1.7395 44.6835C1.7395 43.9531 2.31181 43.938 2.86153 43.938C4.7366 43.938 6.6192 43.938 8.5018 43.938Z" fill="white"/>
<path d="M10.2791 14.396C11.7249 14.4036 12.8922 15.5783 12.862 17.0016C12.8319 18.4248 11.6346 19.5694 10.2038 19.5393C8.8182 19.5092 7.67358 18.357 7.66605 16.9714C7.65852 15.5407 8.82573 14.3885 10.2791 14.396ZM11.3559 16.9187C11.3032 16.2636 10.9117 15.8494 10.249 15.8645C9.59384 15.872 9.17213 16.2786 9.17966 16.9714C9.18719 17.6793 9.61643 18.0558 10.2791 18.0483C10.9342 18.0483 11.3258 17.6416 11.3559 16.9187Z" fill="white"/>
<path d="M5.30144 5.26961C5.00776 5.26961 4.7216 5.26961 4.42792 5.26961C3.93844 5.26208 3.59204 5.02864 3.59204 4.53163C3.59204 4.01956 3.96856 3.81624 4.44298 3.80118C4.9927 3.78612 5.54242 3.79365 6.0846 3.80118C6.55149 3.80871 6.9506 3.99697 6.96566 4.50151C6.98072 5.05876 6.59667 5.27714 6.06954 5.27714C5.81351 5.26961 5.55748 5.26961 5.30144 5.26961Z" fill="white"/>
<path d="M38.6684 4.59906C38.5931 5.01324 38.3296 5.26927 37.8777 5.25421C37.3882 5.23162 37.087 4.94546 37.1397 4.44092C37.1849 3.9891 37.5313 3.78578 37.9681 3.8159C38.4049 3.86108 38.6684 4.10959 38.6684 4.59906Z" fill="white"/>
<path d="M40.6187 3.81592C41.0781 3.86863 41.3793 4.09454 41.3642 4.54637C41.3492 4.99066 41.0555 5.25423 40.6112 5.25423C40.1217 5.25423 39.813 4.98313 39.8431 4.4786C39.8657 3.99665 40.2121 3.83851 40.6187 3.81592Z" fill="white"/>
<path d="M44.0828 4.54659C44.0075 4.97582 43.7741 5.26198 43.3223 5.25445C42.8328 5.25445 42.5316 4.99088 42.5542 4.47881C42.5768 3.99686 42.9006 3.8086 43.3298 3.81613C43.7816 3.8312 44.0301 4.10229 44.0828 4.54659Z" fill="white"/>
</svg>
