<svg width="15" height="14" viewBox="0 0 15 14" fill="none" xmlns="http://www.w3.org/2000/svg">
<path d="M7.31469 1.3125C5.17589 1.3125 3.23671 2.40625 2.15306 4.15625C1.09792 5.93359 1.09792 8.09375 2.15306 9.84375C3.23671 11.6211 5.17589 12.6875 7.31469 12.6875C9.42497 12.6875 11.3641 11.6211 12.4478 9.84375C13.5029 8.09375 13.5029 5.93359 12.4478 4.15625C11.3641 2.40625 9.42497 1.3125 7.31469 1.3125ZM7.31469 14C4.6911 14 2.29564 12.6875 0.983847 10.5C-0.327949 8.33984 -0.327949 5.6875 0.983847 3.5C2.29564 1.33984 4.6911 0 7.31469 0C9.90976 0 12.3052 1.33984 13.617 3.5C14.9288 5.6875 14.9288 8.33984 13.617 10.5C12.3052 12.6875 9.90976 14 7.31469 14ZM10.5371 5.71484L6.88693 9.21484C6.60176 9.48828 6.174 9.48828 5.91734 9.21484L4.09223 7.46484C3.80706 7.21875 3.80706 6.80859 4.09223 6.5625C4.34889 6.28906 4.77665 6.28906 5.06182 6.5625L6.40213 7.84766L9.56755 4.8125C9.82421 4.53906 10.252 4.53906 10.5371 4.8125C10.7938 5.05859 10.7938 5.46875 10.5371 5.71484Z" fill="white" fill-opacity="0.4"/>
</svg>
