<svg width="49" height="50" viewBox="0 0 49 50" fill="none" xmlns="http://www.w3.org/2000/svg">
<path d="M36.3873 26.6487C36.3873 32.9355 36.3873 39.2224 36.3873 45.5043C36.3873 48.4712 34.8523 49.9914 31.8609 49.9963C22.7396 50.0012 13.6232 50.0012 4.50182 49.9963C1.51041 49.9963 0 48.481 0 45.4847C0 32.9453 0 20.4059 0 7.86657C0 4.90459 1.54965 3.35985 4.51653 3.35005C6.01714 3.34514 7.51284 3.33533 9.01345 3.35495C9.47932 3.35985 9.68039 3.23725 9.76375 2.72234C10.0384 1.03048 11.2055 0.0300783 12.9415 0.0202704C16.4576 -0.00424932 19.9787 -0.00915326 23.4948 0.0202704C25.1867 0.0349822 26.3146 0.981443 26.6382 2.64878C26.751 3.23725 26.9962 3.36476 27.5406 3.35495C29.0363 3.32553 30.5369 3.34024 32.0326 3.34514C34.8572 3.35985 36.3873 4.88007 36.3873 7.68513C36.3922 14.0112 36.3873 20.3324 36.3873 26.6487ZM34.8131 26.7713C34.8131 20.3569 34.818 13.9426 34.8082 7.5233C34.8082 5.85596 33.9549 4.96344 32.3121 4.93402C30.684 4.89969 29.0559 4.93892 27.4278 4.91931C26.9815 4.9144 26.7265 5.00758 26.5941 5.49797C26.1871 6.97406 25.1033 7.72436 23.6419 7.74888C20.0277 7.80773 16.4135 7.79792 12.7993 7.75378C11.3575 7.73907 10.313 6.97406 9.87164 5.58624C9.6951 5.02719 9.44009 4.90459 8.91537 4.9144C7.41967 4.94383 5.91906 4.91931 4.42336 4.92421C2.45197 4.93402 1.57417 5.81673 1.57417 7.79792C1.57417 20.3667 1.57417 32.9355 1.57417 45.5092C1.57417 47.5934 2.39312 48.4222 4.45769 48.4222C13.6084 48.4271 22.7592 48.4271 31.91 48.4222C33.9745 48.4222 34.8131 47.5787 34.8131 45.5239C34.818 39.2763 34.8131 33.0238 34.8131 26.7713ZM18.277 6.19923C19.9051 6.19923 21.5283 6.20414 23.1564 6.19923C24.6423 6.18943 25.1425 5.68432 25.1425 4.20823C25.1425 3.85025 25.1621 3.49226 25.1278 3.13427C25.0395 2.19272 24.505 1.60915 23.5536 1.60424C19.9787 1.57482 16.3988 1.57482 12.8238 1.60424C11.8626 1.61405 11.3477 2.20252 11.2938 3.15389C11.2742 3.51188 11.284 3.86986 11.2889 4.22785C11.3036 5.70394 11.794 6.18943 13.2995 6.19923C14.9619 6.20414 16.6195 6.19923 18.277 6.19923Z" fill="white"/>
<path d="M38.285 24.6226C38.285 19.7726 38.2997 14.9177 38.2752 10.0677C38.2703 8.827 38.5547 7.74814 39.7464 7.23322C40.9871 6.69379 42.2964 6.68888 43.493 7.43428C44.3022 7.93449 44.616 8.73383 44.6307 9.68519C44.6454 10.5581 44.2825 11.6419 44.7778 12.25C45.2682 12.8482 46.3667 12.402 47.1955 12.4657C47.7987 12.5148 48.0831 12.8188 48.0831 13.4024C48.088 15.4866 48.088 17.5707 48.0831 19.6549C48.0831 20.1796 47.8575 20.5572 47.2838 20.5474C46.7051 20.5376 46.5187 20.1453 46.5187 19.6206C46.5187 18.1249 46.4942 16.6243 46.5285 15.1286C46.5433 14.4469 46.558 13.981 45.6017 14.0056C44.7386 14.0252 44.6111 14.3292 44.6111 15.0893C44.6356 23.1024 44.6209 31.1105 44.6356 39.1235C44.6356 39.7905 44.5326 40.3986 44.2531 41.0067C43.5911 42.4533 42.9781 43.9294 42.3455 45.3908C42.1738 45.7831 42.012 46.195 41.4922 46.2097C40.9773 46.2244 40.7762 45.8567 40.5997 45.4496C39.8984 43.8068 39.1922 42.164 38.4616 40.531C38.2948 40.1534 38.285 39.7807 38.285 39.3884C38.285 34.455 38.285 29.5363 38.285 24.6226ZM39.8592 26.4714C39.8592 29.9532 39.8592 33.4399 39.8592 36.9217C39.8592 39.0549 39.8592 39.0059 42.0022 39.0647C42.8898 39.0892 43.0762 38.8048 43.0713 37.9662C43.0369 30.7378 43.0517 23.5094 43.0517 16.281C43.0517 13.9958 43.0516 14.0301 40.7566 14.0056C40.0112 13.9958 39.8396 14.2262 39.8445 14.9422C39.8739 18.7869 39.8592 22.6267 39.8592 26.4714ZM39.8592 10.7493C39.8641 10.7493 39.869 10.7493 39.869 10.7493C39.869 11.2054 39.8445 11.6615 39.8739 12.1126C39.9033 12.554 40.2907 12.4804 40.5506 12.4461C41.3745 12.3284 42.5662 12.9218 42.9438 12.1175C43.3312 11.2888 43.1497 10.1462 42.9536 9.15066C42.8947 8.85643 42.625 8.68969 42.3357 8.58181C40.8204 8.01295 39.8592 8.66517 39.8592 10.2688C39.8543 10.4257 39.8592 10.5875 39.8592 10.7493ZM42.6299 40.7467C40.1436 40.5457 40.1387 40.5457 41.1097 42.6691C41.1931 42.8554 41.2029 43.1301 41.5609 43.1938C41.8992 42.419 42.2425 41.6393 42.6299 40.7467Z" fill="white"/>
<path d="M23.3231 16.4088C21.4988 16.4088 19.6795 16.4039 17.8552 16.4137C17.2864 16.4187 16.7371 16.3451 16.7224 15.6585C16.7028 14.9033 17.2864 14.8347 17.8895 14.8396C21.5332 14.8494 25.1768 14.8494 28.8204 14.8396C29.4187 14.8396 30.017 14.8984 30.0023 15.6438C29.9876 16.3941 29.3746 16.4187 28.7861 16.4187C26.9667 16.4039 25.1474 16.4088 23.3231 16.4088Z" fill="white"/>
<path d="M23.3425 26.1973C21.4889 26.1973 19.6352 26.1875 17.7815 26.2022C17.2371 26.2071 16.7467 26.0943 16.7222 25.4764C16.6928 24.8095 17.1783 24.6231 17.7766 24.628C21.5183 24.6329 25.26 24.6329 29.0017 24.628C29.5607 24.628 30.0119 24.8144 30.0168 25.4225C30.0217 26.0355 29.5706 26.2071 29.0115 26.2022C27.1186 26.1924 25.2306 26.1973 23.3425 26.1973Z" fill="white"/>
<path d="M23.4214 34.3523C25.2407 34.3523 27.065 34.3572 28.8844 34.3474C29.4532 34.3425 30.0025 34.416 30.0123 35.1075C30.0172 35.7695 29.5023 35.9265 28.9187 35.9265C25.2113 35.9215 21.5039 35.9215 17.7965 35.9265C17.2081 35.9265 16.7079 35.7597 16.7177 35.0928C16.7275 34.4651 17.2179 34.3474 17.7622 34.3523C19.6502 34.3572 21.5382 34.3523 23.4214 34.3523Z" fill="white"/>
<path d="M13.741 24.613C13.741 24.9367 13.5449 25.1476 13.3291 25.3584C12.005 26.6482 10.681 27.9379 9.36672 29.2375C8.85181 29.7475 8.37613 29.7818 7.86612 29.2424C7.46399 28.8206 7.03245 28.4234 6.64013 27.9919C6.31157 27.6339 6.27233 27.2219 6.63032 26.8639C6.99812 26.4913 7.4738 26.5305 7.73861 26.913C8.49382 28.0164 9.01854 27.4475 9.65115 26.7806C10.5192 25.8586 11.446 25.0005 12.3532 24.1177C12.6328 23.8431 12.9662 23.7352 13.3291 23.9069C13.6135 24.0344 13.7459 24.2894 13.741 24.613Z" fill="white"/>
<path d="M13.741 34.2703C13.7508 34.5891 13.5742 34.8097 13.3585 35.0255C12.0246 36.3545 10.6858 37.6835 9.36664 39.0271C8.85663 39.547 8.38586 39.5911 7.87094 39.0467C7.46882 38.6201 7.03727 38.2278 6.64005 37.7962C6.30658 37.4383 6.26735 37.0214 6.62044 36.6683C6.98333 36.3103 7.45901 36.3349 7.73363 36.7174C8.4398 37.7031 8.94 37.3157 9.57261 36.6193C10.4406 35.6532 11.4018 34.7705 12.3139 33.8535C12.5885 33.5789 12.8975 33.4465 13.28 33.5936C13.5987 33.7064 13.7263 33.9565 13.741 34.2703Z" fill="white"/>
<path d="M7.18423 16.9633C7.59616 16.9535 7.84136 17.2428 8.05223 17.5174C8.46416 18.052 8.77311 17.9441 9.18995 17.4978C10.1462 16.4827 11.1564 15.5215 12.1372 14.526C12.559 14.0994 13.0297 13.7414 13.5446 14.2857C14.0056 14.7761 13.6672 15.2322 13.27 15.6245C11.9803 16.9044 10.6856 18.1795 9.42043 19.4839C8.83196 20.0871 8.33176 20.0626 7.78251 19.4496C7.41472 19.0376 7.00769 18.6649 6.62518 18.2677C6.37018 18.0029 6.34076 17.6842 6.47807 17.3654C6.60066 17.0712 6.86057 16.9486 7.18423 16.9633Z" fill="white"/>
<path d="M20.5179 19.7397C19.5764 19.7397 18.6397 19.7299 17.6982 19.7446C17.1293 19.7495 16.7076 19.5533 16.7223 18.9354C16.7321 18.3862 17.1293 18.1704 17.654 18.1704C19.5028 18.1704 21.3516 18.1753 23.2004 18.1704C23.7644 18.1704 24.2008 18.3813 24.1812 18.9845C24.1616 19.5926 23.7006 19.7544 23.1465 19.7446C22.2687 19.7299 21.3958 19.7397 20.5179 19.7397Z" fill="white"/>
<path d="M20.4986 27.8898C21.4108 27.8898 22.3229 27.8947 23.235 27.8898C23.7598 27.8849 24.1668 28.0859 24.1815 28.6401C24.1962 29.1893 23.7941 29.4492 23.2743 29.4492C21.3863 29.459 19.4982 29.459 17.6102 29.4492C17.0855 29.4443 16.703 29.1795 16.7177 28.6303C16.7324 28.0663 17.1394 27.88 17.6642 27.8849C18.6106 27.8947 19.5571 27.8898 20.4986 27.8898Z" fill="white"/>
<path d="M20.4202 39.1196C19.4737 39.1196 18.5322 39.1146 17.5857 39.1196C17.0855 39.1245 16.7373 38.894 16.7177 38.3987C16.6932 37.8494 17.061 37.565 17.5906 37.5601C19.4786 37.5454 21.3716 37.5503 23.2596 37.5552C23.7794 37.5552 24.1815 37.8004 24.1815 38.3496C24.1815 38.9038 23.7892 39.1245 23.2547 39.1196C22.3131 39.1196 21.3666 39.1196 20.4202 39.1196Z" fill="white"/>
</svg>
