<svg width="55" height="54" viewBox="0 0 55 54" fill="none" xmlns="http://www.w3.org/2000/svg">
<path d="M5.94871 38.6384C3.49208 35.8057 3.43359 32.806 5.69803 30.6501C7.72851 28.7199 10.9288 28.7199 12.9593 30.6585C15.1903 32.7809 15.1151 35.7807 12.7003 38.63C14.2795 39.3068 15.6666 40.226 16.7863 41.6131C17.6386 40.5184 18.5327 39.5826 19.5855 38.8055C20.6383 38.0284 21.7998 37.4685 23.1785 36.9338C21.0478 35.179 19.9699 33.0316 20.3208 30.341C20.5548 28.5612 21.4322 27.0989 22.8359 25.9709C25.56 23.79 29.5039 24.0741 31.9271 26.6226C34.6929 29.5305 34.3754 33.1903 30.9495 36.9588C33.5148 37.8696 35.6121 39.3904 37.2582 41.6047C38.3862 40.2427 39.7232 39.3068 41.386 38.6133C39.9321 37.2179 39.2135 35.5968 39.5143 33.6583C39.7148 32.3213 40.3666 31.2183 41.4278 30.3577C43.5585 28.6364 46.6084 28.8286 48.5136 30.7922C50.6193 32.9647 50.5023 35.7723 48.1376 38.5882C48.6306 38.8556 49.1236 39.0979 49.5998 39.3737C51.647 40.5853 53.0592 42.3317 53.8279 44.5794C54.5298 46.6349 53.2514 48.4816 51.0705 48.4983C47.5526 48.5234 44.0348 48.5401 40.517 48.4816C39.6563 48.4732 39.4725 48.7406 39.4809 49.5428C39.4976 52.4757 37.935 53.9965 34.977 53.9965C29.6293 53.9965 24.2815 54.0048 18.9421 53.9965C16.1429 53.9965 14.5135 52.4256 14.5636 49.6347C14.5803 48.6905 14.3297 48.4649 13.4022 48.4816C10.0264 48.5401 6.6506 48.515 3.27483 48.5067C0.659435 48.4983 -0.593948 46.6266 0.366979 44.17C1.40311 41.5713 3.29154 39.7831 5.94871 38.6384ZM27.039 52.3253C29.7797 52.3253 32.5288 52.3337 35.2695 52.3253C36.9323 52.3169 37.7763 51.4479 37.8013 49.7684C37.8097 49.4175 37.8013 49.0665 37.8013 48.7156C37.8013 41.9473 31.4258 36.8753 24.7912 38.2874C19.268 39.4656 15.934 44.5543 16.2014 49.0749C16.3518 51.6986 16.8448 52.3337 19.4351 52.3337C21.9753 52.3253 24.5071 52.3253 27.039 52.3253ZM27.0473 36.3489C29.8465 36.3405 32.0776 34.1095 32.0943 31.327C32.1026 28.5194 29.7964 26.1965 27.0055 26.2132C24.2063 26.2299 21.9335 28.5528 21.9669 31.3688C21.9836 34.1513 24.2481 36.3572 27.0473 36.3489ZM8.55574 46.8355C10.3105 46.8355 12.0652 46.8188 13.8199 46.8438C14.4049 46.8522 14.689 46.7102 14.8143 46.0835C14.9563 45.3314 15.207 44.5878 15.5413 43.9026C15.8254 43.326 15.7251 42.95 15.3324 42.5155C13.2768 40.2427 10.7116 39.357 7.73687 39.9419C4.87915 40.5101 2.91552 42.2481 1.88775 44.9972C1.45324 46.167 1.92117 46.8188 3.19127 46.8355C4.97107 46.8438 6.75923 46.8355 8.55574 46.8355ZM45.4887 46.8355C47.2518 46.8355 49.0066 46.8438 50.7697 46.8355C52.1734 46.8271 52.6163 46.1837 52.14 44.8802C50.143 39.4489 42.9318 38.0117 38.9628 42.2481C38.3862 42.8664 38.1941 43.3845 38.6286 44.17C38.9461 44.7465 39.1299 45.415 39.2469 46.0667C39.3555 46.6767 39.6146 46.8689 40.2245 46.8606C41.9709 46.8104 43.7257 46.8355 45.4887 46.8355ZM9.27435 38.0367C11.2547 38.0535 12.8423 36.5243 12.8841 34.5691C12.9259 32.5553 11.355 30.9259 9.34955 30.9008C7.36921 30.8758 5.71474 32.5219 5.7231 34.4939C5.73145 36.4408 7.31072 38.02 9.27435 38.0367ZM44.6949 38.0367C46.7003 38.0535 48.3297 36.4491 48.3214 34.4604C48.313 32.5219 46.7087 30.9259 44.7701 30.9008C42.8232 30.8758 41.2022 32.4467 41.1688 34.3936C41.127 36.4157 42.6812 38.02 44.6949 38.0367Z" fill="#C10016"/>
<path d="M31.4091 22.5867C30.8743 22.595 30.515 22.2107 30.0972 21.9683C29.036 21.3584 28.0918 20.0966 26.9805 20.1718C25.936 20.247 24.9584 21.3249 23.9557 21.9683C23.7802 22.0853 23.6047 22.2023 23.4292 22.3193C22.953 22.6285 22.4516 22.7204 21.9502 22.3778C21.4405 22.0352 21.3653 21.5338 21.5074 20.974C21.8166 19.7875 22.109 18.5926 22.4683 17.4227C22.6187 16.9297 22.5184 16.654 22.1257 16.3532C21.2066 15.6513 20.3208 14.8993 19.4017 14.189C18.8836 13.7879 18.5661 13.3117 18.7917 12.6515C19.0173 11.9831 19.5855 11.8327 20.2289 11.8076C21.3486 11.7658 22.4767 11.6739 23.5964 11.6488C24.1395 11.6405 24.4069 11.4483 24.5823 10.9302C24.95 9.8356 25.3929 8.7577 25.8023 7.67979C26.0196 7.11994 26.3454 6.70215 27.0223 6.70215C27.6991 6.70215 28.025 7.11994 28.2422 7.67979C28.6684 8.79112 29.1112 9.90245 29.504 11.0305C29.6544 11.465 29.8883 11.6321 30.3396 11.6488C31.501 11.6823 32.6541 11.7742 33.8156 11.8159C34.459 11.841 35.0272 11.9831 35.2528 12.6515C35.4784 13.3117 35.1693 13.7879 34.6512 14.1974C33.732 14.9076 32.8547 15.6597 31.9272 16.3615C31.5344 16.6624 31.4258 16.9381 31.5762 17.4311C31.9355 18.6009 32.253 19.7958 32.5288 20.9907C32.746 21.9433 32.253 22.595 31.4091 22.5867ZM21.2901 13.4955C22.2176 14.2475 22.8945 14.8491 23.6298 15.3839C24.34 15.8936 24.4988 16.512 24.2648 17.3141C24.0058 18.1998 23.7802 19.1023 23.471 20.2637C24.4988 19.5953 25.3093 19.1023 26.0697 18.5508C26.7382 18.0745 27.3398 18.0912 27.9999 18.5591C28.7686 19.1023 29.5708 19.5953 30.5652 20.247C30.3061 19.236 30.1724 18.4422 29.8967 17.6985C29.4872 16.6122 29.6961 15.8351 30.6821 15.1667C31.3423 14.7154 32.0442 14.2559 32.5873 13.4871C31.5512 13.4203 30.6404 13.3117 29.7296 13.32C28.8522 13.32 28.3843 12.9106 28.0918 12.1251C27.7743 11.2645 27.557 10.3537 26.9554 9.45123C26.571 10.4707 26.2201 11.348 25.9026 12.2337C25.6435 12.944 25.184 13.2949 24.3985 13.3033C23.4543 13.32 22.5101 13.4203 21.2901 13.4955Z" fill="#C10016"/>
<path d="M2.73163 21.2077C2.96559 20.3554 3.16613 19.311 3.54215 18.3333C3.95994 17.222 3.82625 16.4365 2.73998 15.7931C1.96289 15.3252 1.30277 14.6651 0.592522 14.0969C0.14966 13.7376 -0.126084 13.3031 0.0577453 12.7182C0.249931 12.0998 0.726216 11.8492 1.34455 11.8241C2.50602 11.7656 3.65913 11.6653 4.8206 11.6653C5.464 11.6653 5.73975 11.3896 5.92357 10.8214C6.2411 9.8521 6.63382 8.91624 6.99313 7.96367C7.23545 7.32027 7.48612 6.69358 8.33842 6.71029C9.19072 6.727 9.41633 7.3704 9.65865 8.00545C9.98453 8.85775 10.3355 9.70169 10.6029 10.5707C10.8368 11.3311 11.1878 11.7322 12.0735 11.6904C13.0846 11.6403 14.1123 11.7823 15.1234 11.8157C15.7668 11.8408 16.3099 11.9996 16.5523 12.668C16.8029 13.3616 16.4102 13.8044 15.9256 14.1972C15.0482 14.8991 14.1959 15.6427 13.2851 16.3028C12.8005 16.6538 12.7253 17.0131 12.884 17.5562C13.2183 18.6676 13.4856 19.7956 13.8115 20.9069C13.9954 21.5169 13.8951 22.0266 13.3687 22.4026C12.8757 22.7536 12.3743 22.6533 11.898 22.3358C10.8953 21.684 9.88426 21.049 8.90662 20.3638C8.45541 20.0463 8.12953 20.0713 7.69502 20.3805C6.68396 21.0824 5.66454 21.7676 4.60334 22.3943C3.6842 22.9123 2.74834 22.3943 2.73163 21.2077ZM2.58958 13.5036C3.55886 14.2891 4.30253 14.8991 5.06292 15.5007C5.62276 15.9435 5.81495 16.4616 5.59769 17.1635C5.3136 18.091 5.09634 19.0352 4.8206 20.063C5.5392 19.8875 6.02384 19.5115 6.44999 19.1438C7.70338 18.0492 8.88991 17.974 10.1517 19.1188C10.6029 19.5282 11.1711 19.7956 11.873 20.2552C11.5805 19.1438 11.405 18.2581 11.1126 17.4058C10.7951 16.4867 11.0708 15.8767 11.8061 15.3168C12.508 14.7821 13.2768 14.2974 13.9034 13.4953C12.8255 13.4284 11.8897 13.3365 10.9455 13.3198C10.1684 13.3031 9.70879 12.9688 9.45811 12.2419C9.13223 11.3227 8.75622 10.4119 8.32171 9.29225C7.95405 10.2615 7.61146 11.0219 7.3775 11.8157C7.06833 12.8686 6.47506 13.395 5.32195 13.3365C4.51143 13.2947 3.70927 13.4284 2.58958 13.5036Z" fill="#C10016"/>
<path d="M45.7311 6.69385C46.3411 6.7022 46.7004 7.03644 46.9009 7.57957C47.3187 8.69926 47.7699 9.80224 48.1627 10.9303C48.3381 11.4316 48.5972 11.6405 49.1487 11.6489C50.2349 11.6656 51.3212 11.7659 52.4158 11.7993C53.0843 11.8244 53.7026 11.9246 53.97 12.6349C54.2374 13.3618 53.8112 13.8214 53.2848 14.2392C52.4242 14.9077 51.5969 15.6263 50.7279 16.278C50.26 16.629 50.143 16.9883 50.3101 17.5398C50.636 18.6177 50.9034 19.704 51.2126 20.7819C51.388 21.4086 51.3797 21.9768 50.7948 22.3778C50.2516 22.7539 49.7336 22.5867 49.2322 22.2525C48.2964 21.6342 47.3271 21.0576 46.4246 20.3891C45.9066 20.0048 45.5306 20.0549 45.0376 20.4142C44.1518 21.0493 43.216 21.6007 42.3052 22.2107C41.7704 22.57 41.2356 22.7873 40.6591 22.3611C40.0909 21.9433 40.0742 21.3918 40.2747 20.7568C40.5839 19.7541 40.7928 18.7096 41.127 17.7153C41.361 17.005 41.2022 16.5621 40.5922 16.136C39.7316 15.5344 38.9378 14.8241 38.1189 14.164C37.6259 13.7713 37.2499 13.3284 37.5173 12.6349C37.7763 11.9664 38.3278 11.8244 38.9628 11.8076C40.0909 11.7659 41.2106 11.6656 42.3303 11.6489C42.8734 11.6405 43.1324 11.4483 43.3079 10.9303C43.6839 9.83566 44.1351 8.76611 44.5362 7.67984C44.7284 7.09493 45.0626 6.7022 45.7311 6.69385ZM39.9822 13.4955C40.9265 14.2559 41.6451 14.8659 42.3887 15.4257C43.0321 15.9187 43.2076 16.4953 42.9737 17.2724C42.6896 18.1832 42.4807 19.1107 42.1798 20.2387C43.2076 19.5703 44.0432 19.0606 44.8454 18.5007C45.447 18.0829 45.9901 18.0746 46.5917 18.4924C47.3939 19.0438 48.2295 19.5535 49.2656 20.2304C48.9815 19.119 48.8061 18.2333 48.5136 17.3977C48.1877 16.4786 48.4635 15.877 49.2071 15.3088C49.909 14.774 50.6778 14.2977 51.3045 13.4788C50.2266 13.412 49.2823 13.3201 48.3381 13.3033C47.561 13.2866 47.1015 12.944 46.8508 12.2254C46.5249 11.3063 46.1489 10.4039 45.7227 9.29253C45.33 10.3287 44.9791 11.1642 44.695 12.0082C44.4025 12.8772 43.8928 13.3368 42.9235 13.3117C42.0462 13.3034 41.1771 13.4203 39.9822 13.4955Z" fill="#C10016"/>
<path d="M22.9361 8.29813C22.9361 8.94989 22.2425 9.44289 21.7579 9.08358C20.3875 8.05581 19.1091 6.9027 17.9392 5.64932C17.6718 5.35686 17.7888 4.97249 18.0479 4.68839C18.3069 4.39593 18.6996 4.27059 19.0004 4.51292C20.3457 5.58247 21.6325 6.71887 22.8191 7.9639C22.8943 8.04745 22.9026 8.21457 22.9361 8.29813Z" fill="#C10016"/>
<path d="M31.9938 9.20049C31.317 9.20885 30.8156 8.38162 31.2752 7.9304C32.4618 6.74386 33.7402 5.64089 35.0019 4.53791C35.2944 4.27888 35.6788 4.37079 35.9629 4.64654C36.272 4.94735 36.3974 5.3735 36.0882 5.68267C34.8933 6.91098 33.6316 8.07245 32.2612 9.11694C32.186 9.17543 32.0607 9.17543 31.9938 9.20049Z" fill="#C10016"/>
<path d="M27.866 2.36529C27.866 2.85828 27.8744 3.34292 27.866 3.83592C27.8577 4.3707 27.5819 4.72164 27.0555 4.74671C26.5291 4.76342 26.1948 4.4459 26.1865 3.90277C26.1698 2.89171 26.1614 1.87229 26.1865 0.861228C26.1948 0.334807 26.504 -0.0161398 27.0388 0.000571996C27.5736 0.0172838 27.8493 0.368231 27.8577 0.894651C27.8744 1.38765 27.866 1.87229 27.866 2.36529Z" fill="#C10016"/>
</svg>
