<svg width="63" height="50" viewBox="0 0 63 50" fill="none" xmlns="http://www.w3.org/2000/svg">
<path d="M31.3716 33.5399C31.3716 32.8426 31.44 32.2683 30.4009 32.2547C29.2797 32.2273 29.3071 32.8289 29.3071 33.6082C29.3207 37.6553 29.2661 41.7024 29.3344 45.7631C29.3618 47.3218 28.8695 47.9507 27.2425 47.937C19.5859 47.8824 11.9293 47.8824 4.27265 47.937C2.78234 47.9507 2.19442 47.4585 2.2081 45.9272C2.26279 39.9386 2.26279 33.9364 2.2081 27.9478C2.19442 26.5395 2.67296 25.9653 4.13592 25.9926C7.85486 26.061 11.5738 26.02 15.2927 26.02C16.0721 26.02 16.8377 26.1977 16.7967 24.9125C16.7557 23.682 15.9627 23.9828 15.3064 23.9691C11.5875 23.9554 7.86853 23.9144 4.1496 23.9828C2.68664 24.0101 2.19442 23.4495 2.2081 22.0276C2.24911 15.9843 2.23544 9.92742 2.2081 3.88416C2.2081 2.6673 2.57726 2.02469 3.91716 2.03837C8.47012 2.07938 13.0094 2.07938 17.5624 2.03837C18.6151 2.02469 18.9023 2.43487 18.8749 3.40562C18.8202 5.23774 18.8749 7.06986 18.8612 8.90198C18.8476 9.94109 19.2988 10.4333 20.3652 10.3923C21.7462 10.3513 23.1408 10.3376 24.5217 10.3923C25.6565 10.4333 26.1487 9.96843 26.1214 8.83361C26.0803 7.05618 26.1761 5.27876 26.094 3.515C26.0393 2.31182 26.4905 2.01102 27.6253 2.03837C28.9789 2.07938 29.3207 2.74934 29.3071 3.93885C29.2797 8.04061 29.2934 12.156 29.3071 16.2578C29.3071 16.9414 29.0746 17.6934 30.2778 17.7208C31.5904 17.7481 31.3443 16.9551 31.3443 16.2031C31.3443 12.156 31.3443 8.10897 31.3443 4.04823C31.3443 1.08129 30.2915 0.0148315 27.3792 0.0148315C19.7226 0.0148315 12.066 0.0148315 4.40938 0.0148315C1.12797 0.0148315 0.102526 1.01293 0.102526 4.25332C0.102526 8.30039 0.239252 12.3611 0.0615088 16.4082C-0.102562 20.3869 0.416995 24.3383 0.184562 28.3306C-0.157252 34.3055 0.0751813 40.3078 0.102526 46.2963C0.116199 48.7711 1.31938 49.9469 3.79411 49.9606C7.78649 49.9743 11.7789 49.9606 15.7849 49.9606C19.7773 49.9606 23.7697 49.9743 27.7757 49.9606C30.1001 49.9469 31.3306 48.7711 31.3443 46.5288C31.3853 42.1946 31.3579 37.8741 31.3716 33.5399ZM22.6075 2.02469C23.756 2.05204 24.1935 2.35283 24.0842 3.52867C23.9885 4.51309 24.0705 5.51119 24.0705 6.50928C24.0705 8.30039 23.3048 8.81994 21.5411 8.35507C21.0078 8.21835 20.9942 7.90388 20.9942 7.50738C20.9942 6.74172 20.9942 5.96238 20.9942 5.19672C20.9942 4.70451 21.0489 4.19863 20.9805 3.70641C20.8027 2.40752 21.2813 1.98368 22.6075 2.02469Z" fill="#C10016"/>
<path d="M58.156 35.0301C56.9392 34.3465 56.3376 33.321 55.7223 32.2272C55.0387 31.0241 54.3414 29.8346 53.6714 28.6177C53.3159 27.9614 53.0425 27.5512 52.1675 28.0708C51.3744 28.5357 51.3881 28.9185 51.812 29.6158C52.7144 31.1061 53.5484 32.6238 54.4644 34.2508H41.5576C42.4873 32.6101 43.3076 31.1198 44.169 29.6568C44.5518 29.0142 44.7706 28.5767 43.8956 28.0981C43.1026 27.6606 42.7334 27.8247 42.3642 28.5767C41.9541 29.4244 41.4755 30.2311 40.9833 31.0377C40.0399 32.5554 39.4246 34.2645 37.6472 35.2215C36.3893 35.9052 36.1979 37.8193 37.0456 39.0909C37.5925 39.9112 37.8386 40.7726 38.03 41.6886C38.4266 43.5344 38.8367 45.3666 39.2743 47.1987C39.7528 49.1949 40.7509 49.9742 42.8018 49.9879C45.9601 50.0152 49.1185 49.9879 52.2768 49.9879C55.5309 49.9879 56.2009 49.3999 56.9528 46.31C57.5955 43.6985 57.7595 40.9913 59.1678 38.544C59.8924 37.2998 59.4549 35.7548 58.156 35.0301ZM40.1083 41.1964C40.2723 40.0206 41.3661 40.9366 41.831 40.6085C44.1143 40.6085 44.2647 40.7316 44.21 42.8918C44.1827 44.4095 42.9795 43.5891 42.3642 43.6438C40.6962 43.7805 39.8895 42.9055 40.1083 41.1964ZM43.2393 47.9233C42.1728 48.019 41.2978 47.7456 41.2704 46.4877C41.2431 45.1341 42.3642 46.0775 42.7334 45.7767C43.7452 45.7631 44.6749 45.5716 44.7022 46.9799C44.7296 48.2788 43.8682 47.8686 43.2393 47.9233ZM48.4895 47.937C47.6008 47.937 46.6984 48.1011 46.6848 46.7065C46.6711 45.0521 47.9563 46.2006 48.4075 45.6263C49.0911 46.1185 50.2806 45.1068 50.3764 46.6244C50.4584 48.1421 49.4193 47.937 48.4895 47.937ZM50.7182 43.1516C50.5404 43.6712 50.2396 43.6712 49.8568 43.6848C49.3099 43.6985 48.763 43.6985 48.2024 43.6985C46.4797 43.6985 45.8781 42.9465 46.0832 41.1964C46.1379 40.7452 46.343 40.6359 46.6984 40.6359C47.3 40.6222 47.9153 40.6359 48.5169 40.6359V40.6222C48.681 40.6222 48.845 40.6222 49.0091 40.6222C51.06 40.6222 51.3881 41.1417 50.7182 43.1516ZM54.7789 46.5014C54.6832 47.3901 54.2594 47.9096 53.3023 47.9507C52.605 47.978 52.3042 47.7729 52.3589 47.0073C52.4136 46.1322 52.7144 45.64 53.9586 45.8314C54.1226 45.8724 54.8883 45.4896 54.7789 46.5014ZM55.8864 41.2374C55.6676 42.2219 56.1051 43.972 54.0679 43.6848C53.5757 43.6165 52.646 44.0266 52.8648 42.9192C53.0698 41.9074 52.4272 40.1573 54.8199 40.6905C55.066 40.8273 56.1188 40.212 55.8864 41.2374ZM55.6676 38.544C50.5814 38.544 45.4953 38.544 40.4091 38.544C39.6161 38.544 38.7 38.544 38.7137 37.4638C38.7273 36.3837 39.6434 36.411 40.4364 36.411C43.0342 36.411 45.632 36.411 48.2298 36.411C50.7182 36.411 53.2066 36.411 55.695 36.411C56.4333 36.411 57.2673 36.4521 57.3083 37.4091C57.363 38.5029 56.4743 38.544 55.6676 38.544Z" fill="#C10016"/>
<path d="M58.6072 25.473C57.2673 24.8031 55.9274 24.1331 54.6011 23.4632C51.894 22.1096 51.7572 21.7131 52.9741 18.9375C53.1929 18.4317 53.4663 17.9395 53.7398 17.4609C54.5328 16.0937 55.0523 14.6307 55.2164 13.0857C55.5992 9.2574 54.8336 5.34705 56.2828 1.60078C56.6794 0.57534 55.941 -0.0262513 54.7925 0.0010938C53.5757 0.0421114 52.3452 0.0147663 51.1283 0.0147663C49.9114 0.0147663 48.6809 -0.0262513 47.4641 0.0284389C44.5108 0.151492 41.6259 2.14768 41.1063 5.01891C40.3407 9.28474 40.0535 13.6326 42.3779 17.6387C42.9384 18.6094 43.3623 19.6212 43.6357 20.7013C43.8955 21.7267 43.7178 22.4514 42.5966 22.9299C40.9696 23.6136 39.4109 24.4886 37.8249 25.2816C34.229 27.0864 32.9165 29.5884 33.3813 33.5125C33.4771 34.3328 33.8872 34.3328 34.4751 34.3602C35.1314 34.3738 35.569 34.2371 35.5143 33.4578C35.4869 33.0749 35.5416 32.6784 35.5143 32.2956C35.3365 29.8482 36.3483 28.1665 38.6453 27.1821C40.2723 26.4848 41.8583 25.6644 43.3896 24.7894C44.3057 24.2698 44.9073 24.3382 45.673 25.1175C46.9308 26.4164 48.6262 26.7582 49.6653 25.6097C51.142 23.9964 52.3725 24.557 53.8081 25.4047C54.5738 25.8558 55.3531 26.307 56.1871 26.6078C59.2771 27.7153 60.9589 29.7115 60.4666 33.157C60.4393 33.321 60.4666 33.4851 60.4666 33.6492C60.4803 34.4012 61.0135 34.3465 61.5194 34.3465C62.0116 34.3465 62.4492 34.4012 62.5996 33.6629C63.2832 30.19 61.8066 27.1 58.6072 25.473ZM43.0068 5.72988C43.5537 3.73369 45.3858 2.24339 47.6555 2.09299C48.5305 2.0383 49.4192 2.07932 50.3079 2.07932V2.06565C51.0873 2.06565 51.8529 2.06565 52.6323 2.06565C54.1636 2.07932 54.314 2.3391 53.562 3.61064C52.7827 4.90953 51.6205 5.72988 50.1302 5.98966C48.1203 6.33148 46.0831 6.59125 44.0733 6.96041C42.8974 7.1655 42.7197 6.74165 43.0068 5.72988ZM51.5111 17.1738C50.7045 18.459 50.3626 19.922 50.1439 21.4123C50.0755 21.8361 50.0755 22.3694 49.8157 22.6565C49.2962 23.2581 48.8313 24.2288 47.8879 23.9964C46.9035 23.764 46.0831 23.0256 45.9601 21.9592C45.6866 19.7169 44.8663 17.707 43.7588 15.7518C42.7881 14.0154 42.747 12.0466 42.7744 10.0914C42.7881 9.24373 43.3076 9.13435 43.9502 9.01129C46.8214 8.47806 49.8021 8.49174 52.5502 7.3159C53.0971 7.08346 53.2339 7.38426 53.2339 7.84913C53.2339 8.62846 53.2339 9.39412 53.2339 10.4469C53.3979 12.7165 52.8647 15.0272 51.5111 17.1738Z" fill="#C10016"/>
<path d="M15.6755 34.3464C13.9938 34.3874 12.6676 35.7547 12.6676 37.4638C12.6539 39.2275 14.0758 40.6495 15.8123 40.6084C17.4803 40.5674 18.8476 39.1728 18.8476 37.4911C18.8612 35.7547 17.3983 34.3054 15.6755 34.3464ZM15.7849 38.4619C15.238 38.5029 14.8278 38.1747 14.7458 37.6005C14.6501 36.9169 15.1013 36.6161 15.6619 36.452C16.2361 36.5204 16.66 36.7391 16.7283 37.3407C16.7967 38.0243 16.4139 38.4208 15.7849 38.4619Z" fill="#C10016"/>
<path d="M24.043 37.6006C24.0841 36.6435 24.1934 35.659 22.9766 35.454C21.705 35.2489 21.705 34.6746 22.334 33.7722C23.0039 32.8152 22.293 32.2409 21.6914 31.653C21.0624 31.0514 20.4882 30.19 19.4491 30.9284C18.4646 31.6393 17.9724 31.3249 17.7537 30.2174C17.5076 28.9595 16.4821 29.2056 15.6344 29.1919C14.7867 29.1646 13.898 29.1509 13.7203 30.2857C13.5562 31.3522 13.064 31.6257 12.1479 30.9694C11.1362 30.2447 10.5346 30.942 9.89197 31.5846C9.24936 32.2272 8.53839 32.8425 9.23568 33.8543C9.83728 34.7156 9.76891 35.2352 8.62042 35.4266C7.45825 35.618 7.41724 36.4931 7.40356 37.4502C7.40356 38.4619 7.44458 39.3917 8.70246 39.5831C9.78259 39.7471 9.83728 40.2804 9.2767 41.0597C8.5794 42.0441 9.16732 42.6867 9.83728 43.343C10.5346 44.0266 11.1635 44.765 12.23 43.972C13.0777 43.3567 13.5562 43.6438 13.7066 44.6146C13.8843 45.8451 14.8004 45.8041 15.7165 45.8177C16.7009 45.8314 17.6443 45.8588 17.8494 44.5462C17.9724 43.7258 18.41 43.3293 19.2166 43.9309C20.2284 44.6966 20.912 44.1497 21.6503 43.425C22.416 42.6594 23.0039 41.9621 22.1699 40.8683C21.6777 40.212 21.8828 39.7335 22.7442 39.6104C23.9337 39.419 24.2071 38.6123 24.043 37.6006ZM20.0507 41.757C17.6033 41.2374 16.9333 41.5246 15.7848 43.6165C14.8414 41.798 13.5152 40.9093 11.4917 41.8527C11.9565 39.2276 11.7651 38.8037 9.64586 37.4365C11.7378 36.1513 11.9702 35.6317 11.4643 33.1023C13.3921 33.8269 14.8551 33.3347 15.7575 31.1608C16.5915 33.3757 18.0955 33.7722 19.996 33.1433C19.5174 35.6591 19.7635 36.1923 21.8691 37.4365C19.7225 38.7627 19.4627 39.3506 20.0507 41.757Z" fill="#C10016"/>
<path d="M32.7115 23.805C31.2349 22.383 29.7992 20.9064 28.3499 19.4571C28.0355 19.1427 27.7347 18.8145 27.2151 18.7462C26.2034 18.8692 26.0666 19.6485 26.1623 20.4552C26.2854 21.6721 25.7385 22.0276 24.631 21.9045C24.1935 21.8498 23.7423 21.8908 23.3048 21.9045C18.287 22.0139 18.9296 20.9201 18.9022 26.6489C18.9022 27.7153 19.4218 28.1255 20.4472 28.1118C21.7735 28.0845 23.1134 28.1665 24.4396 28.0845C25.6428 28.0161 26.3811 28.2349 26.176 29.6705C26.0803 30.2994 26.2444 30.9284 26.9417 31.1745C27.5843 31.3932 27.9671 30.9284 28.3636 30.5455C29.8129 29.0963 31.2349 27.6196 32.7252 26.1977C33.5865 25.35 33.6002 24.6527 32.7115 23.805ZM29.4984 26.3891C29.307 26.7583 28.8832 26.9907 28.4457 27.4009C28.1175 26.0746 27.2015 25.9516 26.135 26.0063C24.8635 26.061 23.5919 26.0063 22.3204 26.0199C21.5547 26.0336 20.9394 26.061 20.9668 24.9398C20.9941 23.9007 21.5684 23.9554 22.252 23.9691C23.6329 23.9827 25.0138 23.9827 26.3948 23.9691C26.8323 23.9691 27.4065 24.1468 27.6663 23.764C29.0883 21.6994 29.6215 23.8323 30.2641 24.3929C31.4673 25.4457 29.8266 25.7465 29.4984 26.3891Z" fill="#C10016"/>
<path d="M15.6755 34.3464C13.9938 34.3874 12.6676 35.7547 12.6676 37.4638C12.6539 39.2275 14.0758 40.6495 15.8123 40.6084C17.4803 40.5674 18.8476 39.1728 18.8476 37.4911C18.8612 35.7547 17.3983 34.3054 15.6755 34.3464ZM15.7849 38.4619C15.238 38.5029 14.8278 38.1747 14.7458 37.6005C14.6501 36.9169 15.1013 36.6161 15.6619 36.452C16.2361 36.5204 16.66 36.7391 16.7283 37.3407C16.7967 38.0243 16.4139 38.4208 15.7849 38.4619Z" fill="#FCFCFC"/>
<path d="M15.6755 34.3464C13.9938 34.3874 12.6676 35.7547 12.6676 37.4638C12.6539 39.2275 14.0758 40.6495 15.8123 40.6084C17.4803 40.5674 18.8476 39.1728 18.8476 37.4911C18.8612 35.7547 17.3983 34.3054 15.6755 34.3464ZM15.7849 38.4619C15.238 38.5029 14.8278 38.1747 14.7458 37.6005C14.6501 36.9169 15.1013 36.6161 15.6619 36.452C16.2361 36.5204 16.66 36.7391 16.7283 37.3407C16.7967 38.0243 16.4139 38.4208 15.7849 38.4619Z" fill="#C10016"/>
</svg>
