<svg width="51" height="50" viewBox="0 0 51 50" fill="none" xmlns="http://www.w3.org/2000/svg">
<path d="M28.4879 37.8591C27.0433 38.6906 25.7784 39.4161 24.5136 40.1449C22.8892 41.0791 21.2584 42.0036 19.6468 42.9635C19.1268 43.2717 18.6902 43.2909 18.1573 42.9795C12.3692 39.6216 6.57463 36.2733 0.767254 32.941C0.192616 32.6136 0 32.1866 0.00321027 31.5574C0.0128411 24.925 0.0160513 18.2894 0 11.657C0 10.9796 0.224719 10.5526 0.828249 10.2059C6.57784 6.90896 12.3146 3.59276 18.0449 0.263712C18.6324 -0.0797868 19.1268 -0.0926279 19.7207 0.254081C25.451 3.58634 31.1845 6.90575 36.9373 10.1931C37.5987 10.5719 37.7624 11.0406 37.7592 11.7404C37.7367 16.3632 37.7592 20.986 37.7367 25.6088C37.7335 26.1963 37.8041 26.604 38.4269 26.8576C39.0304 27.1015 39.3932 27.6569 39.7174 28.2187C42.9791 33.872 46.2535 39.5157 49.5023 45.1754C50.8892 47.5895 49.5473 49.9619 46.7543 49.9747C40.2214 50.0068 33.6885 50.01 27.1557 49.9747C24.3402 49.9586 23.024 47.6216 24.4045 45.185C25.7207 42.8543 27.0658 40.5397 28.398 38.2187C28.4141 38.193 28.4173 38.1545 28.4879 37.8591ZM17.9968 40.9892C18.0289 40.6553 18.0578 40.4916 18.0578 40.3278C18.061 34.4691 18.0481 28.6072 18.077 22.7484C18.0802 22.1256 17.7817 21.872 17.3194 21.6088C12.3884 18.7741 7.46708 15.9266 2.53611 13.0919C2.28892 12.9475 2.0642 12.7003 1.64045 12.7966C1.64045 13.1144 1.64045 13.4451 1.64045 13.7725C1.64045 19.3648 1.65971 24.9571 1.62119 30.5494C1.61476 31.3391 1.89406 31.7308 2.55537 32.1064C6.42696 34.299 10.2696 36.5429 14.122 38.7645C15.3643 39.4803 16.6067 40.193 17.9968 40.9892ZM24.4719 19.3102C22.9984 20.1577 21.7431 20.9218 20.4494 21.6088C19.8683 21.917 19.6693 22.2894 19.6725 22.9507C19.6982 28.6425 19.7014 34.3343 19.6725 40.0261C19.6693 40.9153 19.8555 40.9827 20.5907 40.5494C23.6147 38.7645 26.6613 37.0181 29.7142 35.2749C30.1733 35.0116 30.4815 34.6681 30.7383 34.2187C31.878 32.2123 33.0465 30.2219 34.1958 28.2187C34.5168 27.6569 34.8763 27.0983 35.4831 26.8576C36.0802 26.6232 36.1412 26.2316 36.138 25.6858C36.1219 21.6345 36.1316 17.5831 36.1283 13.5317C36.1283 13.2749 36.1027 13.0181 36.0802 12.6168C34.6548 13.4322 33.3418 14.2091 32.0032 14.9378C31.4959 15.2139 31.3194 15.5542 31.3258 16.1289C31.3579 18.2701 31.3129 20.4146 31.3515 22.559C31.3643 23.2877 31.1075 23.7276 30.4686 24.0743C29.0304 24.8576 27.6276 25.7083 26.2022 26.5205C24.9919 27.2107 24.4815 26.9186 24.4751 25.5221C24.4654 23.5189 24.4719 21.5157 24.4719 19.3102ZM36.9438 48.3567C40.1251 48.3567 43.3065 48.3631 46.4879 48.3535C48.3498 48.3471 48.902 47.3872 47.9774 45.7821C44.8025 40.2733 41.6243 34.7677 38.4462 29.2621C37.512 27.6473 36.4076 27.6441 35.4735 29.2588C32.2889 34.7612 29.1107 40.2669 25.9325 45.7725C24.9919 47.4001 25.528 48.3439 27.3964 48.3503C30.5778 48.3631 33.7624 48.3567 36.9438 48.3567ZM14.1059 4.43385C19.5762 7.58954 24.8699 10.6425 30.154 13.7051C30.4654 13.8849 30.6934 13.8464 30.9791 13.6794C32.3884 12.8512 33.8041 12.0358 35.2263 11.2139C35.1749 11.1465 35.1588 11.1112 35.1332 11.0952C29.8459 8.02293 24.5585 4.9507 19.2744 1.87527C18.9695 1.69549 18.7255 1.75328 18.4462 1.917C17.0626 2.7292 15.6757 3.52534 14.1059 4.43385ZM2.51685 11.1208C2.66452 11.2428 2.73515 11.3167 2.81861 11.3648C7.99678 14.3568 13.1749 17.3488 18.3563 20.3407C18.5842 20.4723 18.809 20.681 19.0947 20.5173C20.5874 19.6698 22.0738 18.8126 23.6854 17.8881C18.2343 14.742 12.9695 11.7051 7.70464 8.66177C7.43177 8.50447 7.19742 8.40816 6.87639 8.59757C5.4414 9.44508 3.99357 10.2669 2.51685 11.1208ZM8.96628 7.40014C9.13963 7.55744 9.19742 7.6377 9.27767 7.68264C14.459 10.681 19.6404 13.6794 24.825 16.6714C25.0176 16.7837 25.2167 16.9892 25.4671 16.8447C26.581 16.2123 27.6886 15.5671 28.9149 14.8576C23.4638 11.7115 18.1894 8.67461 12.9245 5.62165C12.5875 5.42582 12.3306 5.43224 12.0064 5.62807C11.0369 6.21876 10.0481 6.77413 8.96628 7.40014ZM29.7078 16.2894C28.4975 16.986 27.4927 17.5671 26.4815 18.1449C26.2311 18.2862 26.0898 18.4659 26.0931 18.7773C26.1027 20.5494 26.0963 22.3215 26.0995 24.0935C26.0995 24.3247 26.1123 24.6617 26.4622 24.4723C27.5184 23.8977 28.5521 23.2813 29.5762 22.6553C29.6757 22.5943 29.7014 22.3536 29.7014 22.1963C29.711 20.2958 29.7078 18.3921 29.7078 16.2894Z" fill="#C10016"/>
<path d="M38.7993 37.0791C38.7993 38.2155 38.809 39.3519 38.7929 40.4852C38.7897 40.7837 38.8282 41.1914 38.6613 41.3584C37.833 42.1866 38.1765 42.7516 38.8122 43.5478C39.4767 44.3792 39.0208 45.6601 38.1059 46.2476C37.1814 46.8415 36.0096 46.6521 35.3098 45.7982C34.6324 44.9667 34.6709 43.734 35.4703 42.9795C35.8716 42.6007 36.2022 42.3792 35.5666 41.8977C35.1942 41.6152 35.1139 41.1015 35.0979 40.6168C35.0273 38.3792 34.9374 36.1417 34.8796 33.9009C34.8411 32.3696 35.5634 31.6441 37.0369 31.6762C38.4205 31.7083 39.1107 32.4852 39.0529 33.9651C39.0144 35.002 38.9566 36.0357 38.9053 37.0694C38.87 37.0791 38.8346 37.0791 38.7993 37.0791ZM36.992 40.8736C37.2359 40.6425 37.1749 40.3568 37.1846 40.1031C37.268 38.1385 37.3419 36.1738 37.4061 34.2091C37.4189 33.8399 37.5955 33.3263 36.9374 33.3391C36.2568 33.352 36.504 33.9009 36.5136 34.238C36.5618 36.2701 36.642 38.3022 36.7191 40.3343C36.7255 40.5205 36.6677 40.7452 36.992 40.8736Z" fill="#C10016"/>
</svg>
