<svg width="22" height="16" viewBox="0 0 22 16" fill="none" xmlns="http://www.w3.org/2000/svg">
<path d="M14.7139 7.9999C14.7139 6.10635 12.987 4.57132 10.8568 4.57132C8.72655 4.57132 6.99964 6.10635 6.99964 7.9999C6.99964 9.89344 8.72655 11.4285 10.8568 11.4285V12.5713C8.01647 12.5713 5.71393 10.5246 5.71393 7.9999C5.71393 5.47517 8.01647 3.42847 10.8568 3.42847C13.6971 3.42847 15.9997 5.47517 15.9997 7.9999C15.9997 10.5246 13.6971 12.5713 10.8568 12.5713V11.4285C12.987 11.4285 14.7139 9.89344 14.7139 7.9999Z" fill="#222222"/>
<path d="M20.5432 8C20.5432 7.82338 20.4912 7.71344 19.9942 7.07933C19.1801 6.04061 17.8837 4.56615 16.2829 3.35577C14.6772 2.14175 12.8151 1.23077 10.8572 1.23077C8.89919 1.23077 7.03711 2.14175 5.43144 3.35577C3.83057 4.56615 2.53425 6.04061 1.72013 7.07933C1.22314 7.71344 1.17115 7.82338 1.17115 8C1.17115 8.17662 1.22314 8.28656 1.72013 8.92067C2.53425 9.95938 3.83057 11.4338 5.43144 12.6442C7.03711 13.8583 8.89919 14.7692 10.8572 14.7692C12.8151 14.7692 14.6772 13.8583 16.2829 12.6442C17.8837 11.4338 19.1801 9.95938 19.9942 8.92067C20.4912 8.28656 20.5432 8.17662 20.5432 8ZM21.7143 8C21.7143 8.70659 21.3111 9.17719 20.8988 9.70312C20.0498 10.7864 18.6801 12.3476 16.9668 13.643C15.2581 14.935 13.1572 16 10.8572 16C8.55713 16 6.45625 14.935 4.7475 13.643C3.03418 12.3476 1.66447 10.7864 0.815459 9.70312C0.403255 9.17719 1.21045e-08 8.70659 0 8C1.8486e-08 7.29341 0.403255 6.82281 0.815459 6.29687C1.66447 5.2136 3.03418 3.65241 4.7475 2.35697C6.45625 1.06502 8.55713 0 10.8572 0C13.1572 0 15.2581 1.06502 16.9668 2.35697C18.6801 3.65241 20.0498 5.2136 20.8988 6.29687C21.3111 6.82281 21.7143 7.29341 21.7143 8Z" fill="#222222"/>
</svg>
