<svg width="60" height="60" viewBox="0 0 60 60" fill="none" xmlns="http://www.w3.org/2000/svg">
<path d="M25.7637 54.503C25.1394 54.503 24.6897 54.503 24.2466 54.503C17.3056 54.503 10.3713 54.503 3.43024 54.503C0.953217 54.503 0.0067128 53.5565 0.0067128 51.066C0 39.6677 0 28.2761 0 16.8777C0 14.0181 1.27543 12.7561 4.16865 12.7427C6.22948 12.736 8.29031 12.736 10.3511 12.7427C11.0358 12.7427 11.8347 12.7158 11.7877 13.6892C11.7474 14.5283 11.0493 14.5753 10.378 14.5685C8.27688 14.5618 6.17577 14.5618 4.06796 14.5685C2.35619 14.5753 1.83931 15.0452 1.83259 16.7099C1.81917 25.9199 1.83259 35.1298 1.81246 44.3398C1.81246 45.1319 2.00041 45.4273 2.86636 45.4273C20.9506 45.4004 39.0349 45.4004 57.1192 45.4273C57.9583 45.4273 58.1865 45.1655 58.1865 44.3532C58.1664 35.1433 58.1798 25.9333 58.1664 16.7234C58.1664 15.0519 57.6495 14.582 55.9445 14.5753C53.8434 14.5685 51.7422 14.5685 49.6344 14.5753C48.9162 14.5753 48.171 14.5148 48.2113 13.5885C48.2449 12.7158 48.9967 12.7494 49.6344 12.7494C51.8631 12.7427 54.0917 12.7225 56.3204 12.7561C58.6296 12.7964 59.9923 14.1658 59.9923 16.4884C60.0057 28.1351 60.0057 39.7885 59.9923 51.4352C59.9923 53.4826 58.9249 54.503 56.844 54.503C49.8224 54.5097 42.8008 54.503 35.7792 54.503C35.3295 54.503 34.8797 54.503 34.2084 54.503C34.8126 55.7113 35.3295 56.7518 35.8463 57.7855C36.0276 58.148 36.3632 58.1547 36.7123 58.1615C37.2158 58.1615 37.7192 58.1682 38.2227 58.195C38.7127 58.2219 39.0081 58.4971 39.0483 58.9804C39.0953 59.5242 38.7798 59.8598 38.2697 59.9605C37.9474 60.0209 37.5984 59.9941 37.2627 59.9941C32.4295 59.9941 27.5896 59.9941 22.7564 59.9941C22.3805 59.9941 21.9911 60.0142 21.6286 59.9269C21.1722 59.8195 20.9171 59.4772 20.9574 58.9938C20.9909 58.5777 21.2124 58.2957 21.6488 58.2152C21.6891 58.2084 21.736 58.1883 21.7696 58.195C24.6628 58.732 24.7702 56.302 25.7637 54.503ZM30.1337 47.2397C21.8502 47.2397 13.5666 47.2397 5.28297 47.2397C1.82588 47.2397 1.82588 47.2397 1.83259 50.717C1.83931 52.6301 1.89972 52.6972 3.82629 52.6972C21.2796 52.6972 38.7261 52.6972 56.1794 52.6972C56.4345 52.6972 56.6829 52.6838 56.938 52.6972C57.7972 52.7375 58.1731 52.2945 58.1731 51.4822C58.1798 50.5559 58.1127 49.6228 58.1932 48.7098C58.3007 47.5821 57.9516 47.2062 56.75 47.2129C47.8757 47.2666 39.0081 47.2397 30.1337 47.2397ZM30.0263 54.4761C29.2946 54.7715 28.2743 53.9861 27.6634 54.946C27.1533 55.7583 26.7841 56.6511 26.3477 57.5103C26.1463 57.9131 26.2269 58.1547 26.7169 58.1547C28.8919 58.1547 31.0668 58.1615 33.2418 58.1547C33.5506 58.1547 33.9131 58.101 33.7117 57.6714C33.2284 56.6511 32.8189 55.5569 32.1275 54.6977C31.7113 54.1606 30.7849 54.597 30.0263 54.4761Z" fill="#C10016"/>
<path d="M21.0178 8.13097C27.348 8.13097 33.376 8.13097 39.572 8.13097C38.8268 6.92938 37.8736 6.07015 37.048 5.11022C36.088 3.99589 35.1012 2.9017 34.1212 1.80752C33.6916 1.3242 33.4096 0.800599 33.9936 0.277001C34.5911 -0.266736 35.0677 0.109181 35.4906 0.592502C37.5178 2.88157 39.572 5.16392 41.5858 7.47983C42.0423 8.01014 42.5189 8.23167 43.2103 8.21153C44.4253 8.16454 45.647 8.1981 46.8688 8.1981C47.4931 8.1981 48.1241 8.27866 48.1308 9.07748C48.1375 9.83603 47.5669 10.1045 46.9158 10.0106C45.976 9.8763 45.7142 10.3663 45.4994 11.1584C44.479 15.0116 43.405 18.8513 42.3511 22.6977C41.7603 24.8593 41.0018 25.4433 38.7799 25.4433C33.1008 25.4433 27.4285 25.4433 21.7495 25.4433C19.5343 25.4433 18.7757 24.8526 18.1783 22.691C17.1445 18.9252 16.0906 15.166 15.1105 11.3867C14.8554 10.3932 14.4997 9.78232 13.3652 10.0173C13.2041 10.0508 13.0296 10.024 12.8617 10.0173C12.2844 9.97699 11.8817 9.70177 11.8682 9.09762C11.8615 8.47333 12.2777 8.21153 12.8617 8.21153C14.4191 8.1981 15.9765 8.15783 17.5271 8.21824C18.3192 8.24509 18.8428 8.01014 19.3262 7.359C20.9372 5.20419 22.6087 3.09638 24.2735 0.981845C24.6964 0.444821 25.1126 -0.42113 25.9584 0.236724C26.8579 0.928142 26.1061 1.57928 25.663 2.15658C24.1795 4.07644 22.6826 5.98959 21.0178 8.13097ZM30.2546 10.0307C26.0524 10.0307 21.8502 10.0374 17.648 10.024C16.9633 10.024 16.5672 10.0106 16.8424 10.9503C17.95 14.7766 18.9838 18.6298 20.0109 22.4762C20.2458 23.369 20.7493 23.6644 21.6421 23.6577C27.4017 23.6308 33.1545 23.6308 38.9141 23.6577C39.827 23.6644 40.3037 23.3287 40.5386 22.4561C41.559 18.6499 42.5793 14.8371 43.6735 11.0443C43.9353 10.1381 43.7003 10.0038 42.8612 10.0106C38.659 10.0441 34.4568 10.0307 30.2546 10.0307Z" fill="#C10016"/>
<path d="M12.7609 28.1888C15.0299 28.1888 17.2988 28.1888 19.561 28.1821C20.1853 28.1821 20.8163 28.2224 20.87 29.0078C20.917 29.7596 20.3934 30.0214 19.7154 29.9879C18.9233 29.9543 19.1381 30.545 19.1381 30.9478C19.1247 33.7605 19.1381 36.5731 19.1247 39.3858C19.1179 41.695 18.1379 42.6751 15.822 42.6885C13.7209 42.7019 11.6197 42.7086 9.52536 42.6885C7.37726 42.6683 6.38377 41.6681 6.37034 39.4999C6.3502 36.6872 6.35692 33.8746 6.37034 31.0619C6.37034 30.4309 6.39719 29.9006 5.49096 29.9677C4.89353 30.008 4.55789 29.565 4.6183 28.981C4.68543 28.3768 5.13519 28.1821 5.71249 28.1888C8.05525 28.1956 10.4114 28.1888 12.7609 28.1888ZM17.2921 35.1903C17.2921 34.1431 17.2921 33.0959 17.2921 32.042C17.2921 29.9946 17.2921 30.0483 15.2379 29.9744C14.0968 29.9342 13.3584 30.0617 13.6202 31.4781C13.741 32.1293 13.4523 32.7066 12.7072 32.6931C12.0561 32.6797 11.7406 32.1628 11.8413 31.5452C12.0829 30.1356 11.3982 29.8133 10.1765 29.9946C9.84757 30.0416 9.50522 30.0281 9.16958 29.9946C8.4983 29.9275 8.19622 30.1221 8.20293 30.8807C8.2365 33.7739 8.2365 36.6671 8.20965 39.567C8.20293 40.5404 8.61242 40.9096 9.57235 40.8895C11.7137 40.8492 13.8484 40.8559 15.9898 40.8895C16.9094 40.9029 17.2921 40.4867 17.2853 39.6073C17.2853 38.1238 17.2921 36.6537 17.2921 35.1903Z" fill="#C10016"/>
<path d="M29.9727 42.6952C29.5498 42.6952 29.1336 42.7019 28.7107 42.6952C25.8175 42.6616 24.4145 40.9901 24.8442 38.1439C25.1462 36.1502 25.4013 34.1498 25.6698 32.1561C25.7168 31.8272 25.6766 31.2968 25.9719 31.2499C27.2473 31.035 27.2205 29.9811 27.5494 29.1085C27.7642 28.5379 28.3147 28.2224 28.9591 28.2022C29.5498 28.1821 30.1339 28.1888 30.7246 28.1888C31.9396 28.1821 32.5773 28.8198 32.7451 29.9946C32.7921 30.3033 32.6176 30.8337 33.0405 30.8538C34.524 30.9276 34.3159 32.089 34.4569 32.9683C34.7657 34.8748 35.0073 36.7879 35.249 38.7078C35.5108 40.7955 34.1011 42.5139 31.9866 42.675C31.3153 42.722 30.644 42.6818 29.9727 42.6818C29.9727 42.6818 29.9727 42.6885 29.9727 42.6952ZM29.9593 40.8626C30.4225 40.8626 30.8857 40.8693 31.3422 40.8626C33.0204 40.829 33.5708 40.1645 33.3493 38.4863C33.2284 37.5733 33.1143 36.6537 33.0069 35.7407C32.6444 32.7334 32.6511 32.7334 29.6707 32.7334C29.2478 32.7334 28.8249 32.7871 28.4154 32.72C27.5561 32.5924 27.3346 33.0489 27.2608 33.7806C27.1467 34.9083 26.9855 36.0294 26.811 37.1437C26.2874 40.5471 26.5492 40.8626 29.9593 40.8626ZM29.9862 30.9075C30.3621 30.8605 30.9058 31.035 30.8857 30.3906C30.8655 29.7865 30.3419 30.0013 30.0332 30.008C29.6908 30.0147 29.1001 29.7529 29.1269 30.4577C29.1471 31.0149 29.6304 30.8739 29.9862 30.9075Z" fill="#C10016"/>
<path d="M44.8013 31.7197C44.9356 31.7667 45.1302 31.8339 45.3316 31.9077C48.1913 33.0086 51.0509 34.1095 53.9106 35.2037C54.4073 35.3916 54.8839 35.5997 54.9108 36.1972C54.9376 36.7275 54.4946 36.9759 54.112 37.2444C53.4138 37.7344 52.1585 37.9358 52.1518 38.7346C52.1451 39.3321 53.199 39.9429 53.783 40.5471C54.0784 40.8491 54.3872 41.1311 54.6557 41.4533C55.0048 41.8628 55.0115 42.326 54.6154 42.6952C54.2261 43.0577 53.7495 43.0442 53.3668 42.6817C52.6016 41.9635 51.8498 41.2251 51.1315 40.4598C50.7019 40.0033 50.4334 39.9832 50.1246 40.5739C49.7956 41.2049 49.4264 41.8225 49.0102 42.3998C48.4464 43.1919 47.6341 43.1382 47.2716 42.2454C46.0432 39.1642 44.8483 36.0696 43.7004 32.9616C43.3983 32.1561 43.9018 31.6325 44.8013 31.7197ZM48.3927 40.1107C49.1244 38.2043 50.3192 37.2242 51.937 36.4053C49.903 35.6266 48.1309 34.9486 46.1103 34.1766C46.889 36.2039 47.567 37.9694 48.3927 40.1107Z" fill="#C10016"/>
<path d="M40.1693 27.2625C40.713 27.2826 42.4516 29.0749 42.4516 29.6119C42.4516 30.3168 41.6931 30.8001 41.1225 30.3638C40.4646 29.8603 39.8538 29.2494 39.357 28.5849C38.9542 28.0344 39.498 27.2423 40.1693 27.2625Z" fill="#C10016"/>
<path d="M49.7686 28.1418C49.8022 28.7459 48.0099 30.545 47.399 30.5114C46.7143 30.4778 46.278 29.7059 46.7143 29.1353C47.1976 28.511 47.7816 27.9404 48.4059 27.4571C48.9564 27.0275 49.7283 27.4638 49.7686 28.1418Z" fill="#C10016"/>
<path d="M42.4517 35.4588C42.4853 36.0629 40.693 37.8619 40.0821 37.8284C39.3974 37.7948 38.9611 37.0228 39.3974 36.4522C39.874 35.828 40.4647 35.2574 41.089 34.774C41.6395 34.3444 42.4114 34.7808 42.4517 35.4588Z" fill="#C10016"/>
<path d="M27.2474 49.9383C27.2272 50.4887 26.9319 50.8378 26.4217 50.8579C25.8511 50.8848 25.4819 50.5357 25.4886 49.945C25.4953 49.408 25.8444 49.1193 26.3747 49.1193C26.8983 49.1193 27.2071 49.4013 27.2474 49.9383Z" fill="#C10016"/>
<path d="M33.6579 50.8915C33.1678 50.8109 32.7986 50.5827 32.7718 50.0389C32.7382 49.5019 33.0134 49.1663 33.5572 49.126C34.1479 49.0857 34.5238 49.3878 34.5238 49.9852C34.5171 50.5088 34.168 50.7908 33.6579 50.8915Z" fill="#C10016"/>
<path d="M30.0532 49.1126C30.6171 49.1596 30.899 49.5154 30.8721 50.0322C30.852 50.5626 30.4962 50.9049 29.9592 50.8646C29.4423 50.8244 29.0933 50.4887 29.1335 49.945C29.1738 49.4147 29.4893 49.1059 30.0532 49.1126Z" fill="#C10016"/>
<path d="M29.0731 16.7905C29.0731 15.8239 29.0597 14.8572 29.0798 13.8906C29.0933 13.2931 29.2946 12.783 30.0062 12.7897C30.7245 12.7964 30.9124 13.3133 30.9191 13.9107C30.9326 15.844 30.9326 17.7773 30.9191 19.7106C30.9191 20.3013 30.7379 20.8517 30.0465 20.8786C29.2745 20.9122 29.0798 20.3349 29.0664 19.6904C29.0664 18.7171 29.0731 17.7571 29.0731 16.7905Z" fill="#C10016"/>
<path d="M38.1556 13.9845C37.5649 15.9782 36.9473 18.1464 36.2827 20.2945C36.1284 20.7846 35.6987 21.0195 35.1751 20.8316C34.6851 20.6503 34.4434 20.2408 34.5911 19.7307C35.1953 17.6027 35.8061 15.4815 36.4506 13.3602C36.5983 12.8635 36.9943 12.6218 37.5313 12.7494C38.0684 12.8903 38.2227 13.2931 38.1556 13.9845Z" fill="#C10016"/>
<path d="M25.4348 19.6972C25.4952 20.3953 25.2132 20.7309 24.7165 20.8585C24.2466 20.9793 23.8573 20.7511 23.723 20.3013C23.0786 18.1465 22.4476 15.9783 21.8501 13.81C21.7092 13.3066 21.9374 12.8971 22.4744 12.7561C22.9376 12.6353 23.3538 12.7964 23.4948 13.2462C24.1795 15.4412 24.8172 17.643 25.4348 19.6972Z" fill="#C10016"/>
</svg>
