<svg width="51" height="50" viewBox="0 0 51 50" fill="none" xmlns="http://www.w3.org/2000/svg">
<path d="M5.99899 24.0732C5.01722 21.7392 4.95698 19.2727 4.53536 16.8845C3.87582 13.1742 3.31868 9.44285 2.75551 5.71751C2.67419 5.19651 2.44832 5.02786 1.97852 4.90739C0.641368 4.55504 -0.150681 3.39858 0.023991 2.15781C0.201675 0.898961 1.2467 0.00451739 2.63203 0.00451739C17.5334 -0.0015058 32.4348 -0.0015058 47.3361 0.00451739C48.7667 0.00451739 49.8328 0.938112 49.9894 2.23611C50.1399 3.4799 49.3479 4.57311 47.9746 4.93149C47.5379 5.04593 47.3361 5.21156 47.2609 5.68438C46.4297 11.0149 45.5653 16.3394 44.7281 21.6699C44.5956 22.5041 44.3727 23.2992 43.8969 24.1816C45.1347 24.1816 46.2279 24.1665 47.3211 24.1846C48.7697 24.2087 49.8237 25.0941 49.9894 26.3891C50.152 27.666 49.3419 28.7622 47.8903 29.1086C47.4415 29.217 47.3301 29.4308 47.2699 29.8253C46.4327 35.1227 45.5623 40.4141 44.7432 45.7115C44.2824 48.702 42.8519 50 39.8553 50C29.9321 50 20.0089 50 10.0857 50C7.21267 50 5.72494 48.6749 5.28224 45.838C4.45405 40.5075 3.5837 35.183 2.74647 29.8524C2.67721 29.4067 2.53265 29.2019 2.05381 29.0875C0.686542 28.7652 -0.114542 27.654 0.0179678 26.3981C0.15349 25.1001 1.21357 24.2057 2.65612 24.1786C3.72825 24.1605 4.80038 24.1575 5.87552 24.1425C5.89961 24.1455 5.92371 24.1184 5.99899 24.0732ZM25.0082 20.8448C29.4985 20.8448 33.9888 20.8327 38.479 20.8538C39.3072 20.8568 39.8373 20.6671 39.9758 19.7335C40.4878 16.3605 41.054 12.9935 41.575 9.62054C41.7225 8.66586 41.4515 8.36772 40.4757 8.35868C38.5573 8.34362 36.6359 8.36471 34.7176 8.34362C34.2839 8.3376 34.0008 8.51227 33.7087 8.8044C32.9166 9.60247 31.9409 9.98494 30.8085 9.98494C26.9356 9.98193 23.0657 9.98193 19.1928 9.98494C18.0634 9.98494 17.0787 9.60548 16.2987 8.79838C15.9734 8.46108 15.6421 8.34061 15.1874 8.34362C13.3654 8.36169 11.5433 8.34663 9.72132 8.35266C8.51669 8.35868 8.26974 8.65081 8.45344 9.81931C8.96542 13.0297 9.48341 16.237 9.99237 19.4474C10.1911 20.7002 10.3447 20.8387 11.6337 20.8387C16.0908 20.8478 20.551 20.8448 25.0082 20.8448ZM24.9058 44.9797C29.4623 44.9797 34.0189 44.9616 38.5724 44.9947C39.4638 45.0008 39.8614 44.6695 39.9939 43.7991C40.4968 40.4894 41.0479 37.1857 41.5659 33.8789C41.7316 32.8279 41.4545 32.5056 40.3763 32.4966C38.5212 32.4785 36.6661 32.4996 34.8109 32.4846C34.3923 32.4816 34.0761 32.593 33.781 32.9032C32.9257 33.8006 31.8475 34.1771 30.6188 34.1741C26.8754 34.1711 23.135 34.168 19.3916 34.1741C18.1628 34.1771 17.0847 33.7976 16.2264 32.9032C15.9282 32.593 15.618 32.4785 15.1964 32.4816C13.3744 32.4966 11.5524 32.4816 9.73036 32.4906C8.52873 32.4966 8.26673 32.8068 8.45043 33.9693C8.96542 37.2128 9.5075 40.4502 9.99237 43.6967C10.1339 44.6484 10.5405 45.0038 11.5283 44.9947C15.9885 44.9526 20.4456 44.9797 24.9058 44.9797ZM25.0052 24.1786C30.0496 24.1786 35.091 24.1846 40.1354 24.1756C41.7677 24.1726 42.7314 23.4197 42.9693 21.941C43.8337 16.5833 44.6649 11.2197 45.5563 5.86508C45.6828 5.11218 45.475 5.00075 44.8034 5.00678C41.9725 5.03689 39.1416 5.01882 36.3107 5.02183C36.0517 5.02183 35.7746 5.0128 35.5397 5.10014C34.9705 5.31396 34.9525 5.83798 34.9856 6.32887C35.0187 6.87396 35.4795 6.63605 35.7415 6.63906C37.4009 6.66315 39.0603 6.624 40.7197 6.66014C42.4604 6.69929 43.5144 8.00934 43.2434 9.73498C42.6983 13.2013 42.1472 16.6677 41.593 20.134C41.3461 21.679 40.4366 22.48 38.8615 22.48C29.6219 22.4861 20.3824 22.4861 11.1398 22.48C9.56773 22.48 8.65823 21.676 8.41128 20.131C7.86618 16.6978 7.32108 13.2616 6.78201 9.82834C6.48085 7.92501 7.54093 6.67219 9.48341 6.65412C11.0765 6.63906 12.6727 6.60593 14.2658 6.66918C15.1753 6.70532 15.1121 6.22647 14.9585 5.65126C14.7989 5.05195 14.2989 5.01581 13.787 5.01882C10.8898 5.02183 7.99568 5.03087 5.09853 5.0128C4.5203 5.00979 4.32154 5.10616 4.43297 5.77473C5.30633 11.033 6.12548 16.3003 6.98077 21.5615C7.30302 23.5341 8.08302 24.1786 10.0677 24.1816C15.0488 24.1816 20.027 24.1786 25.0052 24.1786ZM24.948 48.3165C29.9261 48.3165 34.9043 48.3195 39.8794 48.3165C41.9544 48.3165 42.6983 47.7172 43.0296 45.6753C43.8818 40.4472 44.6859 35.2131 45.5623 29.988C45.6948 29.2019 45.4268 29.1357 44.7853 29.1417C41.9875 29.1658 39.1898 29.1507 36.392 29.1537C36.1661 29.1537 35.9312 29.1477 35.7144 29.1989C35.0699 29.3495 34.9766 29.8524 34.9796 30.4066C34.9826 31.1113 35.5277 30.8192 35.8379 30.8222C37.4641 30.8523 39.0904 30.8192 40.7167 30.8432C42.4634 30.8703 43.5205 32.1593 43.2464 33.894C42.7013 37.3603 42.1472 40.8267 41.596 44.293C41.3521 45.8289 40.4215 46.6632 38.8736 46.6662C29.634 46.6752 20.3944 46.6752 11.1548 46.6662C9.60086 46.6662 8.66124 45.835 8.4173 44.3081C7.86317 40.8417 7.31506 37.3754 6.76695 33.909C6.48687 32.1262 7.55298 30.8613 9.37499 30.8402C10.9681 30.8222 12.5643 30.8553 14.1574 30.8192C14.4586 30.8131 15.0157 31.1263 15.0308 30.4216C15.0428 29.8705 14.9525 29.3615 14.311 29.1989C14.1243 29.1507 13.9255 29.1537 13.7298 29.1537C10.8657 29.1507 8.00472 29.1658 5.14069 29.1387C4.48717 29.1327 4.33057 29.2832 4.44501 29.9699C5.31235 35.195 6.12247 40.4291 6.97475 45.6573C7.30904 47.7112 8.04688 48.3105 10.1128 48.3135C15.0579 48.3195 20.0029 48.3165 24.948 48.3165ZM25.1106 25.8199C17.8556 25.8199 10.6037 25.8199 3.34879 25.8199C3.05667 25.8199 2.75852 25.8048 2.47242 25.844C2.04477 25.9042 1.74361 26.1391 1.71651 26.5999C1.6894 27.0577 1.9484 27.3468 2.36701 27.4462C2.64709 27.5124 2.94825 27.5034 3.23736 27.5034C6.68564 27.5064 10.1339 27.5034 13.5822 27.5064C15.6662 27.5064 16.3739 28.1178 16.6781 30.1656C16.8919 31.6142 17.7773 32.4544 19.238 32.4635C23.0747 32.4876 26.9145 32.4876 30.7513 32.4635C32.221 32.4544 33.1064 31.6263 33.3262 30.1807C33.6424 28.1117 34.3321 27.5064 36.4071 27.5064C39.9848 27.5034 43.5626 27.5034 47.1404 27.5064C47.7517 27.5064 48.3029 27.3739 48.2788 26.633C48.2577 25.9615 47.7276 25.8289 47.1615 25.8199C46.9025 25.8169 46.6405 25.8169 46.3815 25.8169C39.2922 25.8199 32.1999 25.8199 25.1106 25.8199ZM25.0353 1.68198C17.8165 1.68198 10.5947 1.68198 3.3759 1.68198C3.05064 1.68198 2.72539 1.68499 2.40315 1.71811C1.99056 1.76028 1.74963 2.01626 1.71952 2.41982C1.68639 2.87156 1.92732 3.17874 2.35195 3.28113C2.62902 3.34739 2.93319 3.32329 3.22532 3.32329C6.73684 3.32631 10.2514 3.32028 13.7629 3.32631C15.5909 3.32932 16.4312 4.07921 16.6661 5.88917C16.8648 7.43713 17.7683 8.31953 19.3133 8.33158C23.1169 8.36169 26.9236 8.36169 30.7272 8.32857C32.227 8.31652 33.1274 7.43412 33.3352 5.94941C33.6063 4.0009 34.3893 3.32329 36.3769 3.32329C39.8252 3.32028 43.2705 3.32932 46.7188 3.31727C47.3663 3.31426 48.2758 3.53411 48.2607 2.49812C48.2487 1.4802 47.3392 1.688 46.6917 1.68499C39.4759 1.67595 32.2541 1.68198 25.0353 1.68198Z" fill="#C10016"/>
<path d="M12.5584 17.4928C12.206 17.4597 11.935 17.3543 11.7934 17.0652C11.6428 16.755 11.6218 16.4147 11.8747 16.1557C13.2842 14.7282 14.6996 13.3037 16.1301 11.8973C16.4433 11.5871 16.8469 11.6052 17.1872 11.8883C17.5395 12.1804 17.6208 12.6412 17.3438 12.9333C15.9133 14.4301 14.4376 15.8816 12.9649 17.3393C12.8625 17.4416 12.6698 17.4537 12.5584 17.4928Z" fill="#C10016"/>
<path d="M13.3021 11.5932C13.3021 12.2015 12.227 13.3007 11.6969 13.3037C11.1368 13.3068 10.8657 12.9845 10.8657 12.4545C10.8657 11.9034 11.983 10.8493 12.5161 10.8794C13.01 10.9065 13.275 11.1806 13.3021 11.5932Z" fill="#C10016"/>
<path d="M17.4701 36.6315C17.4671 37.032 17.2532 37.27 17.0213 37.5019C15.7836 38.7366 14.5458 39.9714 13.3141 41.2121C12.9075 41.6187 12.4437 41.8807 11.9619 41.432C11.4228 40.9321 11.7089 40.4502 12.1426 40.0165C13.4044 38.7607 14.6633 37.5019 15.9191 36.237C16.2474 35.9057 16.6118 35.7581 17.0545 35.9629C17.3496 36.0984 17.449 36.3695 17.4701 36.6315Z" fill="#C10016"/>
<path d="M13.3052 35.7793C13.3082 36.3485 12.215 37.4929 11.697 37.4899C11.1429 37.4899 10.8598 37.1616 10.8538 36.6286C10.8508 36.1166 12.0283 34.9752 12.5132 35.0174C12.992 35.0595 13.2841 35.3306 13.3052 35.7793Z" fill="#C10016"/>
<path d="M24.9691 29.1507C23.4091 29.1507 21.8491 29.1447 20.2891 29.1537C19.7048 29.1567 19.1989 29.0062 19.1898 28.3436C19.1808 27.6841 19.6626 27.5064 20.2589 27.5064C23.4091 27.5154 26.5622 27.5154 29.7153 27.5064C30.3026 27.5034 30.8025 27.654 30.8146 28.3135C30.8266 28.976 30.3357 29.1567 29.7455 29.1537C28.1553 29.1477 26.5622 29.1507 24.9691 29.1507Z" fill="#C10016"/>
<path d="M25.0533 3.32632C26.5802 3.32632 28.1101 3.33535 29.6369 3.3233C30.2543 3.31728 30.8115 3.45581 30.8115 4.16956C30.8115 4.88331 30.2362 5.02184 29.6309 5.02184C26.541 5.01883 23.4541 5.01883 20.3642 5.02184C19.7559 5.02184 19.1867 4.8803 19.1897 4.16655C19.1927 3.4528 19.7559 3.32029 20.3703 3.32632C21.9333 3.33234 23.4933 3.32632 25.0533 3.32632Z" fill="#C10016"/>
</svg>
