<svg width="51" height="50" viewBox="0 0 51 50" fill="none" xmlns="http://www.w3.org/2000/svg">
<path d="M24.9803 26.6411C19.0202 26.6411 13.0561 26.6372 7.09597 26.6451C5.65936 26.6451 5.86911 26.5383 5.86911 27.9155C5.8612 34.7582 5.86516 41.5969 5.86516 48.4396C5.86516 49.8327 5.7029 49.991 4.27816 49.991C3.26897 49.991 2.25979 49.9712 1.2506 49.9989C0.391802 50.0226 0.0039576 49.6704 0.0039576 48.7879C0.0118728 37.3544 0.0118728 25.9209 0 14.4874C0 13.8462 0.257244 13.4821 0.803392 13.1814C8.64339 8.86759 16.4794 4.54589 24.3036 0.208366C24.8616 -0.100327 25.3049 -0.0528355 25.8391 0.263772C33.6356 4.85063 41.44 9.42956 49.2562 13.9887C49.8736 14.3489 50.0834 14.7921 50.0834 15.4886C50.0675 26.5303 50.0715 37.576 50.0715 48.6177C50.0715 49.7931 49.8736 49.987 48.714 49.9949C47.7049 50.0028 46.6957 49.9989 45.6865 49.9949C44.4121 49.991 44.2182 49.801 44.2182 48.5227C44.2143 41.6167 44.1984 34.7107 44.238 27.8047C44.242 26.8628 44.0085 26.6174 43.0626 26.6214C37.0352 26.6649 31.0078 26.6411 24.9803 26.6411ZM25.0318 18.2946C31.451 18.2946 37.8702 18.2946 44.2855 18.2946C45.7617 18.2946 45.9121 18.441 45.9121 19.9053C45.9121 27.6582 45.9121 35.4151 45.9121 43.1681C45.9121 44.6324 45.9279 46.1006 45.9042 47.565C45.8962 48.0953 46.0387 48.3683 46.6126 48.309C46.8698 48.2813 47.135 48.2773 47.3922 48.309C48.1362 48.404 48.3974 48.1467 48.3974 47.3512C48.3697 36.9903 48.3776 26.6293 48.3895 16.2683C48.3895 15.6865 48.2431 15.3224 47.7128 15.0137C40.3516 10.7237 32.9984 6.40992 25.6492 2.08427C25.202 1.82306 24.8656 1.80723 24.4025 2.06448C17.0612 6.13289 9.70798 10.1894 2.34685 14.2301C1.8482 14.5032 1.67406 14.8277 1.68198 15.3857C1.70968 17.7643 1.69385 20.1428 1.69385 22.5213C1.69385 30.765 1.69385 39.0086 1.69781 47.2523C1.69781 47.5689 1.54346 48.028 1.83237 48.1705C2.45767 48.4792 3.17795 48.3604 3.83887 48.2654C4.4048 48.1863 4.15152 47.6243 4.15152 47.2879C4.16735 38.134 4.16339 28.9761 4.16339 19.8222C4.16339 18.4766 4.34544 18.2985 5.67915 18.2985C12.13 18.2946 18.5809 18.2946 25.0318 18.2946ZM25.1426 19.9528C22.7958 19.9528 20.4529 19.9528 18.106 19.9528C14.3265 19.9528 10.547 19.9647 6.77145 19.9409C6.1501 19.937 5.84933 20.0201 5.8335 20.7681C5.81767 21.5715 6.14615 21.6387 6.80706 21.6387C18.9252 21.6229 31.0434 21.6269 43.1576 21.6269C43.3515 21.6269 43.5494 21.615 43.7433 21.6269C44.0718 21.6467 44.1747 21.4963 44.2143 21.1718C44.3488 20.0992 44.234 19.9489 43.118 19.9489C37.1302 19.9528 31.1344 19.9528 25.1426 19.9528ZM24.9329 24.9592C31.0553 24.9592 37.1777 24.9473 43.3001 24.975C44.0085 24.979 44.2261 24.8207 44.242 24.0727C44.2617 23.1387 43.7037 23.297 43.1695 23.297C31.0869 23.297 19.0044 23.297 6.92183 23.297C6.72791 23.297 6.53003 23.3049 6.33611 23.3009C6.0195 23.297 5.90077 23.4395 5.85724 23.764C5.72268 24.8048 5.8335 24.9592 6.85851 24.9592C12.882 24.9592 18.9094 24.9592 24.9329 24.9592Z" fill="#C10016"/>
<path d="M25.0547 0.500977C25.1931 0.508254 25.3576 0.560188 25.584 0.694336H25.5859C33.3826 5.28133 41.187 9.86138 49.0039 14.4209C49.2547 14.5672 49.3847 14.7068 49.46 14.8477C49.5374 14.9928 49.583 15.188 49.583 15.4883L49.5713 32.0527C49.5703 37.5748 49.5713 43.0973 49.5713 48.6182C49.5713 48.905 49.5588 49.0965 49.5322 49.2295C49.5068 49.3566 49.4771 49.388 49.4727 49.3926C49.4687 49.3966 49.4388 49.4262 49.3135 49.4521C49.1827 49.4792 48.9941 49.4932 48.7109 49.4951H48.71C47.7043 49.503 46.6981 49.4991 45.6885 49.4951C45.3744 49.4941 45.1627 49.4809 45.0146 49.4521C44.8717 49.4244 44.8356 49.3903 44.8281 49.3828C44.8205 49.3752 44.7872 49.339 44.7598 49.1973C44.7312 49.0493 44.7178 48.8373 44.7178 48.5225L44.7119 38.1641C44.7124 34.7117 44.7185 31.2597 44.7383 27.8076V27.8066C44.7402 27.3396 44.6958 26.845 44.3623 26.5068C44.0267 26.1668 43.5321 26.1191 43.0605 26.1211H43.0586C37.0338 26.1646 31.0103 26.1416 24.9805 26.1416C19.0209 26.1416 13.0562 26.1376 7.0957 26.1455L6.63184 26.1436C6.49184 26.1434 6.36829 26.145 6.2666 26.1514C6.08509 26.1628 5.77888 26.1927 5.56738 26.4346C5.36857 26.662 5.36093 26.9609 5.3584 27.1279C5.35683 27.2313 5.36044 27.3515 5.36328 27.4766C5.3662 27.6051 5.36913 27.7493 5.36914 27.915L5.36523 48.4395C5.36523 48.787 5.3542 49.0195 5.3252 49.1826C5.29758 49.3376 5.26289 49.3739 5.25684 49.3799C5.25034 49.3862 5.21028 49.4229 5.04395 49.4512C4.87399 49.48 4.63377 49.4912 4.27832 49.4912C3.28255 49.4912 2.25529 49.4711 1.2373 49.499C0.862588 49.5094 0.713185 49.4321 0.650391 49.3721C0.589443 49.3137 0.503941 49.1701 0.503906 48.7881L0.509766 31.6377C0.509271 25.9209 0.505936 20.2041 0.5 14.4873L0.508789 14.3164C0.525985 14.1626 0.567078 14.0566 0.619141 13.9746C0.691283 13.8611 0.815482 13.7455 1.04492 13.6191L1.04395 13.6182C4.96395 11.4613 8.88364 9.3035 12.8008 7.1416L24.5459 0.645508C24.7636 0.525123 24.9219 0.49407 25.0547 0.500977ZM43.3506 22.792C43.2834 22.7945 43.2256 22.7969 43.1699 22.7969H6.92188C6.6936 22.7969 6.54112 22.8047 6.34668 22.8008H6.34277C6.11422 22.7979 5.84668 22.8471 5.63867 23.0576C5.44733 23.2515 5.38731 23.5037 5.36133 23.6973V23.7002C5.32749 23.962 5.30378 24.2047 5.31348 24.4131C5.32319 24.6219 5.3686 24.8658 5.53711 25.0703C5.70907 25.2788 5.94308 25.367 6.15234 25.4092C6.35719 25.4504 6.5991 25.459 6.8584 25.459H24.9326C31.0563 25.459 37.177 25.4469 43.2979 25.4746V25.4736C43.6454 25.4755 44.0651 25.4519 44.3682 25.1748C44.6804 24.8892 44.7341 24.4646 44.7422 24.083C44.748 23.8084 44.7135 23.5524 44.6055 23.335C44.4877 23.098 44.3022 22.9473 44.0908 22.8672C43.901 22.7953 43.7066 22.7868 43.5645 22.7871C43.4902 22.7873 43.4147 22.7896 43.3506 22.792ZM6.77441 19.4414C6.48666 19.4396 6.0867 19.444 5.7793 19.6699C5.47259 19.8954 5.368 20.2425 5.34082 20.6025L5.33398 20.7578C5.32533 21.1968 5.40095 21.6411 5.77441 21.9102C5.94448 22.0327 6.13365 22.0851 6.29883 22.1104C6.46237 22.1353 6.63915 22.1387 6.80664 22.1387H6.80762C18.9252 22.1228 31.0429 22.127 43.1572 22.127C43.2757 22.127 43.3709 22.1237 43.458 22.1221L43.7129 22.126C43.9491 22.1402 44.2343 22.0999 44.4502 21.8721C44.6396 21.672 44.6881 21.4106 44.71 21.2314C44.7436 20.9633 44.7679 20.7138 44.7559 20.5C44.7437 20.2832 44.6914 20.0331 44.5098 19.8271C44.3286 19.6219 44.0872 19.5384 43.8711 19.498C43.6564 19.458 43.3994 19.4492 43.1182 19.4492H43.1172C37.1297 19.4532 31.1342 19.4531 25.1426 19.4531H18.1064C14.3248 19.4531 10.5479 19.4651 6.77441 19.4414ZM48.8975 47.3496C48.8698 36.9898 48.8778 26.6294 48.8896 16.2686L48.8809 16.0234C48.8624 15.7791 48.8106 15.5383 48.6953 15.3115C48.5377 15.0019 48.2885 14.7705 47.9648 14.582C40.6045 10.2925 33.2512 5.97874 25.9023 1.65332L25.9014 1.65234L25.6992 1.5459C25.494 1.44919 25.2778 1.38517 25.043 1.37988C24.8065 1.37458 24.5851 1.42928 24.3711 1.52246L24.1602 1.62695C20.4898 3.66099 16.8164 5.69213 13.1406 7.71973L2.10645 13.792C1.80625 13.9564 1.5548 14.163 1.38965 14.4541C1.22582 14.7431 1.17721 15.0615 1.18164 15.3906V15.3916C1.2093 17.7662 1.19434 20.1385 1.19434 22.5215L1.19824 47.2529C1.19819 47.2992 1.19224 47.3585 1.18164 47.4541C1.17232 47.5381 1.15887 47.6549 1.15723 47.7695C1.15433 47.9713 1.18429 48.4085 1.61133 48.6191C2.40262 49.0096 3.29388 48.8482 3.90918 48.7598C4.13679 48.7277 4.35859 48.6356 4.51562 48.4414C4.66618 48.2552 4.70118 48.0438 4.70703 47.8926C4.71276 47.7439 4.69108 47.5963 4.67676 47.499C4.65933 47.3806 4.65152 47.3271 4.65137 47.2891C4.6672 38.1346 4.66309 28.9759 4.66309 19.8223C4.66309 19.4893 4.67513 19.2651 4.7041 19.1074C4.7323 18.9542 4.76818 18.9164 4.77539 18.9092C4.78245 18.9021 4.81943 18.8668 4.9707 18.8389C5.12684 18.8101 5.34863 18.7988 5.67871 18.7988H5.67969C12.1303 18.7949 18.5814 18.7949 25.0322 18.7949H44.2852C44.655 18.7949 44.9043 18.8048 45.0811 18.834C45.254 18.8626 45.2943 18.8998 45.3008 18.9062C45.3064 18.9118 45.3434 18.9496 45.3721 19.1191C45.4015 19.2928 45.4121 19.5386 45.4121 19.9053V43.168C45.4121 44.6395 45.428 46.0977 45.4043 47.5566V47.5576C45.4002 47.8338 45.4245 48.2011 45.6562 48.4785C45.9207 48.7946 46.3119 48.8431 46.6641 48.8066L46.666 48.8057C46.8931 48.7812 47.1191 48.7786 47.3311 48.8047C47.7341 48.8559 48.1888 48.8417 48.5195 48.5244C48.8373 48.2196 48.8974 47.7669 48.8975 47.3516V47.3496Z" stroke="#D9D9D9" stroke-opacity="0.5"/>
<path d="M42.572 39.2381C42.572 42.333 42.5759 45.4278 42.572 48.5226C42.568 49.7891 42.3583 49.9909 41.0918 49.9949C34.8388 49.9988 28.5819 49.9988 22.3289 49.9949C21.0545 49.9949 20.8844 49.8366 20.8844 48.6137C20.8764 45.6178 20.8764 42.6179 20.8844 39.622C20.8883 38.5178 21.102 38.3002 22.1983 38.2923C24.8024 38.2804 27.4104 38.2685 30.0145 38.3041C30.6834 38.312 30.9129 38.1419 30.901 37.4414C30.8615 34.8373 30.8812 32.2292 30.8892 29.6251C30.8931 28.513 31.0989 28.2993 32.1912 28.2954C35.1871 28.2874 38.187 28.2874 41.1829 28.2954C42.3226 28.2993 42.568 28.5289 42.572 29.6647C42.5799 32.8506 42.572 36.0443 42.572 39.2381ZM30.8694 44.1099C30.8694 43.0691 30.8496 42.0243 30.8773 40.9834C30.8931 40.37 30.8892 39.9624 30.0383 39.9624C29.1993 39.9663 29.1518 40.3542 29.1913 40.9795C29.219 41.4346 29.1953 41.8897 29.1913 42.3448C29.1874 42.986 28.8431 43.3105 28.2217 43.3184C27.2125 43.3342 26.2034 43.3342 25.1942 43.3184C24.5768 43.3105 24.2246 42.9939 24.2206 42.3488C24.2166 41.7947 24.1771 41.2367 24.2246 40.6906C24.2879 39.994 23.8882 39.9782 23.3816 39.9901C22.9106 40.0019 22.4991 39.9386 22.5109 40.6629C22.5505 42.9741 22.5347 45.2853 22.5188 47.6005C22.5149 48.0754 22.6297 48.3208 23.1639 48.3168C25.5068 48.301 27.8537 48.301 30.1966 48.3168C30.6992 48.3208 30.8852 48.1348 30.8733 47.6282C30.8496 46.4528 30.8694 45.2814 30.8694 44.1099ZM36.7701 38.2685C37.9099 38.2685 39.0458 38.2408 40.1855 38.2804C40.7515 38.3002 40.8979 38.0944 40.89 37.5561C40.8663 35.3122 40.8623 33.0682 40.89 30.8243C40.8979 30.2346 40.7911 29.9536 40.1064 29.9576C39.4336 29.9615 39.2001 30.1475 39.2199 30.8401C39.303 33.4679 39.2357 33.3136 36.7068 33.3294C33.9998 33.3453 34.1977 33.2819 34.2175 30.9153C34.2175 30.852 34.2096 30.7847 34.2175 30.7214C34.3204 30.0921 34.0038 29.9536 33.4339 29.9694C32.8917 29.9853 32.5118 29.9932 32.5236 30.7293C32.5632 33.0049 32.5513 35.2805 32.5276 37.5561C32.5236 38.1062 32.7017 38.2962 33.2558 38.2804C34.4312 38.2448 35.6027 38.2685 36.7701 38.2685ZM40.8781 44.197C40.8781 43.0255 40.8583 41.8501 40.886 40.6787C40.8979 40.184 40.7594 40.0257 40.237 39.9901C39.4178 39.9307 39.1961 40.2038 39.208 41.019C39.2476 43.3303 39.212 43.3342 36.9205 43.3263C34.166 43.3224 34.1463 43.6152 34.2135 40.7499C34.2135 40.7183 34.2096 40.6826 34.2135 40.651C34.3125 40.0098 33.9167 39.9861 33.4458 40.0019C32.9906 40.0178 32.5395 39.9109 32.5513 40.651C32.583 42.9622 32.5751 45.2735 32.5553 47.5886C32.5513 48.1467 32.7651 48.3168 33.2993 48.3129C35.5789 48.2931 37.8585 48.2852 40.1381 48.3168C40.7673 48.3248 40.9058 48.0833 40.886 47.5134C40.8544 46.4132 40.8781 45.3051 40.8781 44.197ZM36.7227 31.596C37.2569 31.7147 37.6131 31.6316 37.5696 30.8995C37.5379 30.3256 37.5537 29.9259 36.7741 29.9615C36.1369 29.9892 35.8441 30.1079 35.8678 30.8203C35.8876 31.4258 36.0182 31.7543 36.7227 31.596ZM26.6941 40.0257C26.0411 39.8357 25.8393 40.1365 25.8393 40.8212C25.8393 41.4662 26.0451 41.6443 26.6743 41.6443C27.3154 41.6443 27.5925 41.5019 27.5727 40.7935C27.5608 40.1602 27.3906 39.8753 26.6941 40.0257ZM36.7781 41.6087C37.4508 41.7631 37.5577 41.4108 37.5735 40.8053C37.5894 40.1602 37.3836 39.994 36.7504 39.9861C36.0696 39.9782 35.8678 40.18 35.8639 40.8647C35.8599 41.585 36.1884 41.6997 36.7781 41.6087Z" fill="#C10016"/>
<path d="M30.0356 39.4623C29.5643 39.4645 29.116 39.5732 28.8638 39.9691C28.75 40.1479 28.7071 40.3415 28.6909 40.5092C28.6829 40.5923 28.6811 40.6776 28.6821 40.7621L28.6919 41.0111C28.7181 41.4428 28.6951 41.8565 28.6909 42.3402V42.3422C28.6894 42.5762 28.6278 42.6724 28.5864 42.7133C28.5434 42.7557 28.4445 42.8158 28.2153 42.8187H28.2144C27.2104 42.8345 26.2056 42.8345 25.2017 42.8187H25.2007C24.971 42.8158 24.8699 42.7561 24.8257 42.7133C24.7847 42.6734 24.7217 42.5796 24.7202 42.3461V42.3451C24.7159 41.7473 24.6783 41.2492 24.7231 40.7338L24.7222 40.7328C24.7414 40.5184 24.7307 40.3059 24.6597 40.1127C24.5828 39.904 24.4453 39.7443 24.2661 39.641C24.1014 39.5462 23.9264 39.5134 23.7856 39.4994C23.6437 39.4853 23.495 39.4877 23.3696 39.4906H23.3687C23.2809 39.4928 23.1279 39.4915 23.0112 39.4994C22.8852 39.5079 22.7153 39.5293 22.5503 39.6078C22.368 39.6945 22.2164 39.8388 22.1216 40.0443C22.056 40.1866 22.0243 40.3434 22.0142 40.5062L22.0112 40.6713C22.0507 42.9752 22.0349 45.2802 22.019 47.5961C22.017 47.8424 22.0367 48.1817 22.2476 48.4486C22.4543 48.71 22.7522 48.7976 23.0435 48.8138L23.1675 48.8168C24.3377 48.8089 25.5089 48.8051 26.6802 48.8051L30.1929 48.8168C30.4828 48.819 30.8296 48.7723 31.0835 48.515C31.2741 48.3218 31.3459 48.0776 31.3667 47.8441L31.3735 47.6166C31.35 46.4481 31.3696 45.2923 31.3696 44.1097C31.3696 43.3197 31.3587 42.5444 31.3647 41.7709L31.3774 40.9965C31.3813 40.8479 31.3852 40.6775 31.3706 40.5189C31.3559 40.3594 31.3191 40.1679 31.2134 39.9886C30.9706 39.5773 30.5213 39.4623 30.0386 39.4623H30.0356ZM40.2729 39.4916C39.8417 39.4603 39.3734 39.4941 39.0503 39.8304C38.7418 40.1517 38.7025 40.6151 38.7085 41.0267V41.0277C38.7186 41.6158 38.7217 42.0153 38.6919 42.3041C38.6617 42.5963 38.6052 42.6682 38.5854 42.6879C38.5642 42.7089 38.4896 42.7653 38.1958 42.7972C37.9054 42.8288 37.5069 42.8286 36.9224 42.8265H36.9214C36.2045 42.8255 35.7237 42.8428 35.3491 42.8256C34.9635 42.8078 34.8602 42.7536 34.8296 42.7279C34.8175 42.7178 34.7508 42.6588 34.7183 42.3138C34.6863 41.9748 34.6963 41.4913 34.7134 40.7621V40.7504C34.7134 40.7328 34.7128 40.7162 34.7124 40.7064C34.7122 40.7021 34.7125 40.6963 34.7124 40.6937C34.7123 40.6918 34.7115 40.6902 34.7114 40.6888C34.7373 40.4972 34.7368 40.3022 34.6763 40.1195C34.6062 39.9082 34.4694 39.7486 34.2935 39.6469C34.1332 39.5543 33.9625 39.5225 33.8276 39.5092C33.6905 39.4957 33.5487 39.4983 33.4292 39.5023H33.4282C33.3812 39.5039 33.3328 39.5042 33.2759 39.5043C33.2219 39.5043 33.1576 39.504 33.0942 39.5062C32.9734 39.5105 32.8033 39.5239 32.6362 39.5912C32.45 39.6663 32.2834 39.8024 32.1763 40.014C32.0783 40.2077 32.0479 40.4293 32.0513 40.6566V40.6576C32.0829 42.9634 32.075 45.2706 32.0552 47.5844V47.5853C32.0529 47.9054 32.1078 48.2684 32.3843 48.5267C32.5852 48.7144 32.8369 48.7826 33.0737 48.8041L33.3032 48.8129C35.0118 48.798 36.7192 48.79 38.4253 48.8002L40.1313 48.8168C40.4813 48.8212 40.874 48.7642 41.1362 48.4554C41.38 48.1682 41.3951 47.7889 41.3853 47.4994H41.3862C41.3548 46.4085 41.3784 45.3194 41.3784 44.1967C41.3784 43.014 41.3587 41.8543 41.3862 40.6908C41.3925 40.4281 41.3713 40.083 41.1284 39.8217C40.8891 39.5643 40.5467 39.5104 40.272 39.4916H40.2729ZM26.7095 39.5131C26.3579 39.4329 25.9581 39.4409 25.6616 39.7484C25.3798 40.0409 25.3394 40.4748 25.3394 40.8207C25.3394 41.1637 25.3862 41.5582 25.6743 41.8353C25.9571 42.1072 26.3478 42.1439 26.6743 42.1439C26.992 42.1439 27.3946 42.1194 27.6938 41.8666C27.981 41.6239 28.0639 41.2747 28.0728 40.9281V40.7797C28.0666 40.4668 28.0284 40.0481 27.7446 39.7631C27.4564 39.4737 27.0654 39.4538 26.7095 39.5131ZM36.7563 39.4857C36.4012 39.4816 35.9919 39.5218 35.7007 39.8109C35.4112 40.0984 35.3658 40.5064 35.3638 40.8617C35.3615 41.27 35.4487 41.7001 35.814 41.9525C36.1106 42.1575 36.4714 42.1502 36.7593 42.1136C37.1359 42.1827 37.5437 42.1484 37.8159 41.8002C37.9397 41.6417 37.9973 41.4593 38.0278 41.3041C38.0586 41.1471 38.0695 40.9788 38.0737 40.8187V40.8177C38.0821 40.4754 38.0445 40.076 37.7515 39.7953C37.4702 39.526 37.0767 39.4897 36.7563 39.4857ZM40.103 29.4574C39.7577 29.4595 39.3501 29.5001 39.0581 29.7787C38.7543 30.0685 38.7096 30.4828 38.7202 30.8549V30.8558C38.7413 31.5231 38.7506 31.9707 38.7202 32.2875C38.6894 32.6083 38.6257 32.6768 38.6069 32.6937C38.5769 32.7207 38.4819 32.7776 38.1382 32.8051C37.8019 32.8319 37.3555 32.8254 36.7036 32.8295C36.0175 32.8335 35.5552 32.832 35.229 32.7953C34.8952 32.7578 34.8228 32.693 34.8071 32.6761C34.7893 32.6569 34.7361 32.5824 34.7163 32.2621C34.6968 31.947 34.7121 31.5349 34.7173 30.9193V30.9154C34.7173 30.8899 34.717 30.866 34.7163 30.848C34.7155 30.8268 34.7148 30.817 34.7144 30.8031L34.7134 30.7836C34.7717 30.4065 34.7328 29.9909 34.3921 29.7152C34.1001 29.4789 33.7082 29.4621 33.4204 29.4701H33.4194C33.2914 29.4738 33.1381 29.4771 32.9966 29.4955C32.854 29.514 32.6793 29.5521 32.5151 29.6498C32.1759 29.8517 32.0486 30.1941 32.0269 30.5726L32.0239 30.7377C32.0634 33.0062 32.0516 35.2768 32.0278 37.5511V37.5521C32.0257 37.8507 32.0646 38.2174 32.3276 38.4828C32.5947 38.752 32.9634 38.7894 33.27 38.7806L33.271 38.7797C34.4364 38.7444 35.589 38.7689 36.77 38.7689C37.9262 38.7689 39.04 38.7405 40.1685 38.7797C40.4833 38.7906 40.8592 38.7518 41.1216 38.4652C41.3078 38.2617 41.3677 38.0043 41.3843 37.7709L41.3901 37.5492C41.3664 35.3087 41.3615 33.0682 41.3892 30.8295C41.3929 30.5453 41.3829 30.1582 41.1528 29.8617C40.8935 29.5276 40.4879 29.4552 40.103 29.4574ZM36.7515 29.4623C36.4473 29.4755 36.0512 29.507 35.7573 29.7465C35.4631 29.9863 35.375 30.3333 35.3667 30.6859L35.3677 30.8373C35.373 31.0002 35.3867 31.1717 35.4233 31.3314C35.46 31.4909 35.5276 31.673 35.6655 31.8275C35.9491 32.1452 36.3505 32.1698 36.7231 32.1039C36.9868 32.1527 37.3382 32.1783 37.6343 31.9867C37.9726 31.7675 38.0701 31.3938 38.0728 31.0267L38.0688 30.8695C38.0618 30.7414 38.0557 30.5821 38.0376 30.4418C38.0191 30.2985 37.9823 30.1189 37.8843 29.9506C37.6761 29.5935 37.3169 29.4712 36.9224 29.4603L36.7515 29.4623ZM21.3843 48.6127C21.3803 47.1151 21.3784 45.6161 21.3784 44.1176L21.3843 39.6234C21.3852 39.3569 21.3997 39.1779 21.4263 39.0541C21.4517 38.9359 21.481 38.9038 21.4878 38.8969C21.4949 38.8897 21.526 38.8615 21.6392 38.8363C21.7606 38.8093 21.9373 38.7943 22.2017 38.7924L22.2007 38.7914C24.8054 38.7795 27.4087 38.7685 30.0073 38.8041H30.0083C30.3455 38.8081 30.7557 38.7795 31.0522 38.5052C31.2838 38.2909 31.3684 38.0031 31.3931 37.7162L31.4009 37.433C31.3614 34.8353 31.3812 32.2342 31.3892 29.6273C31.3901 29.3578 31.4039 29.1766 31.4302 29.0511C31.4554 28.9306 31.4844 28.8994 31.4897 28.8939C31.4944 28.8891 31.5221 28.862 31.6343 28.8373C31.6941 28.8241 31.7682 28.814 31.8599 28.807L32.1929 28.7953C33.6903 28.7913 35.1886 28.7894 36.687 28.7894L41.1812 28.7953C41.4558 28.7962 41.6428 28.8117 41.7739 28.8402C41.8999 28.8676 41.9401 28.9002 41.9536 28.9135C41.9665 28.9261 41.9984 28.9631 42.0259 29.0834C42.0404 29.1469 42.0513 29.2247 42.0591 29.3207L42.0718 29.6664V48.5209C42.0708 48.8313 42.0566 49.0405 42.0269 49.1869C41.9983 49.3277 41.9642 49.3668 41.9536 49.3773C41.9425 49.3883 41.9018 49.4223 41.7593 49.4506C41.6113 49.4799 41.4011 49.4935 41.0903 49.4945C34.8379 49.4985 28.581 49.4985 22.3286 49.4945C22.0125 49.4945 21.8001 49.4843 21.6509 49.4584C21.5082 49.4335 21.4759 49.4025 21.4741 49.4008C21.4732 49.3999 21.4675 49.3946 21.4585 49.3754C21.4484 49.3539 21.4348 49.3159 21.4224 49.2513C21.3962 49.1148 21.3843 48.9165 21.3843 48.6136V48.6127Z" stroke="#D9D9D9" stroke-opacity="0.5"/>
<path d="M25.0396 11.63C26.306 11.63 27.5725 11.6577 28.8389 11.6221C29.7294 11.5983 30.0776 12.0099 30.0618 12.8529C30.046 13.7315 30.0578 14.6061 30.0578 15.4847C30.0578 16.2327 29.7294 16.6205 28.9378 16.6165C26.3417 16.6007 23.7415 16.6047 21.1414 16.6165C20.4211 16.6205 20.0332 16.3079 20.0253 15.5836C20.0135 14.61 20.0095 13.6365 20.0253 12.659C20.0372 11.9426 20.4132 11.6141 21.1414 11.626C22.4395 11.6419 23.7376 11.63 25.0396 11.63ZM25.0277 13.2724C24.1491 13.2724 23.2706 13.3159 22.3959 13.2605C21.6875 13.213 21.6954 13.6127 21.7073 14.1074C21.7152 14.5744 21.64 14.9939 22.3722 14.9781C24.1571 14.9346 25.9459 14.9385 27.7347 14.9781C28.3838 14.99 28.3996 14.6457 28.3679 14.1826C28.3402 13.7631 28.5381 13.2288 27.7585 13.2645C26.8482 13.304 25.938 13.2724 25.0277 13.2724Z" fill="#C10016"/>
<path d="M28.8528 12.1221C29.2306 12.1121 29.3717 12.1981 29.429 12.2578C29.476 12.307 29.5313 12.4054 29.553 12.6064L29.5618 12.8438C29.5458 13.728 29.5579 14.6151 29.5579 15.4844C29.5579 15.7966 29.4878 15.9295 29.4329 15.9873C29.383 16.0397 29.2617 16.1178 28.9407 16.1162L25.0413 16.1064C23.7407 16.1069 22.4396 16.1103 21.1389 16.1162L20.9446 16.1064C20.7788 16.0862 20.6931 16.0397 20.6497 16.001C20.6012 15.9577 20.5287 15.8549 20.5256 15.5781V15.5771L20.5149 14.1221C20.5144 13.6373 20.5178 13.1524 20.5256 12.667C20.5303 12.3905 20.602 12.2836 20.6516 12.2383C20.7071 12.1877 20.8363 12.1212 21.1331 12.126H21.135C22.4369 12.1419 23.7436 12.1299 25.0393 12.1299C25.9778 12.1299 26.9363 12.146 27.8948 12.1387L28.8528 12.1221ZM22.429 12.7617C22.2118 12.7472 21.9983 12.7628 21.8059 12.8379C21.5982 12.919 21.4422 13.0596 21.343 13.2412C21.2523 13.4073 21.2234 13.5816 21.2122 13.7188C21.201 13.8561 21.2045 14.0017 21.2073 14.1191C21.2085 14.2014 21.2063 14.3576 21.2122 14.4688C21.2187 14.5938 21.2375 14.7648 21.3137 14.9316C21.3983 15.1167 21.5421 15.2718 21.7502 15.3682C21.9417 15.4567 22.1596 15.4824 22.3831 15.4775H22.384C24.1601 15.4342 25.9416 15.4381 27.7239 15.4775H27.7258C28.1234 15.4848 28.5261 15.3841 28.7415 15.0059C28.833 14.845 28.8623 14.6765 28.8723 14.541C28.8823 14.4054 28.8745 14.266 28.8665 14.1484C28.8616 14.0736 28.8672 14.0053 28.8704 13.8682C28.8729 13.7574 28.8743 13.5862 28.8264 13.417C28.7722 13.2255 28.6521 13.0271 28.4241 12.8984C28.2174 12.7819 27.9764 12.7536 27.7356 12.7646C26.8396 12.8035 25.9613 12.7725 25.0276 12.7725C24.1152 12.7725 23.2822 12.8158 22.428 12.7617H22.429Z" stroke="#D9D9D9" stroke-opacity="0.5"/>
</svg>
