<svg width="21" height="19" viewBox="0 0 21 19" fill="none" xmlns="http://www.w3.org/2000/svg">
<path d="M10.323 2.95618C11.9611 -0.530805 16.6409 -1.04326 18.9722 2.00941L19.3008 2.43909C21.2149 4.94561 20.9381 8.52035 18.6622 10.6925L11.2829 17.7358C11.1635 17.8498 11.0454 17.9622 10.9377 18.0465C10.8229 18.1363 10.6779 18.2281 10.4899 18.2656C10.355 18.2924 10.2164 18.2924 10.0815 18.2656C9.89355 18.2281 9.74851 18.1363 9.63372 18.0465C9.52602 17.9622 9.40794 17.8498 9.28855 17.7358L1.90922 10.6925C-0.366628 8.52035 -0.643434 4.94561 1.27069 2.43909L1.59928 2.00941C3.93054 -1.04326 8.61034 -0.530804 10.2484 2.95618C10.2544 2.96877 10.2593 2.97251 10.2619 2.97408C10.2663 2.9768 10.2748 2.9804 10.2857 2.9804C10.2967 2.9804 10.3051 2.9768 10.3096 2.97408C10.3121 2.97251 10.3171 2.96877 10.323 2.95618ZM18.1336 2.67078C16.2866 0.252185 12.5786 0.65795 11.2808 3.42061C10.8811 4.27072 9.69036 4.27073 9.29062 3.42061C7.99281 0.657951 4.28485 0.252184 2.43787 2.67078L2.10927 3.10046C0.530821 5.16751 0.759024 8.1156 2.63585 9.90685L10.0162 16.9502C10.1506 17.0784 10.2238 17.1479 10.2805 17.1924C10.2821 17.1936 10.2843 17.1945 10.2857 17.1956C10.2872 17.1945 10.2894 17.1936 10.2909 17.1924C10.3477 17.1479 10.4209 17.0784 10.5552 16.9502L17.9356 9.90685C19.8124 8.1156 20.0406 5.16751 18.4622 3.10046L18.1336 2.67078Z" fill="#222222"/>
</svg>
