<svg width="40" height="40" viewBox="0 0 40 40" fill="none" xmlns="http://www.w3.org/2000/svg">
<path d="M23.9174 4.25237C22.4419 3.87124 21.0535 3.72968 19.6406 3.75146C19.2894 3.7569 19.1805 3.90391 19.2132 4.22242C19.3792 5.79322 18.5625 6.60175 17.1523 7.08361C16.4227 7.33134 15.6251 7.6308 15.3964 8.57001C15.3338 8.82864 15.0425 8.9457 14.7512 8.88308C14.4681 8.82047 14.3047 8.61629 14.2421 8.3495C14.1223 7.82681 14.3864 7.43752 14.7376 7.10811C15.293 6.58542 15.9382 6.19885 16.646 5.91572C16.9128 5.80955 17.1768 5.70338 17.4382 5.58632C18.0997 5.28958 18.0398 4.67161 17.9228 4.1707C17.7975 3.63167 17.3211 4.00736 17.0271 4.05636C15.1051 4.36943 13.3301 5.07996 11.6532 6.06545C11.3074 6.26963 11.1985 6.43841 11.3483 6.8631C11.5416 7.42118 11.6368 8.02554 11.694 8.61629C11.8492 10.2742 11.1114 11.2896 9.19488 12.022C10.0279 10.4757 10.959 9.00287 10.0905 7.21701C9.67946 7.3749 9.38817 7.68525 9.10504 7.97654C8.71847 8.37945 8.18216 8.49651 7.87454 8.16438C7.56963 7.83226 7.86365 7.37762 8.23117 7.04278C14.5334 1.27684 24.3366 0.91749 30.9329 6.36763C36.3041 10.8051 38.3023 16.5764 37.1562 23.4395C37.1426 23.5157 37.1208 23.5919 37.099 23.6654C37.0637 23.7907 37.0283 23.9132 36.9711 24.1037C36.3586 23.5674 35.8713 23.0992 36.0591 22.1627C36.3422 20.7525 36.2823 19.3151 36.0918 17.8859C35.9312 16.6935 35.4547 16.3587 34.2787 16.669C33.9275 16.7616 33.5845 16.8922 33.2333 16.9821C32.7351 17.11 32.2669 17.1318 31.8776 16.6799C31.6353 16.3995 31.295 16.2525 30.9166 16.2089C30.2714 16.1354 30.0345 16.424 30.2904 17.0256C30.5708 17.6844 30.9275 18.3487 30.2142 18.9394C29.5091 19.522 28.7223 19.4431 27.9356 19.1028C27.7722 19.032 27.6225 18.9286 27.4537 18.836C27.3666 19.846 27.745 20.3905 28.7904 20.8233C29.1933 20.9894 29.667 21.0384 29.9447 21.4304C30.0754 21.6128 30.2659 21.8115 29.8058 21.885C27.6525 22.228 26.3838 20.9404 26.1334 19.2443C26.0436 18.6373 26.0817 18.0084 26.6779 17.6409C27.2604 17.2815 27.8213 17.4394 28.3331 17.8505C28.4311 17.9294 28.5508 17.9921 28.6706 18.0383C28.8421 18.1064 29.0409 18.1581 29.1906 18.0329C29.3866 17.8696 29.2042 17.6926 29.1361 17.5483C28.8857 17.0311 28.804 16.5165 29.0463 15.9694C29.4628 15.0274 30.5518 14.5428 31.6217 15.1336C32.6072 15.6808 33.4647 15.708 34.4529 15.3432C34.7551 15.2316 35.305 15.3704 35.3948 15.2044C35.5772 14.8695 35.2669 14.4693 35.1253 14.1154C33.3885 9.83046 30.3993 6.76782 26.1334 4.97107C25.8067 4.83223 25.461 4.49466 25.0744 4.89756C24.696 5.2923 24.4401 5.73605 24.5871 6.29957C24.6878 6.6807 24.7477 7.06455 24.7287 7.45657C24.6824 8.37945 24.157 8.88853 23.2368 8.89669C22.6134 8.90486 21.99 8.86947 21.3747 9.03553C20.9745 9.14443 20.7595 9.34044 20.7159 9.77601C20.6288 10.6744 20.3048 11.4448 19.401 11.8314C19.2485 11.8967 19.1043 12.0301 19.1233 12.1771C19.1587 12.433 19.4119 12.3432 19.5698 12.3459C20.5852 12.3514 21.6007 12.3323 22.6161 12.3377C23.3511 12.3405 24.0698 12.4548 24.7368 12.7842C25.8067 13.3123 26.3866 14.5374 26.0762 15.6672C25.8639 16.4376 25.2786 16.8269 24.5245 16.8868C23.2504 16.9848 21.9791 16.9303 20.735 16.5846C19.8584 16.3423 18.9845 16.0891 18.0616 16.0755C17.1741 16.0619 16.3302 16.228 15.6469 16.8024C15.0234 17.3278 14.7893 16.6744 14.5334 16.4322C14.1332 16.0565 14.7104 15.934 14.8901 15.8006C16.4391 14.6381 18.1841 14.6163 19.9536 15.09C21.2195 15.4276 22.4827 15.6917 23.7922 15.6808C24.1815 15.6781 24.715 15.8087 24.8403 15.2615C24.9737 14.6762 24.7341 14.1808 24.1651 13.9113C23.6615 13.6717 23.1197 13.5982 22.5698 13.5955C21.5299 13.5927 20.4872 13.62 19.4473 13.6036C18.7476 13.5927 18.0643 13.4757 17.8166 12.678C17.626 12.0628 17.9935 11.1671 18.6714 10.8187C19.2513 10.5219 19.4554 10.0864 19.4827 9.51467C19.5262 8.66257 20.0217 8.20522 20.7622 7.92754C21.4074 7.68797 22.0798 7.58724 22.7577 7.64714C23.3702 7.70158 23.5989 7.46746 23.4301 6.90121C23.147 5.962 23.3321 5.11263 23.9174 4.25237Z" fill="#C10016"/>
<path d="M13.1205 30.0033C9.11051 30.0033 5.10048 30.0033 1.09045 30.0005C0.834547 30.0005 0.565033 30.055 0.328188 29.908C0.113122 29.7773 -0.0175512 29.5867 0.00967237 29.3254C0.0396183 29.0368 0.211127 28.8299 0.488807 28.7782C0.741986 28.7292 1.00606 28.7455 1.2674 28.7455C9.20852 28.7455 17.1524 28.7346 25.0935 28.7619C25.7741 28.7646 25.9918 28.6149 25.951 27.9125C25.8857 26.7963 25.9456 25.6747 25.9292 24.5531C25.902 23.0095 25.3766 22.5005 23.8494 22.4977C23.4601 22.4977 23.068 22.5086 22.6787 22.4841C22.3521 22.4624 22.1533 22.2473 22.1234 21.9288C22.0934 21.6075 22.2595 21.2945 22.5644 21.289C23.667 21.27 24.8158 21.0004 25.8367 21.6647C26.0926 21.8308 26.422 22.0349 26.5091 22.2936C26.8031 23.1674 27.451 23.1457 28.1779 23.132C29.8168 23.1021 31.4583 23.1402 33.0999 23.1157C34.001 23.1021 34.7116 23.4152 35.2805 24.1094C36.6036 25.7183 37.9376 27.319 39.2688 28.9198C39.7724 29.5241 40.0147 30.2102 40.0093 31.0024C39.9957 32.8263 40.0093 34.6476 40.0038 36.4716C40.0011 37.6531 39.5301 38.1159 38.3432 38.1267C38.188 38.1267 38.0165 38.1676 37.8777 38.1186C37.6299 38.026 37.1181 38.418 37.159 37.7783C37.1862 37.3427 37.0147 36.7084 37.8613 36.869C38.5446 36.9997 38.7978 36.752 38.7706 36.0088C38.708 34.3699 38.7406 32.7283 38.757 31.0868C38.7624 30.5368 38.5991 30.074 38.2506 29.6548C36.933 28.0758 35.6181 26.4941 34.3114 24.9043C34.0065 24.5341 33.6417 24.368 33.1598 24.3707C31.3631 24.3843 29.5663 24.3871 27.7695 24.368C27.3449 24.3625 27.1842 24.4633 27.1842 24.9234C27.2006 28.7265 27.2033 32.5269 27.1842 36.33C27.1815 36.7982 27.3585 36.9207 27.775 36.8745C27.9819 36.8527 28.197 36.9044 28.3984 36.8636C29.1634 36.7138 29.0409 37.2474 29.1035 37.7021C29.1961 38.3663 28.7088 38.1131 28.4529 38.1159C24.9383 38.1322 21.421 38.1349 17.9064 38.1104C17.656 38.1077 17.1115 38.4616 17.1469 37.7347C17.1741 37.2311 17.1224 36.8282 17.901 36.85C20.3484 36.9126 22.7958 36.8581 25.2432 36.8854C25.7741 36.8908 25.9592 36.7737 25.9483 36.2075C25.9102 34.359 25.9102 32.5105 25.9483 30.6621C25.9592 30.0822 25.7496 29.9924 25.2323 29.9951C21.1923 30.0114 17.1551 30.0033 13.1205 30.0033Z" fill="#C10016"/>
<path d="M9.11585 17.186C10.2865 17.186 11.4598 17.1751 12.6304 17.1887C13.9045 17.2023 14.6477 17.9646 14.6885 19.2359C14.7103 19.8811 14.4054 20.7278 14.8083 21.1144C15.2439 21.5282 16.0932 21.226 16.7629 21.245C17.596 21.2668 18.429 21.2423 19.2621 21.2532C20.4735 21.2695 21.2249 21.9964 21.2412 23.1861C21.2603 24.4084 21.2249 25.6335 21.2548 26.8558C21.2684 27.3649 21.1078 27.5282 20.5906 27.5228C20.0978 27.5173 19.9699 27.3431 19.9808 26.883C20.008 25.7641 19.9617 24.6425 19.9998 23.5236C20.0243 22.7995 19.782 22.4728 19.0143 22.4946C17.5824 22.5327 16.1504 22.5327 14.7185 22.4946C13.9508 22.4755 13.7112 22.8022 13.7357 23.5236C13.7711 24.667 13.7139 25.8159 13.7575 26.9592C13.7792 27.5282 13.4852 27.5092 13.0878 27.5119C12.6985 27.5173 12.4643 27.4819 12.478 26.981C12.5134 25.6797 12.4916 24.3785 12.4916 23.0772C12.4916 22.6715 12.5732 22.2332 12.8781 22.0046C13.5125 21.5309 13.4281 20.8993 13.4281 20.2623C13.4253 18.441 13.4281 18.441 11.5877 18.441C9.63582 18.441 7.68117 18.4383 5.72924 18.4437C4.84992 18.4465 4.67841 18.6506 4.67024 19.4891C4.66479 19.9138 4.81725 20.0118 5.21199 20.0064C6.51328 19.9846 7.81456 19.9928 9.11857 20.0009C10.5043 20.0091 11.2366 20.736 11.242 22.1216C11.2502 23.736 11.2175 25.3503 11.2583 26.9647C11.272 27.5391 10.9752 27.5037 10.5859 27.5146C10.1885 27.5255 9.97067 27.4738 9.97884 26.981C10.0088 25.3939 9.97067 23.804 9.99789 22.2169C10.0088 21.5091 9.72293 21.2396 9.02057 21.2478C7.17209 21.2723 5.32361 21.2777 3.47512 21.245C2.71286 21.2314 2.47057 21.5581 2.48419 22.2795C2.51413 23.8149 2.46785 25.3531 2.50597 26.8885C2.51958 27.4384 2.30451 27.5119 1.83082 27.5228C1.33807 27.5337 1.21829 27.3703 1.22646 26.8993C1.25368 25.2605 1.22646 23.6189 1.24007 21.9801C1.25096 20.8748 1.8526 20.1534 2.9606 20.0309C3.43157 19.9791 3.41796 19.7668 3.42612 19.4374C3.4724 17.8366 4.1421 17.1942 5.74829 17.1915C6.87535 17.1833 7.99424 17.186 9.11585 17.186Z" fill="#C10016"/>
<path d="M1.85818 10.846C2.63678 11.9812 3.36092 13.0266 4.06602 14.0828C4.28925 14.4177 4.43626 14.4449 4.67038 14.091C5.37547 13.032 6.10234 11.9866 6.81287 10.9467C6.76659 10.8814 6.74209 10.8133 6.71487 10.8106C5.30197 10.699 5.30197 10.699 5.30197 9.26156C5.30197 7.49204 5.30741 5.72251 5.29924 3.95298C5.29652 3.49835 5.35097 3.05461 5.89816 3.04099C6.49436 3.02738 6.56242 3.49018 6.55969 3.97476C6.55153 5.61361 6.57603 7.25247 6.54608 8.89132C6.53519 9.40585 6.69037 9.55013 7.19945 9.54741C7.70853 9.54469 8.37006 9.26973 8.67224 9.92309C8.94176 10.5084 8.37551 10.8732 8.10327 11.2815C7.12595 12.7571 6.11595 14.2081 5.1114 15.6618C4.55876 16.4595 4.19397 16.4622 3.64677 15.6727C2.51972 14.0502 1.40627 12.4168 0.290106 10.7861C0.0995408 10.5084 -0.129137 10.2334 0.0886514 9.8632C0.295551 9.50657 0.644012 9.5338 0.984307 9.53108C2.1767 9.51474 2.1767 9.51202 2.1767 8.34958C2.1767 5.90491 2.17942 3.45751 2.17398 1.01284C2.17398 0.550045 2.16853 0.0409652 2.7729 0.0273534C3.43171 0.0137417 3.43171 0.550044 3.43171 1.03735C3.42898 3.74336 3.43171 6.44938 3.43171 9.15539C3.42898 10.699 3.42898 10.699 1.85818 10.846Z" fill="#C10016"/>
<path d="M20.6042 0.002645C30.0453 0.266713 38.2369 7.4646 39.7015 16.6144C39.8622 17.6162 39.982 18.6208 39.9983 19.639C40.0065 20.1126 39.9738 20.5999 39.3721 20.5999C38.7678 20.5999 38.7596 20.1072 38.7378 19.639C38.4111 12.599 35.226 7.25226 29.1606 3.66693C26.5144 2.1043 23.6042 1.36382 20.5362 1.25765C20.0543 1.24131 19.4145 1.3611 19.4009 0.653286C19.3846 -0.125305 20.0543 0.0162567 20.5607 0.002645C20.6396 -7.735e-05 20.7158 0.002645 20.6042 0.002645Z" fill="#C10016"/>
<path d="M33.2007 32.1895C32.3677 32.1895 31.5346 32.2059 30.7043 32.1841C29.8794 32.165 29.3921 31.6913 29.3731 30.8719C29.3486 29.8837 29.3513 28.8955 29.3731 27.9073C29.3894 27.0497 29.8849 26.6468 30.7506 26.5488C32.2778 26.3746 33.4702 26.7966 34.3904 28.0978C34.9866 28.9418 35.7543 29.6659 36.4539 30.4363C36.7697 30.7821 36.9984 31.1523 36.7942 31.6287C36.5901 32.1106 36.1763 32.2004 35.6998 32.195C34.8668 32.1814 34.0338 32.1895 33.2007 32.1895ZM35.2071 30.9345C34.3468 29.9681 33.6145 29.1405 32.874 28.3156C32.5011 27.8991 31.2352 27.5615 30.8132 27.8474C30.3831 28.1414 30.6744 28.6532 30.6308 29.0643C30.5818 29.5271 30.6417 29.998 30.6145 30.4636C30.5927 30.8474 30.7533 30.9454 31.1127 30.9427C32.4085 30.9236 33.7044 30.9345 35.2071 30.9345Z" fill="#C10016"/>
<path d="M15.9327 37.1715C15.9409 38.7314 14.675 40.0027 13.1151 39.9973C11.5851 39.9946 10.3328 38.7641 10.3056 37.2395C10.2784 35.6769 11.528 34.3892 13.0851 34.3729C14.6478 34.3593 15.9246 35.6143 15.9327 37.1715ZM14.675 37.2042C14.6832 36.3412 13.9617 35.617 13.0988 35.6306C12.2684 35.6415 11.5742 36.3385 11.5633 37.1688C11.5525 38.0318 12.2766 38.7532 13.1396 38.7423C13.9726 38.7314 14.6668 38.0372 14.675 37.2042Z" fill="#C10016"/>
<path d="M33.0837 39.9997C31.5265 39.9834 30.2769 38.693 30.3041 37.1331C30.3314 35.5759 31.6299 34.3373 33.1898 34.3754C34.7144 34.4135 35.9367 35.6739 35.9285 37.2039C35.9258 38.7611 34.6436 40.0161 33.0837 39.9997ZM34.6735 37.1631C34.6572 36.3001 33.9113 35.595 33.0537 35.6331C32.2234 35.6685 31.5483 36.3845 31.5619 37.2148C31.5782 38.0778 32.3214 38.7801 33.1817 38.7447C34.0147 38.7093 34.6899 37.9934 34.6735 37.1631Z" fill="#C10016"/>
<path d="M38.1364 3.74873C37.1074 3.75962 36.2444 2.90481 36.2444 1.87303C36.2444 0.841264 37.1046 -0.00810864 38.1391 5.84092e-05C39.1382 0.00822546 39.9713 0.83582 39.9903 1.83492C40.0121 2.86941 39.1682 3.73784 38.1364 3.74873ZM38.0901 1.25234C37.7934 1.30679 37.5375 1.47013 37.513 1.82403C37.4885 2.21605 37.7145 2.46923 38.1038 2.4774C38.493 2.48556 38.7299 2.24055 38.7217 1.84853C38.7163 1.49463 38.4767 1.30951 38.0901 1.25234Z" fill="#C10016"/>
<path d="M7.10421 38.1237C6.53252 38.1237 5.96354 38.1291 5.39185 38.1209C4.96444 38.1155 4.68131 37.9031 4.70037 37.4621C4.71943 37.0647 4.99983 36.8768 5.38913 36.8768C6.47807 36.8741 7.56701 36.8632 8.65595 36.8768C9.40188 36.885 8.9663 37.4948 9.08336 37.8133C9.23037 38.2135 8.85741 38.1155 8.65868 38.1209C8.14143 38.1373 7.62146 38.1264 7.10421 38.1237C7.10421 38.1264 7.10421 38.1264 7.10421 38.1237Z" fill="#C10016"/>
<path d="M6.24665 33.1201C5.83285 33.1201 5.41633 33.1392 5.00253 33.1147C4.61051 33.0929 4.36822 32.8615 4.38728 32.4613C4.40361 32.1047 4.64318 31.8896 4.99981 31.8815C5.83013 31.8651 6.66045 31.8624 7.48804 31.8815C7.88006 31.8923 8.12235 32.1346 8.1033 32.5348C8.08696 32.8914 7.84739 33.0983 7.49077 33.1147C7.07697 33.1365 6.66045 33.1201 6.24665 33.1201Z" fill="#C10016"/>
<path d="M17.147 33.1176C16.7332 33.1176 16.3167 33.1393 15.9029 33.1121C15.5463 33.0903 15.3257 32.8644 15.323 32.505C15.3203 32.1457 15.5408 31.9007 15.8947 31.8925C16.7495 31.868 17.6071 31.868 18.4619 31.8898C18.8185 31.898 19.039 32.1375 19.0418 32.4969C19.0445 32.8562 18.824 33.0876 18.4701 33.1121C18.029 33.1393 17.588 33.1176 17.147 33.1176Z" fill="#C10016"/>
</svg>
