<svg width="20" height="20" viewBox="0 0 20 20" fill="none" xmlns="http://www.w3.org/2000/svg">
<path d="M9.9546 4.81102C12.7481 4.81102 15.0538 7.11677 15.0538 9.91026C15.0538 12.7481 12.7481 15.0095 9.9546 15.0095C7.11677 15.0095 4.85536 12.7481 4.85536 9.91026C4.85536 7.11677 7.11677 4.81102 9.9546 4.81102ZM9.9546 13.2359C11.7726 13.2359 13.2359 11.7726 13.2359 9.91026C13.2359 8.09227 11.7726 6.62901 9.9546 6.62901C8.09227 6.62901 6.62901 8.09227 6.62901 9.91026C6.62901 11.7726 8.13661 13.2359 9.9546 13.2359ZM16.4284 4.63366C16.4284 5.29878 15.8963 5.83087 15.2312 5.83087C14.5661 5.83087 14.034 5.29878 14.034 4.63366C14.034 3.96854 14.5661 3.43644 15.2312 3.43644C15.8963 3.43644 16.4284 3.96854 16.4284 4.63366ZM19.7984 5.83087C19.887 7.4715 19.887 12.3934 19.7984 14.034C19.7097 15.6303 19.3549 17.0049 18.2021 18.2021C17.0492 19.3549 15.6303 19.7097 14.034 19.7984C12.3934 19.887 7.4715 19.887 5.83087 19.7984C4.23459 19.7097 2.86001 19.3549 1.6628 18.2021C0.509924 17.0049 0.155194 15.6303 0.0665118 14.034C-0.0221706 12.3934 -0.0221706 7.4715 0.0665118 5.83087C0.155194 4.23459 0.509924 2.81567 1.6628 1.6628C2.86001 0.509924 4.23459 0.155194 5.83087 0.0665118C7.4715 -0.0221706 12.3934 -0.0221706 14.034 0.0665118C15.6303 0.155194 17.0492 0.509924 18.2021 1.6628C19.3549 2.81567 19.7097 4.23459 19.7984 5.83087ZM17.67 15.7633C18.2021 14.4774 18.069 11.3735 18.069 9.91026C18.069 8.49134 18.2021 5.38746 17.67 4.05722C17.3152 3.21474 16.6501 2.50528 15.8076 2.19489C14.4774 1.6628 11.3735 1.79582 9.9546 1.79582C8.49134 1.79582 5.38746 1.6628 4.10156 2.19489C3.21474 2.54962 2.54962 3.21474 2.19489 4.05722C1.6628 5.38746 1.79582 8.49134 1.79582 9.91026C1.79582 11.3735 1.6628 14.4774 2.19489 15.7633C2.54962 16.6501 3.21474 17.3152 4.10156 17.67C5.38746 18.2021 8.49134 18.069 9.9546 18.069C11.3735 18.069 14.4774 18.2021 15.8076 17.67C16.6501 17.3152 17.3596 16.6501 17.67 15.7633Z" fill="white"/>
</svg>
