<svg width="40" height="40" viewBox="0 0 40 40" fill="none" xmlns="http://www.w3.org/2000/svg">
<path d="M38.6414 10.5378C38.6414 11.5025 38.5932 12.4672 38.6575 13.4319C38.6896 14.0911 38.4324 14.4609 37.8696 14.7664C37.0336 15.2005 36.2457 15.6989 35.4257 16.1491C35.072 16.3421 34.9756 16.5189 35.0559 16.9691C36.6798 25.6514 31.1972 32.9991 23.8494 34.8481C19.4118 35.9736 15.2476 35.2501 11.421 32.7258C11.0029 32.4525 10.7618 32.4364 10.3276 32.7419C8.12493 34.2371 5.77751 34.414 3.43009 33.1438C1.09875 31.8736 -0.0910353 29.8156 0.00543405 27.1306C0.101903 24.4133 1.46855 22.484 3.91244 21.3585C4.50733 21.0851 4.65204 20.8279 4.63596 20.1848C4.47518 11.2453 12.0963 4.04224 21.0357 4.66929C22.74 4.78184 24.3639 5.15164 25.9235 5.82692C26.3576 6.01986 26.6953 6.00378 27.1133 5.74653C28.5121 4.91046 29.9431 4.12263 31.3419 3.28656C31.8242 2.99716 32.2262 2.94892 32.7407 3.25441C34.4771 4.29949 36.2457 5.31242 38.0143 6.30927C38.4645 6.56652 38.6735 6.87201 38.6575 7.40259C38.6253 8.44767 38.6414 9.49276 38.6414 10.5378ZM24.3479 20.6189C23.3028 20.6189 22.2577 20.635 21.2126 20.6028C20.7624 20.5867 20.6016 20.7154 20.6177 21.1816C20.6499 22.8859 20.6338 24.6063 20.6177 26.3106C20.6177 26.7125 20.7142 26.8733 21.1483 26.8894C22.6436 26.9055 24.1228 27.1145 25.5859 27.4843C26.02 27.5968 26.2129 27.436 26.3898 27.0662C27.2419 25.169 27.7886 23.2075 27.9333 21.1334C27.9655 20.6832 27.8207 20.5867 27.4027 20.6028C26.3898 20.635 25.3608 20.6189 24.3479 20.6189ZM15.7299 19.3326C16.7429 19.3326 17.7719 19.3165 18.7848 19.3326C19.1707 19.3326 19.3636 19.2683 19.3636 18.8181C19.3475 17.0817 19.3475 15.3291 19.3636 13.5927C19.3636 13.239 19.2993 13.0621 18.8813 13.046C17.3538 13.03 15.8425 12.8049 14.3633 12.4351C14.0256 12.3547 13.8166 12.419 13.6719 12.7727C12.7876 14.686 12.2088 16.6636 12.0963 18.786C12.0802 19.204 12.1927 19.3487 12.6108 19.3487C13.6398 19.3165 14.6848 19.3326 15.7299 19.3326ZM15.6978 20.6189C14.6848 20.6189 13.6558 20.635 12.6429 20.6028C12.1927 20.5867 12.048 20.7154 12.0802 21.1977C12.2088 23.2879 12.7715 25.2333 13.6398 27.1306C13.8327 27.5486 14.09 27.5807 14.4758 27.4843C15.8746 27.1466 17.3056 26.9376 18.7526 26.9055C19.1867 26.8894 19.3636 26.809 19.3636 26.3267C19.3315 24.6063 19.3315 22.902 19.3636 21.1816C19.3636 20.6993 19.1867 20.6028 18.7526 20.6189C17.7397 20.635 16.7107 20.6189 15.6978 20.6189ZM24.3318 19.3326C25.3769 19.3326 26.4219 19.3165 27.451 19.3326C27.8368 19.3326 27.9655 19.2362 27.9172 18.8342C27.8368 18.0142 27.7243 17.1942 27.5796 16.3742C27.451 15.6668 27.1937 15.1201 26.4863 14.8629C25.6823 14.5574 25.2965 14.0107 25.4412 13.1264C25.5376 12.5798 25.2643 12.5155 24.798 12.6119C23.5922 12.8692 22.3863 13.046 21.1483 13.046C20.7303 13.046 20.6016 13.2068 20.6016 13.6088C20.6177 15.3131 20.6177 17.0334 20.6016 18.7377C20.6016 19.1879 20.7142 19.3487 21.1804 19.3326C22.2416 19.3165 23.2867 19.3326 24.3318 19.3326ZM8.39826 19.3326C8.961 19.3326 9.52374 19.3005 10.0865 19.3487C10.6171 19.3969 10.7778 19.1879 10.81 18.6734C10.9065 16.4868 11.4692 14.4127 12.4178 12.4511C12.6108 12.0331 12.4821 11.9045 12.1123 11.7919C11.3567 11.5508 10.6171 11.2131 9.92569 10.8112C9.60413 10.6182 9.41119 10.6825 9.1861 10.9559C7.40141 13.1586 6.35633 15.6346 5.98653 18.4483C5.89006 19.204 6.13124 19.4452 6.87083 19.3487C7.38534 19.2844 7.88376 19.3326 8.39826 19.3326ZM31.6795 20.6189C31.0686 20.6189 30.4415 20.651 29.8305 20.6028C29.3803 20.5706 29.2196 20.7475 29.2035 21.1816C29.0749 23.4165 28.5282 25.5388 27.5635 27.5647C27.4188 27.8862 27.4831 28.0309 27.8047 28.1274C28.5925 28.3847 29.3643 28.7062 30.0717 29.1243C30.4576 29.3494 30.6344 29.1886 30.8595 28.9152C32.5638 26.809 33.5928 24.4133 33.9626 21.7444C34.1234 20.6028 34.1073 20.6028 32.9658 20.6028C32.5317 20.6189 32.1136 20.6189 31.6795 20.6189ZM10.9869 30.1211C12.4661 28.0792 11.9676 24.9278 9.97393 23.3039C7.77121 21.5032 4.6038 21.6961 2.70657 23.722C1.0666 25.4906 0.793267 28.6098 2.17599 30.089C2.61011 29.269 3.14069 28.5133 3.96068 28.0792C4.47518 27.8058 4.42694 27.5968 4.16969 27.1306C3.59088 26.1016 3.68735 25.0404 4.42694 24.14C5.13439 23.2557 6.083 22.902 7.20848 23.1914C9.02531 23.6577 9.81315 25.5871 8.89669 27.2592C8.78414 27.4521 8.41434 27.6611 8.86453 27.8862C9.82922 28.3686 10.4563 29.1886 10.9869 30.1211ZM26.7596 8.17434C26.7596 9.94295 26.7596 11.5508 26.7596 13.1425C26.7596 13.3676 26.8078 13.5605 27.0168 13.6731C28.4478 14.4931 29.8627 15.3131 31.4062 16.1974C31.4062 14.3966 31.4062 12.7566 31.4062 11.1006C31.4062 10.8755 31.2776 10.7629 31.1168 10.6665C29.718 9.87863 28.3031 9.05864 26.7596 8.17434ZM6.54927 32.6615C7.64259 32.6132 8.65551 32.3238 9.57197 31.7129C9.92569 31.4878 10.0061 31.2466 9.86138 30.8607C9.39511 29.5584 8.02847 28.5776 6.58143 28.5615C5.15046 28.5454 3.76774 29.5101 3.28539 30.8286C3.12461 31.2627 3.23716 31.5038 3.60695 31.745C4.50733 32.3238 5.48811 32.5972 6.54927 32.6615ZM37.3551 8.27081C36.5512 8.60845 36.5512 8.60845 36.5512 9.38021C36.5512 11.4221 36.5512 11.4221 34.7665 12.3708C34.7505 12.3868 34.7183 12.4029 34.7022 12.4029C33.9787 12.7727 33.5607 12.5315 33.5124 11.7437C33.4964 11.3418 33.5124 10.9237 33.5124 10.5057C32.8532 10.6343 32.6603 10.9559 32.6925 11.4865C32.7246 12.3386 32.6924 13.2068 32.7085 14.059C32.7246 14.7343 32.6281 15.4095 32.7889 16.1652C34.252 15.3291 35.6348 14.5092 37.0175 13.7374C37.2908 13.5766 37.3551 13.3676 37.3551 13.0782C37.3551 11.5025 37.3551 9.92687 37.3551 8.27081ZM20.6338 6.24496C20.6338 8.01356 20.6499 9.62138 20.6177 11.2292C20.6016 11.7116 20.7946 11.808 21.2287 11.7919C22.4828 11.7276 23.7208 11.5508 24.9428 11.3096C25.2482 11.2453 25.409 11.1488 25.2 10.8433C24.0102 9.04257 22.5632 7.51514 20.6338 6.24496ZM20.6338 33.7226C22.5471 32.4364 23.9941 30.9411 25.1839 29.1725C25.3608 28.8992 25.3447 28.7384 25.0071 28.6741C23.7208 28.4168 22.4345 28.2239 21.1322 28.1756C20.7303 28.1596 20.6338 28.3203 20.6338 28.6901C20.6499 30.298 20.6338 31.9219 20.6338 33.7226ZM19.3475 6.24496C17.4503 7.51514 16.0033 9.01041 14.8295 10.7469C14.6688 10.972 14.5562 11.197 14.9582 11.2774C16.2766 11.5347 17.595 11.7437 18.9295 11.7759C19.235 11.7759 19.3475 11.6633 19.3475 11.3578C19.3475 9.71785 19.3475 8.0618 19.3475 6.24496ZM19.3475 33.7066C19.3475 31.9379 19.3315 30.3301 19.3475 28.7223C19.3475 28.3203 19.2671 28.1435 18.8169 28.1596C17.5307 28.2239 16.2605 28.4007 15.0064 28.658C14.6848 28.7223 14.5884 28.867 14.7974 29.1564C15.9872 30.925 17.4342 32.4364 19.3475 33.7066ZM29.509 30.314C28.689 29.8478 27.9172 29.5423 27.0972 29.2529C26.8561 29.1725 26.6953 29.1725 26.5666 29.3976C25.618 30.9572 24.3961 32.3077 23.0938 33.594C25.5376 33.1277 27.6439 32.0505 29.509 30.314ZM16.8715 6.3575C14.4437 6.85593 12.3374 7.91709 10.4724 9.65354C11.3245 10.1037 12.0963 10.4414 12.9002 10.7147C13.1574 10.7951 13.286 10.7629 13.4307 10.5539C14.3794 8.99433 15.5852 7.64376 16.8715 6.3575ZM28.9623 16.326C29.0749 17.3068 29.1552 18.1428 29.2356 18.995C29.2678 19.3326 29.4768 19.3487 29.7341 19.3487C30.554 19.3487 31.3901 19.3487 32.2101 19.3487C34.3163 19.3487 34.3163 19.3487 33.7215 17.2425C33.4803 17.2103 33.3034 17.355 33.1426 17.4836C32.4191 18.0624 31.7438 18.0624 30.9882 17.4997C30.4093 17.0495 29.718 16.7601 28.9623 16.326ZM16.8715 33.594C15.5691 32.3077 14.3794 30.9572 13.4147 29.4137C13.1574 28.9956 12.9162 29.1725 12.7876 29.4941C12.5625 30.0729 12.3053 30.6195 11.9516 31.118C11.7586 31.3913 11.9194 31.4878 12.1123 31.6164C13.5594 32.5972 15.1029 33.3046 16.8715 33.594ZM6.5975 24.3651C5.84183 24.333 5.15046 24.9922 5.11831 25.7639C5.08615 26.5678 5.66497 27.211 6.46888 27.2431C7.32102 27.2753 7.98023 26.6643 7.99631 25.8443C8.01239 25.0725 7.36926 24.3812 6.5975 24.3651ZM36.6316 7.01671C35.281 6.22888 33.9466 5.48928 32.6603 4.70145C32.1619 4.39596 31.8081 4.37988 31.374 4.91046C32.7085 5.68222 34.0591 6.43789 35.3614 7.24181C35.8277 7.51514 36.1814 7.48298 36.6316 7.01671ZM27.5153 7.11318C28.8658 7.88493 30.2003 8.60845 31.4705 9.41236C32.0011 9.73393 32.3709 9.70177 32.805 9.23551C31.4705 8.46375 30.1521 7.72415 28.8498 6.93632C28.3674 6.63083 27.9815 6.56652 27.5153 7.11318ZM6.21163 20.6189C7.89984 20.651 9.39511 21.2459 10.81 22.2267C10.81 21.8569 10.7939 21.6157 10.81 21.3906C10.8582 20.7636 10.5849 20.5867 9.97393 20.6028C8.71983 20.651 7.46573 20.6189 6.21163 20.6189ZM22.9008 6.27711C23.8655 7.16141 24.6694 7.90101 25.4573 8.62453C25.4573 8.27081 25.4573 7.8367 25.4573 7.40259C25.4573 7.17749 25.4412 7.00063 25.1839 6.90416C24.5086 6.66299 23.8494 6.38966 22.9008 6.27711ZM29.5733 5.85908C31.1007 6.74338 32.5477 7.57945 33.9948 8.39944C34.1395 8.47983 34.3324 8.49591 34.4128 8.31905C34.4932 8.11003 34.252 8.06179 34.1395 7.99748C32.8693 7.25788 31.5991 6.51829 30.329 5.79477C30.1199 5.68222 29.9431 5.58575 29.5733 5.85908ZM34.7987 10.7951C35.5222 10.4735 35.1846 9.95902 35.2167 9.44452C34.5414 9.79824 34.8952 10.3127 34.7987 10.7951Z" fill="#C10016"/>
<path d="M11.4209 36.6168C14.331 38.096 17.2412 38.7392 20.3121 38.6909C23.8172 38.6427 27.0489 37.6619 30.0073 35.7969C30.2163 35.6682 30.4253 35.5235 30.6504 35.4753C30.972 35.411 31.2132 35.6039 31.3257 35.9094C31.4865 36.3274 31.2132 36.5525 30.9077 36.7615C29.332 37.7906 27.6438 38.5945 25.843 39.125C21.1804 40.4917 16.6142 40.2666 12.1283 38.3854C11.7585 38.2247 11.4691 38.0317 11.1958 38.5945C11.0029 38.9803 10.5044 38.9321 10.2472 38.5945C9.70052 37.9031 9.20209 37.1796 8.73583 36.4239C8.44642 35.9416 8.71975 35.5074 9.3468 35.4271C10.006 35.3467 10.6813 35.2984 11.3405 35.2502C11.7907 35.218 12.3213 35.1216 12.4177 35.7647C12.5303 36.4078 12.0158 36.5043 11.4209 36.6168Z" fill="#C10016"/>
<path d="M25.9395 2.27371C23.2383 1.3251 20.6015 1.14824 17.9164 1.40549C15.8263 1.6145 13.8326 2.2094 11.9353 3.10978C11.5334 3.30272 11.0832 3.4635 10.842 2.93292C10.5848 2.37018 11.0028 2.11293 11.4369 1.91999C15.9871 -0.186256 20.6819 -0.539977 25.5054 0.762359C25.7787 0.84275 26.0681 0.923141 26.3575 1.00353C26.4701 0.633733 26.3093 0.135309 26.872 0.022761C27.3704 -0.0897865 27.5955 0.296091 27.8367 0.601577C28.2226 1.08392 28.6085 1.56627 28.9622 2.06469C29.4606 2.73998 29.2998 3.15801 28.4959 3.30272C27.8367 3.43134 27.1775 3.51173 26.5183 3.57605C26.1646 3.6082 25.7305 3.73683 25.5054 3.3188C25.2963 2.90076 25.4893 2.54704 25.9395 2.27371Z" fill="#C10016"/>
<path d="M2.01515 11.2131C1.51672 11.197 1.13085 11.1327 1.05046 10.6664C0.970064 10.2484 1.29163 10.0394 1.59711 9.86254C2.20809 9.49274 2.81906 9.10686 3.46219 8.76922C4.07316 8.44766 4.52335 8.68883 4.55551 9.38019C4.58766 10.0716 4.57158 10.779 4.57158 11.4704C4.57158 11.8562 4.60374 12.2582 4.15355 12.4029C3.6712 12.5637 3.41395 12.2421 3.20494 11.7758C1.91868 14.3966 1.29163 17.0656 1.30771 19.8793C1.30771 20.5706 1.32378 21.2781 1.37202 21.9694C1.3881 22.4035 1.29163 22.7573 0.841438 22.8055C0.343014 22.8698 0.117919 22.4839 0.0857622 22.0498C-0.0107071 20.5867 -0.0428636 19.1075 0.117919 17.6444C0.391248 15.4417 1.00222 13.3194 2.01515 11.2131Z" fill="#C10016"/>
<path d="M38.979 26.3268C39.3809 26.359 39.799 26.2946 39.9276 26.777C40.0401 27.2272 39.7668 27.4683 39.4613 27.7095C38.9307 28.1276 38.4323 28.5617 37.9017 28.9797C37.2908 29.446 36.8567 29.2852 36.6959 28.5456C36.5512 27.8703 36.4869 27.1789 36.3421 26.4876C36.2457 26.0535 36.2296 25.6515 36.6959 25.4747C37.13 25.3139 37.4515 25.555 37.6284 26.1339C38.2394 24.5582 38.5288 23.079 38.6253 21.5676C38.7378 19.8634 38.7217 18.143 38.3519 16.4548C38.2555 16.0207 38.3519 15.6187 38.8343 15.5062C39.3327 15.4097 39.5417 15.7313 39.6221 16.1975C40.2652 19.6061 40.0562 22.9504 38.979 26.3268Z" fill="#C10016"/>
</svg>
