<svg width="50" height="50" viewBox="0 0 50 50" fill="none" xmlns="http://www.w3.org/2000/svg">
<path d="M24.2553 29.1873C24.0106 28.7087 23.706 28.8555 23.4668 28.8229C21.8026 28.6108 20.753 27.2621 21.0739 25.6089C21.1936 24.9889 21.0522 24.8149 20.4648 24.853C19.7035 24.9019 19.4587 24.4723 19.5022 23.7762C19.524 23.439 19.5349 23.0964 19.4859 22.7647C19.3717 22.0414 18.9312 21.5846 18.1916 21.6009C17.5064 21.6117 17.0985 22.0577 16.9626 22.732C16.9517 22.7973 16.9517 22.868 16.9408 22.9333C16.7505 24.8584 16.7505 24.8584 14.7981 24.8584C13.8192 24.8584 12.8458 24.8367 11.8669 24.8638C11.1164 24.8856 10.752 24.6082 10.752 23.8088C10.7684 19.5289 10.7738 15.249 10.752 10.969C10.7466 10.0771 11.2197 9.90856 11.9702 9.914C15.7118 9.93031 19.4479 9.91943 23.1894 9.91943C23.7115 9.91943 24.2988 10.0554 24.3641 9.22333C24.3913 8.88072 24.7339 8.77739 25.0602 8.77196C25.43 8.76652 25.7998 8.78283 26.1696 8.76108C26.9908 8.7067 27.5455 8.28795 27.5292 7.44501C27.5128 6.6619 26.9799 6.26491 26.2022 6.19421C24.2662 6.01474 24.2662 6.01474 24.2662 4.05696C24.2662 3.04544 24.2825 2.03392 24.2662 1.0224C24.2607 0.299106 24.6034 0 25.3212 0C29.6011 0.0108766 33.8811 0.00543829 38.161 0.00543829C38.5689 0.00543829 39.1127 0.0108766 39.1345 0.500322C39.1671 1.278 39.6185 1.40308 40.2167 1.49009C40.7768 1.57166 41.1793 1.95234 41.5599 2.33302C42.3974 3.16508 43.224 4.00258 44.0615 4.83464C44.5945 5.36215 45.0404 5.47635 45.6386 4.79113C46.5523 3.74698 47.8357 4.09503 48.9506 4.32344C49.9893 4.54097 49.9675 5.51442 49.9675 6.37911C49.9566 8.33145 49.9784 10.2892 49.9566 12.2416C49.9458 13.5685 49.44 14.0634 48.1076 14.0634C47.0852 14.0634 45.9813 14.3136 45.3232 13.128C45.2471 12.9921 44.8283 13.0193 44.5673 13.0138C42.9521 12.9866 41.3315 12.9975 39.7218 12.9268C39.1453 12.8996 39.2378 13.2259 39.216 13.5522C39.1236 14.9281 39.1236 14.9281 37.7368 14.9335C37.2963 14.9335 36.8613 14.9281 36.4208 14.9335C35.8497 14.939 35.2135 14.803 34.724 15.0042C34.1856 15.2272 34.4902 15.9668 34.2889 16.4508C33.8376 17.5765 32.6792 18.3433 31.5045 18.2128C30.2429 18.0714 29.177 17.1578 29.1063 15.8689C29.0519 14.8465 28.6168 14.803 27.7467 15.0314C28.7473 15.9559 29.2477 16.9783 28.8343 18.2998C28.6929 18.7566 29.1063 18.6805 29.3401 18.6588C30.2646 18.5772 30.5474 19.0449 30.4658 19.8769C30.4441 20.0782 30.4604 20.2794 30.4658 20.4806C30.493 21.2909 30.8519 21.8782 31.7112 21.9C32.5759 21.9272 32.9566 21.3561 33.0273 20.5458C33.2013 18.6588 33.2013 18.6588 35.0993 18.6588C36.1434 18.6588 37.1875 18.6805 38.2317 18.6533C38.9224 18.637 39.2106 18.947 39.2106 19.6213C39.2052 23.9339 39.1997 28.2465 39.216 32.559C39.2215 33.4455 38.7375 33.6195 37.987 33.614C34.2781 33.5977 30.5746 33.6195 26.8657 33.5977C26.1043 33.5923 25.5333 33.6086 25.6693 34.631C25.74 35.1857 25.3919 35.4957 24.7991 35.4848C24.3967 35.4739 23.9834 35.4468 23.5864 35.5066C22.8577 35.6099 22.4063 36.0613 22.4226 36.8009C22.4335 37.4861 22.8794 37.894 23.5538 38.0299C23.619 38.0408 23.6897 38.0462 23.755 38.0517C25.691 38.2475 25.691 38.2475 25.691 40.1944C25.691 41.0699 25.6965 41.9455 25.691 42.8211C25.6856 44.1589 25.6203 44.2241 24.2336 44.2241C22.5477 44.2296 20.8618 44.235 19.1814 44.2187C18.7191 44.2133 18.3983 44.3982 18.0122 44.6538C15.8314 46.1112 13.5854 47.4817 11.1871 48.5585C9.92542 49.124 8.52235 48.7814 7.18453 48.8358C6.58088 48.863 5.97179 48.8521 5.3627 48.8358C4.94395 48.8249 4.63941 48.8902 4.35662 49.2981C3.8998 49.9507 1.92027 50.2063 0.946814 49.8147C0.0114283 49.434 -0.00488652 48.6128 0.000551761 47.7808C0.00599005 45.8937 -0.00488652 44.0066 0.00599005 42.1195C0.0114283 40.4826 0.4193 40.0693 2.02903 40.0747C2.98073 40.0802 3.96506 39.8844 4.6231 40.972C4.87326 41.3854 5.46603 41.1406 5.84127 40.76C6.68964 39.8953 7.55977 39.0469 8.41358 38.1822C8.82145 37.7689 9.27283 37.323 9.85473 37.323C10.7629 37.323 10.7738 36.8226 10.7629 36.1537C10.7357 34.37 10.752 32.5808 10.752 30.797C10.752 29.345 10.8119 29.2852 12.3183 29.2852C13.1612 29.2852 14.0041 29.2689 14.8471 29.2906C15.2984 29.3015 15.4616 29.1601 15.5323 28.6761C15.7607 26.9793 16.8375 25.9733 18.2732 26.0059C19.6926 26.0385 20.6715 27.0337 20.9216 28.6761C20.9543 28.8936 20.8564 29.2308 21.1827 29.2417C22.1888 29.3015 23.2003 29.4103 24.2553 29.1873ZM37.7912 26.0875C37.7912 24.9454 37.7912 23.7979 37.7912 22.6559C37.7912 19.9639 37.7912 19.9639 35.1319 20.1053C35.0993 20.1053 35.0666 20.1108 35.0286 20.1053C34.5881 20.051 34.501 20.2739 34.4412 20.6818C34.2074 22.4057 33.1959 23.3738 31.7275 23.3629C30.2537 23.352 29.3129 22.4003 29.0464 20.6437C29.0138 20.4262 29.1008 20.1217 28.7419 20.1217C27.8011 20.1162 26.7678 19.8932 25.9521 20.2195C25.3538 20.4588 25.7943 21.503 25.7073 22.1828C25.6801 22.4166 25.7019 22.6559 25.7019 22.8897C25.7019 24.7442 25.7019 24.7388 23.8964 24.8638C23.7604 24.8747 23.6299 24.8802 23.4939 24.9074C22.7978 25.0433 22.4117 25.4947 22.4335 26.1745C22.4552 26.8543 22.8685 27.2948 23.5646 27.3872C23.8964 27.4307 24.239 27.4253 24.5707 27.4035C25.4082 27.3383 25.7291 27.7353 25.7073 28.5401C25.6801 29.4809 25.7345 30.4272 25.691 31.368C25.6584 32.0369 25.914 32.2273 26.5666 32.2218C30.0308 32.1947 33.495 32.1947 36.9646 32.2218C37.6607 32.2273 37.813 31.9608 37.8021 31.3354C37.7695 29.5897 37.7912 27.8386 37.7912 26.0875ZM12.1878 17.3862C12.1878 18.5663 12.1878 19.741 12.1878 20.9211C12.1878 23.5641 12.1878 23.5532 14.8036 23.4445C15.293 23.4227 15.4779 23.3194 15.5432 22.7755C15.7335 21.1658 16.8157 20.1543 18.2188 20.1488C19.6273 20.1434 20.7422 21.1821 20.9053 22.7592C20.9597 23.2867 21.1174 23.4173 21.6232 23.439C24.2716 23.5532 24.2716 23.5695 24.2716 20.9428C24.2716 18.9144 24.2716 18.9144 26.2729 18.6696C26.3382 18.6588 26.4089 18.6588 26.4741 18.6424C27.143 18.4739 27.5618 18.0497 27.5455 17.3644C27.5292 16.6792 27.0995 16.2496 26.4197 16.1354C26.0608 16.0756 25.6801 16.081 25.3103 16.1082C24.5762 16.1571 24.2607 15.8145 24.2716 15.0967C24.2825 14.1232 24.2499 13.1443 24.2825 12.1709C24.3043 11.5835 24.1302 11.3334 23.4939 11.3388C19.9917 11.3606 16.4949 11.366 12.9926 11.3334C12.2802 11.3279 12.166 11.6325 12.1769 12.2361C12.2041 13.9546 12.1878 15.6731 12.1878 17.3862ZM12.1878 36.5018C12.1878 38.1496 12.2095 39.7974 12.1769 41.4452C12.1606 42.2011 12.3944 42.2283 12.9654 41.8694C13.6724 41.418 14.4011 40.9884 15.1516 40.6131C16.3861 39.9932 18.0339 40.3684 18.42 41.6083C18.8279 42.9135 19.6164 42.8754 20.6008 42.8265C21.0685 42.8047 21.5416 42.8211 22.0147 42.8211C24.2879 42.8211 24.2716 42.8211 24.2825 40.5587C24.2879 39.8681 24.2118 39.5037 23.3471 39.4276C21.9277 39.3079 20.9488 38.0734 20.9815 36.7411C21.0141 35.3924 22.0202 34.2503 23.445 34.1252C24.103 34.0709 24.2825 33.8805 24.2879 33.2388C24.3151 30.7318 24.3369 30.7426 21.8407 30.7209C21.1446 30.7154 20.3561 30.9765 19.7742 30.5197C19.214 30.0792 19.6001 29.3124 19.4968 28.6978C19.4914 28.6652 19.4914 28.6326 19.4859 28.5999C19.35 27.9256 18.9421 27.4851 18.2569 27.4688C17.5173 27.4525 17.0768 27.9038 16.9626 28.6271C16.9082 28.9534 16.9136 29.3015 16.9408 29.6332C17.0006 30.4055 16.6635 30.7535 15.8858 30.7318C15.0809 30.71 14.2652 30.7916 13.4657 30.71C12.4869 30.6176 12.0844 30.8786 12.1606 31.9554C12.2693 33.4726 12.1878 34.9899 12.1878 36.5018ZM37.7912 6.41174C37.7912 4.93796 37.7586 3.63821 37.8075 2.33846C37.8347 1.63692 37.6063 1.40852 36.8993 1.41939C34.0062 1.45202 31.113 1.43571 28.2144 1.43571C25.5605 1.43571 25.5768 1.43571 25.6965 4.06784C25.7182 4.55728 25.827 4.74762 26.3654 4.80201C27.9642 4.97059 28.9866 6.06369 28.9921 7.4722C28.9975 8.87528 27.986 9.96838 26.3817 10.1696C25.8705 10.2349 25.7128 10.3762 25.6856 10.8874C25.5551 13.5196 25.5387 13.5196 28.1981 13.5196C30.232 13.5196 30.232 13.5196 30.4713 15.5372C30.4767 15.5698 30.4713 15.6024 30.4767 15.6405C30.6127 16.3638 31.0368 16.8152 31.7765 16.7989C32.4671 16.788 32.8913 16.3529 33.0001 15.6731C33.0599 15.3088 33.049 14.9335 33.0273 14.5637C32.9838 13.8296 33.3318 13.5141 34.0442 13.5196C34.9524 13.525 35.8606 13.5468 36.7688 13.5033C37.1114 13.4869 37.6389 13.7752 37.764 13.1443C37.8728 12.6005 37.7151 12.209 37.1712 11.9098C35.7247 11.1267 34.3107 10.2784 32.8859 9.45174C31.2381 8.4946 30.6997 7.04258 31.4937 5.69932C32.2985 4.35607 33.7777 4.1331 35.4691 5.09567C36.1869 5.50898 36.9102 5.91142 37.7912 6.41174ZM42.4301 11.5944C43.137 11.5944 43.844 11.5672 44.551 11.6053C45.1383 11.6379 45.3124 11.3878 45.3015 10.8331C45.2743 9.78891 45.2525 8.74476 45.3069 7.70061C45.345 6.99907 45.1655 6.63471 44.3987 6.63471C43.8603 6.63471 43.4796 6.26491 43.1153 5.90054C42.2125 4.99235 41.3098 4.08959 40.3961 3.19227C40.1297 2.9258 39.7871 2.68651 39.4118 2.8551C39.0801 3.00193 39.2269 3.39349 39.2215 3.68172C39.2052 4.7585 39.216 5.83528 39.216 6.91206C39.2106 8.52723 38.8952 8.71757 37.5356 7.93446C36.6002 7.39607 35.6757 6.85224 34.7403 6.31929C33.756 5.75371 33.0273 5.79177 32.7282 6.46612C32.3312 7.358 32.875 7.82569 33.5874 8.22269C34.6751 8.8209 35.779 9.40824 36.8177 10.0935C38.5362 11.2246 40.3309 11.937 42.4301 11.5944ZM7.72836 47.4382C8.93566 47.3729 10.3224 47.6448 11.6059 46.8563C13.2428 45.8556 14.9178 44.9257 16.5873 43.9849C17.2725 43.5987 17.6315 43.0495 17.229 42.3262C16.8157 41.5811 16.1523 41.6518 15.4888 42.0434C14.3576 42.7069 13.2319 43.3758 12.079 44.0066C11.2415 44.4689 10.7955 44.2133 10.7738 43.2616C10.7466 42.0488 10.7792 40.8361 10.7575 39.6288C10.752 39.3188 10.9424 38.8892 10.5236 38.7369C10.143 38.5955 9.81666 38.8294 9.53931 39.1067C8.63655 40.0149 7.72836 40.9122 6.8256 41.8204C6.40685 42.2392 5.93916 42.5818 5.33007 42.5546C4.74818 42.5274 4.67204 42.8211 4.68292 43.2942C4.69923 44.371 4.7373 45.4532 4.67204 46.5245C4.62309 47.324 4.94395 47.5089 5.66181 47.449C6.29265 47.3947 6.93437 47.4382 7.72836 47.4382ZM46.7209 9.08194C46.7209 10.0554 46.7535 11.0343 46.71 12.0023C46.6828 12.6821 47.0798 12.6875 47.5475 12.644C47.9608 12.6059 48.5481 12.8779 48.5373 12.0621C48.5209 10.1152 48.5209 8.16287 48.5373 6.21596C48.5427 5.42741 47.9826 5.63406 47.5529 5.60143C47.0744 5.56337 46.6882 5.596 46.7154 6.25947C46.7481 7.20029 46.7209 8.14111 46.7209 9.08194ZM3.25809 44.9909C3.25809 44.0501 3.22546 43.1093 3.26896 42.1685C3.30159 41.4071 2.80127 41.5159 2.33358 41.505C1.83325 41.4887 1.41451 41.4724 1.43082 42.2011C1.46889 44.0827 1.46345 45.959 1.43626 47.8406C1.42538 48.5856 1.88764 48.5095 2.36621 48.5204C2.8774 48.5313 3.30159 48.5204 3.26896 47.8025C3.22546 46.8726 3.25809 45.9318 3.25809 44.9909Z" fill="white"/>
</svg>
