<svg width="15" height="21" viewBox="0 0 15 21" fill="none" xmlns="http://www.w3.org/2000/svg">
<path d="M8.39844 19.5312C7.92969 20.1172 7.03125 20.1172 6.5625 19.5312C4.57031 16.9922 0 10.9375 0 7.5C0 3.35938 3.35938 0 7.5 0C11.6406 0 15 3.35938 15 7.5C15 10.9375 10.4297 16.9922 8.39844 19.5312ZM7.5 5C6.60156 5 5.78125 5.50781 5.3125 6.25C4.88281 7.03125 4.88281 8.00781 5.3125 8.75C5.78125 9.53125 6.60156 10 7.5 10C8.35938 10 9.17969 9.53125 9.64844 8.75C10.0781 8.00781 10.0781 7.03125 9.64844 6.25C9.17969 5.50781 8.35938 5 7.5 5Z" fill="white"/>
</svg>
