<svg width="20" height="15" viewBox="0 0 20 15" fill="none" xmlns="http://www.w3.org/2000/svg">
<path d="M12.8853 8.70283C8.66591 8.66986 4.53168 8.63841 0.0365942 8.57921C0.200283 7.58158 -0.0996152 7.10565 0.0366909 6.21398C4.20865 6.33126 8.82717 6.22458 13.3399 6.34797C12.031 4.25956 11.3263 2.41614 11.9336 0.00014165C12.5476 0.0750008 13.1841 0.128975 13.9259 0.206122C13.8145 4.01474 15.5172 6.3018 19.8394 6.40048C19.7329 7.14367 19.6514 7.82343 19.5425 8.60915C15.4934 8.57923 13.4123 10.6708 13.0935 14.7525C12.3918 14.7186 11.7529 14.7072 11.1365 14.6748C10.8651 12.7114 10.8973 12.5204 12.8853 8.70283Z" fill="white"/>
</svg>
