<svg width="50" height="50" viewBox="0 0 50 50" fill="none" xmlns="http://www.w3.org/2000/svg">
<path d="M25.0397 49.9976C22.0796 49.9976 19.1157 50.005 16.1555 49.9939C13.8647 49.9864 12.5185 48.6402 12.511 46.3531C12.5036 43.0992 12.4887 39.8452 12.5259 36.5912C12.5333 35.9479 12.3288 35.6987 11.7189 35.5425C9.64009 35.0107 7.57986 34.4306 5.51592 33.8504C3.92426 33.4042 3.34412 32.6232 3.34412 30.9535C3.34041 26.6248 3.33297 22.2961 3.35156 17.9711C3.35528 17.3649 3.27347 17.0228 2.58548 16.7736C0.279814 15.9443 -0.668486 13.3895 0.502944 11.2437C1.39174 9.61859 2.39582 8.05668 3.32925 6.45759C3.56354 6.05596 3.9131 5.87745 4.33333 5.75845C10.9268 3.88788 17.5203 2.01359 24.1138 0.13187C24.6939 -0.0317582 25.2666 -0.0503523 25.843 0.116995C32.4662 1.99872 39.0932 3.88416 45.7164 5.75845C46.185 5.89233 46.5085 6.14521 46.7539 6.56543C47.6242 8.05296 48.539 9.51446 49.3943 11.0094C50.7219 13.3337 49.822 15.8625 47.3043 16.8145C46.7614 17.019 46.6647 17.298 46.6647 17.8074C46.6796 22.1696 46.6759 26.5281 46.6721 30.8903C46.6721 32.653 46.0883 33.4265 44.3739 33.9025C42.4029 34.4529 40.4357 35.0219 38.4461 35.5053C37.7209 35.6801 37.468 35.9553 37.4792 36.7251C37.5275 39.9121 37.5052 43.1029 37.4978 46.2936C37.4941 48.6588 36.1665 49.9901 33.8162 49.9976C30.8969 50.0013 27.9665 49.9976 25.0397 49.9976ZM14.1919 36.2007C14.1919 39.5514 14.1845 42.8983 14.1957 46.249C14.1994 47.7626 14.7423 48.3092 16.2559 48.3129C22.0758 48.3204 27.8995 48.3204 33.7195 48.3129C35.2851 48.3129 35.8243 47.77 35.828 46.1969C35.8355 39.5625 35.8355 32.9282 35.828 26.2938C35.828 24.7133 35.2925 24.1927 33.7158 24.1889C27.9255 24.1852 22.1391 24.1852 16.3488 24.1889C14.7051 24.1889 14.1994 24.6984 14.1957 26.3459C14.1882 29.6296 14.1919 32.917 14.1919 36.2007ZM7.68771 6.55428C7.69887 6.63237 7.7063 6.70675 7.71746 6.78484C13.3106 8.35419 18.9074 9.92725 24.5005 11.5003C24.9654 11.6305 25.393 11.5301 25.8356 11.4036C29.1156 10.4739 32.3993 9.55537 35.683 8.63682C37.9143 8.01206 40.1493 7.39101 42.6335 6.69931C42.1166 6.51337 41.86 6.40181 41.5922 6.32743C36.4379 4.86221 31.2799 3.40815 26.1331 1.92806C25.3856 1.71237 24.6939 1.69749 23.9427 1.91691C20.0788 3.04371 16.2001 4.13332 12.3288 5.23781C10.7781 5.67664 9.23102 6.11546 7.68771 6.55428ZM1.71156 12.999C1.72644 14.1741 2.28426 14.9737 3.37388 15.2824C8.24925 16.6695 13.1283 18.0268 18.0149 19.3842C19.0041 19.6594 19.8669 19.3322 20.4061 18.4954C21.4622 16.8554 22.4291 15.1596 23.4444 13.4936C23.701 13.0771 23.5559 12.9507 23.1394 12.8502C22.3808 12.668 21.637 12.43 20.8858 12.2218C15.7576 10.7826 10.6219 9.36199 5.50104 7.88934C4.76843 7.67736 4.40771 7.81124 4.05814 8.48435C3.47428 9.60743 2.78258 10.6747 2.12435 11.7606C1.86403 12.1883 1.7004 12.6346 1.71156 12.999ZM48.3084 12.9767C48.2787 12.8354 48.2898 12.5118 48.1522 12.2738C47.3378 10.8346 46.4825 9.41777 45.6532 7.98602C45.4486 7.63274 45.1883 7.72943 44.902 7.81124C38.9072 9.49215 32.9125 11.1805 26.9103 12.8391C26.2818 13.0139 26.4157 13.2444 26.6537 13.6349C27.3343 14.7394 27.9962 15.8588 28.6619 16.9707C30.3577 19.7933 30.4543 19.8379 33.6414 18.9491C37.8585 17.774 42.0757 16.5951 46.2891 15.4125C47.6427 15.0295 48.2973 14.2746 48.3084 12.9767ZM26.0327 15.8551C25.9657 15.8848 25.8988 15.9146 25.8318 15.9443C25.8318 17.8298 25.8728 19.7152 25.8133 21.6006C25.7872 22.3816 26.0847 22.508 26.7727 22.4969C29.1156 22.4597 31.4547 22.4746 33.7976 22.4857C36.1516 22.4969 37.5015 23.8394 37.5127 26.1674C37.5201 28.5102 37.5275 30.8493 37.5052 33.1922C37.5015 33.7909 37.535 34.0773 38.2862 33.8467C40.1493 33.274 42.031 32.7645 43.9202 32.2997C44.7458 32.0989 45.0061 31.6712 45.0024 30.8568C44.9763 26.7252 44.9763 22.5973 45.0024 18.4657C45.0061 17.7256 44.8871 17.5174 44.0913 17.7479C40.3501 18.8376 36.5941 19.8677 32.8381 20.9052C30.6254 21.5151 29.0747 20.8755 27.8772 18.9008C27.2599 17.8893 26.6463 16.8703 26.0327 15.8551ZM24.1881 15.9257C24.1175 15.9071 24.0468 15.8885 23.9762 15.8699C23.4072 16.8108 22.8419 17.7517 22.2767 18.6925C20.9081 20.9684 19.4355 21.5486 16.8546 20.8234C13.1655 19.7896 9.47646 18.7595 5.78739 17.7182C5.38204 17.6029 5.02875 17.4318 5.02875 18.1161C5.03991 22.508 5.03619 26.8962 5.03991 31.2882C5.03991 31.7344 5.2556 32.0505 5.67583 32.1658C7.922 32.7869 10.1682 33.393 12.511 34.0289C12.511 31.3811 12.5073 28.8486 12.511 26.3124C12.5147 23.7836 13.8238 22.482 16.3674 22.4783C18.7103 22.4746 21.0494 22.4746 23.3923 22.482C23.846 22.482 24.2104 22.5006 24.1993 21.8461C24.1658 19.8751 24.1881 17.9004 24.1881 15.9257Z" fill="white"/>
<path d="M28.3941 38.3094C29.6585 38.3094 30.9266 38.3131 32.191 38.3094C32.7712 38.3057 33.2881 38.4767 33.3104 39.1201C33.3364 39.8267 32.8121 40.02 32.1836 40.0163C29.6176 40.0126 27.0553 40.0126 24.4893 40.0163C23.9129 40.0163 23.4034 39.8713 23.3774 39.2093C23.3477 38.4805 23.8795 38.3094 24.4968 38.3094C25.7984 38.3131 27.0962 38.3094 28.3941 38.3094Z" fill="white"/>
<path d="M28.4276 28.3243C29.692 28.3243 30.9601 28.3318 32.2245 28.3206C32.8196 28.3169 33.303 28.5103 33.3142 29.1536C33.329 29.8044 32.8344 30.0164 32.2469 30.0164C29.6511 30.0201 27.0554 30.0201 24.4596 30.0164C23.8907 30.0164 23.3737 29.8528 23.3775 29.1797C23.3812 28.4545 23.9167 28.3169 24.534 28.3206C25.8319 28.3318 27.1298 28.3243 28.4276 28.3243Z" fill="white"/>
<path d="M28.2268 34.9848C26.9624 34.9848 25.698 34.9773 24.4336 34.9885C23.8386 34.9922 23.3738 34.8174 23.3812 34.1406C23.3886 33.5196 23.8312 33.3411 24.3816 33.3448C27.0405 33.3485 29.6995 33.3485 32.3584 33.3448C32.9348 33.3448 33.3328 33.5939 33.3142 34.189C33.2956 34.784 32.8791 34.9922 32.3101 34.9885C30.949 34.9773 29.5879 34.9848 28.2268 34.9848Z" fill="white"/>
<path d="M28.4462 43.3372C29.7106 43.3372 30.975 43.3483 32.2431 43.3335C32.8381 43.326 33.3178 43.5083 33.3178 44.1665C33.3178 44.8322 32.8158 44.9921 32.2356 44.9883C29.6399 44.9846 27.0442 44.9846 24.4522 44.9883C23.8757 44.9883 23.3774 44.847 23.3848 44.1591C23.3923 43.4822 23.8757 43.3298 24.4633 43.3372C25.7835 43.3446 27.1148 43.3372 28.4462 43.3372Z" fill="white"/>
<path d="M18.3943 35.8029C17.7658 35.7843 16.6911 34.691 16.6985 34.1592C16.7097 33.5567 17.3419 33.1105 17.8737 33.4712C18.4092 33.8356 18.61 33.553 18.9075 33.2555C19.3649 32.7944 19.8186 32.3295 20.2983 31.8907C20.6293 31.5895 21.0235 31.5895 21.3582 31.887C21.6817 32.1733 21.8305 32.5861 21.5181 32.9245C20.633 33.8691 19.7033 34.7765 18.7736 35.6802C18.6732 35.7806 18.4761 35.7806 18.3943 35.8029Z" fill="white"/>
<path d="M18.4238 45.8214C17.8474 45.8251 16.7057 44.6983 16.6946 44.1925C16.6797 43.6012 17.3268 43.1141 17.8363 43.4488C18.3867 43.8095 18.6247 43.5529 18.9482 43.2145C19.3759 42.7682 19.8072 42.3257 20.2647 41.9129C20.6291 41.5894 21.0419 41.5856 21.4026 41.9315C21.7262 42.2439 21.7931 42.6529 21.4844 42.9802C20.6142 43.8987 19.7068 44.7801 18.7994 45.6652C18.6953 45.773 18.5057 45.7916 18.4238 45.8214Z" fill="white"/>
<path d="M21.6631 27.4577C21.6668 27.7887 21.4995 28.023 21.2875 28.2312C20.5549 28.9676 19.8223 29.7002 19.086 30.4365C18.7364 30.7861 18.3087 31.0464 17.8922 30.6559C17.3976 30.1948 16.5832 29.8601 16.7505 28.9973C16.8696 28.3874 17.3753 28.1271 17.9369 28.4953C18.3496 28.7668 18.5542 28.6366 18.8257 28.3428C19.2682 27.8705 19.7405 27.4205 20.2016 26.9668C20.488 26.6842 20.8301 26.6322 21.1871 26.7846C21.4809 26.9073 21.6185 27.1639 21.6631 27.4577Z" fill="white"/>
<path d="M21.6631 37.4576C21.6668 37.7923 21.492 38.0229 21.2838 38.2311C20.5512 38.9637 19.8148 39.6963 19.0822 40.4327C18.7289 40.7897 18.3013 41.0239 17.8885 40.6483C17.3902 40.1909 16.5981 39.86 16.7468 38.9898C16.8361 38.4728 17.3158 38.1381 17.7621 38.4319C18.3943 38.8447 18.6769 38.4989 19.045 38.1195C19.4504 37.6993 19.8669 37.2902 20.2946 36.8961C20.5586 36.6506 20.8896 36.6395 21.202 36.7845C21.4846 36.9109 21.6259 37.1638 21.6631 37.4576Z" fill="white"/>
</svg>
