<svg width="40" height="29" viewBox="0 0 40 29" fill="none" xmlns="http://www.w3.org/2000/svg">
<path d="M24.2894 16.0071C24.5183 15.643 24.4226 15.3329 24.4247 15.0437C24.433 11.0026 24.4288 6.96144 24.4309 2.92031C24.433 1.52819 24.9949 0.962181 26.3766 0.930967C29.4834 0.862298 29.8683 0.985071 29.8142 4.30828C29.7393 8.87171 29.8142 13.4393 29.7768 18.0027C29.7705 18.7519 29.9974 18.9225 30.709 18.9121C33.4225 18.8725 36.1381 18.8996 38.8516 18.8934C39.3677 18.8934 39.9482 18.8809 39.9212 19.5738C39.8962 20.2668 40.3686 21.1803 39.2574 21.5299C36.4669 22.4059 33.6847 23.309 30.8838 24.1581C29.9911 24.4286 29.0443 24.2434 28.1225 24.2496C27.6501 24.2538 27.4545 24.3786 27.3067 24.8656C26.67 26.9506 24.9907 28.1929 22.9327 28.195C20.8684 28.1971 19.16 26.9444 18.542 24.8864C18.3984 24.4057 18.2194 24.2455 17.7325 24.2538C16.1905 24.2787 14.6486 24.2808 13.1066 24.2538C12.6384 24.2455 12.4241 24.3661 12.2722 24.8468C11.5917 26.9735 9.97486 28.1888 7.91684 28.1971C5.81305 28.2054 4.19618 26.9943 3.49491 24.8156C3.35133 24.3682 3.13908 24.2683 2.71041 24.2538C0.612858 24.1872 0.00523305 23.5359 0.00315214 21.4113C0.00315214 19.4989 -0.00517149 17.5865 0.00523305 15.6742C0.0156376 13.535 1.0332 12.1637 3.07041 11.6164C3.53237 11.4916 3.71341 11.2564 3.85075 10.8507C4.70808 8.31195 5.57582 5.77948 6.45188 3.24702C7.21766 1.03501 8.62643 0.0195301 10.957 0.00704461C13.3626 -0.00335993 15.7681 -0.00127902 18.1757 0.00704461C19.3327 0.0112064 19.8592 0.493977 19.9278 1.56773C20.0152 2.91615 19.6115 3.55291 18.4587 3.69649C17.9635 3.75892 17.9302 3.87545 18.0654 4.31244C18.7584 6.51612 19.4159 8.73021 20.0881 10.938C20.1401 11.1108 20.2025 11.4021 20.3024 11.4208C21.6592 11.6851 21.9089 13.0231 22.6684 13.8534C23.2615 14.5006 23.7338 15.258 24.2894 16.0071ZM13.9348 12.7401C11.9913 12.7401 10.0498 12.7505 8.1062 12.736C7.08656 12.7297 6.89928 12.455 7.23014 11.4832C8.08331 8.97784 8.94481 6.4745 9.80839 3.97117C10.2204 2.78089 10.6449 2.47916 11.9268 2.475C13.8995 2.46876 15.8742 2.475 17.8469 2.47292C18.2694 2.47292 18.7084 2.57697 18.7043 1.86321C18.7001 1.21813 18.3672 1.18484 17.8865 1.18692C15.5746 1.19732 13.2606 1.17651 10.9487 1.19732C9.17995 1.21397 8.17071 1.9735 7.58182 3.6736C6.6683 6.32052 5.73605 8.96327 4.86831 11.6268C4.62693 12.3656 4.30647 12.7401 3.47619 12.8005C2.23597 12.8899 1.2954 13.9054 1.27042 15.1373C1.22256 17.4492 1.24962 19.7632 1.2517 22.0751C1.2517 22.6681 1.55967 23.0219 2.15897 23.0011C2.67712 22.9823 3.27434 23.282 3.52613 22.3685C4.08381 20.3438 5.81096 19.0994 7.82736 19.0827C9.90827 19.0661 11.5896 20.2855 12.243 22.3477C12.3929 22.8221 12.5552 23.0469 13.1087 23.0302C14.6486 22.9844 16.1926 22.999 17.7325 23.024C18.2194 23.0323 18.3942 22.8679 18.5399 22.3893C19.2536 20.0483 21.3512 18.7206 23.7546 19.1639C24.5912 19.3179 24.4309 18.8975 24.4184 18.448C24.4101 18.1463 24.1895 17.9507 24.0293 17.7301C22.9556 16.2631 21.8527 14.8148 20.8081 13.329C20.4814 12.8629 20.1193 12.7214 19.5762 12.7276C17.6971 12.7588 15.816 12.7422 13.9348 12.7401ZM8.53071 11.5103C11.9143 11.5103 15.1792 11.5061 18.4442 11.5145C19.0539 11.5165 18.8791 11.167 18.7813 10.8465C18.1237 8.66778 17.4495 6.49323 16.8106 4.3062C16.6712 3.82967 16.4278 3.69857 15.9575 3.70898C14.6319 3.73811 13.3064 3.74852 11.9809 3.7069C11.3857 3.68817 11.0944 3.89834 10.9154 4.45811C10.4784 5.83567 9.98943 7.19866 9.52538 8.5679C9.20076 9.52095 8.8803 10.474 8.53071 11.5103ZM28.5761 12.7193C28.5761 9.76234 28.5844 6.80537 28.574 3.8484C28.5678 2.05882 28.8549 2.1587 26.8302 2.09628C25.873 2.06714 25.6441 2.39801 25.6503 3.31569C25.692 8.55125 25.6795 13.7868 25.6587 19.0224C25.6566 19.6508 25.7877 20.1253 26.2746 20.556C26.7615 20.9868 27.0778 21.5715 27.2485 22.2062C27.3817 22.7056 27.5044 23.1675 28.189 23.0073C28.8549 22.8512 28.5615 22.3144 28.5636 21.9565C28.5865 18.8788 28.5761 15.7991 28.5761 12.7193ZM4.54577 23.6253C4.53745 25.4836 6.02322 26.9923 7.87106 27.0027C9.69186 27.0131 11.238 25.4794 11.2484 23.6545C11.2588 21.8316 9.72515 20.2855 7.9002 20.2792C6.05235 20.2709 4.5541 21.765 4.54577 23.6253ZM19.5845 23.5941C19.5658 25.4607 21.0203 26.9673 22.8765 27.0006C24.6994 27.0359 26.2496 25.521 26.2704 23.6857C26.2913 21.8378 24.8117 20.3125 22.968 20.2792C21.1285 20.2459 19.6032 21.7421 19.5845 23.5941ZM38.6997 20.144C38.3335 20.1211 38.0401 20.0899 37.7446 20.0878C35.7115 20.0836 33.6785 20.0857 31.6475 20.0857C29.7913 20.0857 29.7913 20.0857 29.7934 21.9814C29.7955 23.1447 29.8663 23.2071 30.9879 22.8575C33.3351 22.1271 35.6803 21.3821 38.0234 20.6392C38.2481 20.5706 38.5312 20.5914 38.6997 20.144Z" fill="#C10016"/>
<path d="M7.85861 21.5635C8.95525 21.5468 9.92703 22.4832 9.96033 23.5882C9.99362 24.7223 9.00519 25.7253 7.8711 25.7149C6.74949 25.7045 5.83805 24.7764 5.83597 23.6444C5.82973 22.5144 6.73908 21.5801 7.85861 21.5635ZM7.85653 22.7995C7.35087 22.8619 7.03665 23.1512 7.04914 23.6423C7.0637 24.175 7.39665 24.5038 7.95433 24.4601C8.45999 24.4205 8.72635 24.0959 8.6993 23.5882C8.67225 23.0721 8.34971 22.8349 7.85653 22.7995Z" fill="#C10016"/>
<path d="M24.9803 23.6841C24.9574 24.8036 24.0127 25.7276 22.9015 25.713C21.7383 25.6984 20.8331 24.7329 20.8768 23.5488C20.9163 22.4189 21.8735 21.522 22.991 21.5657C24.1105 21.6115 25.0032 22.5583 24.9803 23.6841ZM23.7526 23.6342C23.6922 23.1472 23.4529 22.8226 22.9348 22.8143C22.4166 22.8039 22.1087 23.1264 22.0941 23.6029C22.0774 24.1273 22.3875 24.4769 22.9493 24.4665C23.4654 24.4561 23.6985 24.1211 23.7526 23.6342Z" fill="#C10016"/>
</svg>
