<svg width="55" height="54" viewBox="0 0 55 54" fill="none" xmlns="http://www.w3.org/2000/svg">
<path d="M0.0118561 26.3659C0.0118561 21.2272 0.00595637 16.0886 0.0118561 10.9559C0.0118561 8.47211 1.34519 7.09749 3.82895 7.03259C5.22718 6.99719 6.6254 6.99719 8.02363 7.03259C8.78469 7.05029 9.13277 6.7848 9.09737 5.98245C9.05018 4.9264 9.07378 3.87036 9.09147 2.80841C9.11507 1.1919 9.90563 0.283349 11.4985 0.0532611C11.9056 -0.00573581 12.3245 0.00016388 12.7434 0.00016388C22.4425 0.00016388 32.1534 0.00016388 41.8583 0.00606357C42.4188 0.00606357 42.997 0.035562 43.5397 0.159455C44.7964 0.44854 45.4689 1.2863 45.5043 2.57833C45.5338 3.71107 45.5515 4.84381 45.5043 5.97655C45.4748 6.7789 45.8111 7.04439 46.5781 7.02669C47.8996 6.99129 49.2211 7.00899 50.5427 7.02079C53.2329 7.05029 54.584 8.40132 54.584 11.0621C54.584 21.3393 54.5899 31.6107 54.584 41.8879C54.584 44.4189 53.227 45.8171 50.6784 45.8348C46.6017 45.8643 42.5191 45.8525 38.4424 45.8348C37.6342 45.8289 37.0737 45.882 37.0855 46.9617C37.0973 48.0295 37.6519 48.1003 38.4542 48.0885C39.4336 48.0708 40.4188 48.0118 41.3923 48.2242C42.6961 48.5074 43.5692 49.4926 43.6872 50.826C43.9527 53.8584 43.8229 54 40.8318 54C31.5398 54 22.2478 54 12.9558 54C11.0207 54 10.8909 53.8702 10.8909 51.9528C10.8909 49.0797 11.8643 48.1062 14.7788 48.0826C15.3097 48.0767 15.8407 48.0531 16.3658 48.0885C17.1917 48.1416 17.4808 47.7935 17.4985 46.9617C17.5221 46.0059 17.0796 45.8289 16.2596 45.8348C12.2183 45.8584 8.17702 45.8407 4.13574 45.8466C3.20949 45.8466 2.31863 45.7227 1.53988 45.1977C0.448433 44.4779 -0.00584301 43.4337 5.66812e-05 42.118C0.0236554 36.8673 0.0118561 31.6166 0.0118561 26.3659ZM27.2448 38.9322C35.3687 38.9322 43.4866 38.9204 51.6105 38.944C52.4837 38.944 52.9202 38.7729 52.9143 37.77C52.8848 28.8142 52.9025 19.8644 52.8908 10.9087C52.8908 9.35117 52.2477 8.7494 50.6607 8.7258C49.3745 8.7081 48.0884 8.773 46.8082 8.7022C45.8347 8.64911 45.4453 8.93819 45.4984 9.96474C45.5751 11.5459 45.522 13.1388 45.5161 14.7258C45.5161 17.3334 44.407 18.3718 41.8288 18.1712C41.2094 18.124 40.5132 18.0473 40.5722 17.2096C40.6253 16.419 41.3156 16.5075 41.8819 16.4898C42.0707 16.4839 42.2595 16.478 42.4483 16.4839C43.3864 16.5134 43.8347 16.0886 43.8229 15.1211C43.7993 12.7022 43.8052 10.2833 43.8229 7.87035C43.8288 7.16828 43.5751 6.8202 42.8377 6.8261C40.1946 6.8438 37.5516 6.8261 34.9026 6.832C34.6194 6.832 34.1533 6.76121 34.1592 7.14468C34.1769 7.86445 33.0855 8.86739 34.6725 9.26267C35.1209 9.37477 35.2389 9.94114 35.2566 10.4072C35.2743 10.8969 35.2625 11.3866 35.2743 11.8821C35.2979 12.7789 35.1032 13.5399 34.1061 13.829C33.8466 13.9057 33.5221 14.0532 33.7463 14.3718C34.3244 15.1919 34.1003 15.8585 33.4454 16.4721C32.8436 17.0326 32.3126 18.124 31.6047 18.0296C30.3303 17.8585 29.7522 18.4957 28.8672 19.1269C28.0531 19.711 26.4366 19.7641 25.7522 19.121C24.8436 18.2715 24.0295 18.1476 22.9203 17.9588C21.9469 17.7995 20.6785 16.6255 20.7434 15.7464C20.8495 14.36 20.0354 13.7759 19.4985 12.8438C19.0324 12.0296 19.2625 10.9264 19.4218 9.95294C19.4867 9.56356 19.7522 9.28037 20.1239 9.11518C20.472 8.95589 21.115 8.92639 20.7493 8.33642C20.4189 7.79955 20.8613 6.74351 19.5752 6.7907C17.0501 6.8792 14.5133 6.8497 11.9823 6.8025C11.0148 6.7848 10.7434 7.19778 10.767 8.09453C10.8083 9.98243 10.7788 11.8703 10.7788 13.7582C10.7788 16.1535 10.7788 16.1535 13.1741 16.4898C13.2508 16.5016 13.3274 16.5016 13.3982 16.5193C13.7699 16.6019 14.0059 16.8202 14.0413 17.2096C14.0708 17.593 13.8702 17.8467 13.5398 18.0178C11.6165 19.0031 9.12097 17.5458 9.09147 15.3924C9.06788 13.6579 9.02068 11.9116 9.10917 10.183C9.16227 9.06798 8.87319 8.58421 7.67555 8.6904C6.54871 8.7907 5.41007 8.7081 4.27733 8.714C2.24784 8.7199 1.70507 9.24497 1.70507 11.2509C1.69917 19.9765 1.69917 28.7021 1.70507 37.4278C1.70507 38.9204 1.71097 38.9204 3.22719 38.9204C11.2272 38.9322 19.2389 38.9322 27.2448 38.9322ZM27.2979 40.6195C19.3274 40.6195 11.357 40.6195 3.38648 40.6195C1.70507 40.6195 1.49858 40.8673 1.73456 42.5487C1.89386 43.6755 2.60772 44.1534 4.18883 44.1534C19.6047 44.1534 35.0147 44.1534 50.4306 44.1534C50.8023 44.1534 51.1916 44.1475 51.5515 44.0472C52.6725 43.7345 53.0913 42.8496 52.9025 41.4101C52.7492 40.2478 51.8465 40.6431 51.2211 40.6372C43.2389 40.6136 35.2684 40.6195 27.2979 40.6195ZM27.3451 1.69927C26.2891 1.69927 25.233 1.69927 24.1711 1.69927C20.2065 1.69927 16.2419 1.71107 12.2773 1.69337C11.239 1.68747 10.7021 2.07685 10.7788 3.1624C10.8024 3.46328 10.8083 3.77006 10.7788 4.06505C10.6962 4.9205 11.1033 5.18009 11.9174 5.16239C13.9587 5.12699 16 5.20959 18.0354 5.13289C19.7404 5.068 21.5103 5.54587 23.1504 4.66092C23.3333 4.56062 23.6991 4.63732 23.9056 4.76121C24.4897 5.10339 24.8613 5.14469 25.0029 4.33053C25.0973 3.77596 25.5575 3.50458 26.0767 3.46918C26.8672 3.41608 27.6637 3.40428 28.4483 3.45148C29.056 3.48688 29.5221 3.79366 29.646 4.46033C29.6991 4.73171 29.882 5.13879 30.0885 4.9854C31.0855 4.25974 31.9469 5.09159 32.8613 5.10929C36.2182 5.18009 39.5811 5.13879 42.9439 5.13879C43.2448 5.13879 43.6341 5.16239 43.7108 4.80841C43.9055 3.95885 43.9881 3.0562 43.6636 2.24794C43.3687 1.51638 42.5781 1.69927 41.9527 1.69927C37.0855 1.69337 32.2123 1.69927 27.3451 1.69927ZM27.1858 52.3186C28.6607 52.3186 30.1298 52.3186 31.6047 52.3186C34.702 52.3186 37.7934 52.2891 40.8908 52.3363C41.8288 52.3481 42.0707 51.9587 42.0058 51.1151C41.9114 49.9233 41.0855 49.9056 40.2182 49.9056C34.1002 49.9056 27.9882 49.9056 21.8702 49.9056C19.2271 49.9056 16.5841 49.9115 13.941 49.9174C12.9086 49.9174 12.59 50.5074 12.59 51.4572C12.5959 52.5015 13.3156 52.3245 13.9351 52.3245C18.354 52.3186 22.7669 52.3186 27.1858 52.3186ZM32.0767 15.3512C32.0295 15.2155 32 15.1506 31.9823 15.0739C31.6637 13.6579 31.9705 12.9323 33.2153 12.1476C33.7109 11.8349 33.7345 11.0621 33.2035 10.7494C32.0118 10.0473 31.6165 9.05618 31.9587 7.72875C32.1357 7.04439 31.5457 6.55472 30.8554 6.77301C29.8997 7.07979 28.6017 6.57242 28.0708 5.68156C27.5693 4.84971 27.0324 4.86151 26.5191 5.71696C25.9941 6.58421 24.6961 7.09159 23.7227 6.73761C23.3687 6.60781 23.1622 6.64321 22.9262 6.8851C22.6903 7.13289 22.5133 7.33938 22.6313 7.76415C22.9734 8.99719 22.5546 9.96474 21.4572 10.7022C20.8319 11.127 20.8613 11.8231 21.528 12.1712C22.472 12.6609 23.0501 13.9175 22.6903 14.891C22.5487 15.2804 22.5546 15.5104 22.8377 15.7818C23.1032 16.0355 23.3274 16.1358 23.7345 16.0119C24.761 15.6992 25.9351 16.1889 26.5427 17.0857C27.0501 17.8349 27.5516 17.8231 28.0708 17.0503C28.643 16.1948 29.8466 15.7228 30.8967 16.0178C31.6283 16.2479 31.7876 15.7228 32.0767 15.3512ZM27.3687 45.8525C24.9911 45.8525 22.6077 45.8702 20.2301 45.8407C19.4454 45.8289 19.1681 46.1475 19.1681 46.9204C19.1681 47.7109 19.3864 48.1003 20.2537 48.1003C24.938 48.0767 29.6224 48.0767 34.3008 48.1003C35.1386 48.1062 35.4159 47.7699 35.4218 46.9499C35.4277 46.0944 35.0855 45.8289 34.2713 45.8407C31.9764 45.8761 29.6755 45.8525 27.3687 45.8525Z" fill="#C10016"/>
<path d="M14.8142 16.2833C14.8142 14.9263 14.8024 13.5694 14.8201 12.2125C14.8378 10.8674 15.0915 10.6196 16.4013 10.6078C16.8555 10.6019 17.3039 10.6019 17.7582 10.6255C18.2243 10.6491 18.5664 10.8792 18.6077 11.3629C18.649 11.8644 18.2951 12.2125 17.8703 12.1948C16.4485 12.1358 16.4721 13.0148 16.4898 14.0355C16.531 16.6019 16.4721 19.1623 16.5133 21.7287C16.531 22.7611 16.0709 23.1682 15.0974 23.1682C13.3629 23.1623 11.6284 23.1859 9.8939 23.1623C9.23903 23.1564 8.77886 23.3393 8.37178 23.9057C7.52223 25.0797 6.33049 25.4278 5.09745 25.003C3.85852 24.5723 3.09746 23.4514 3.15056 22.1299C3.19776 20.9204 4.01781 19.8467 5.14465 19.5163C6.44848 19.1328 7.64022 19.5517 8.47208 20.8024C8.80836 21.3157 9.18004 21.5045 9.76411 21.4927C11.0856 21.4632 12.4072 21.4455 13.7228 21.4986C14.5783 21.534 14.8496 21.1741 14.8319 20.36C14.7906 19.003 14.8142 17.6402 14.8142 16.2833ZM4.88507 22.2891C4.93226 22.9912 5.32754 23.4514 6.00011 23.4396C6.71397 23.4278 7.20954 22.9322 7.18004 22.2066C7.15645 21.5399 6.69037 21.1328 5.97651 21.1446C5.25675 21.1682 4.90867 21.5812 4.88507 22.2891Z" fill="#C10016"/>
<path d="M38.0943 17.5873C38.0943 16.1891 38.0648 14.7968 38.1061 13.3986C38.1238 12.6611 37.9173 12.2658 37.1091 12.2658C36.5663 12.2658 35.9763 12.0888 35.994 11.4045C36.0176 10.6375 36.6489 10.6021 37.2448 10.6021C37.2802 10.6021 37.3215 10.6021 37.3569 10.6021C39.7226 10.5549 39.7816 10.6139 39.7816 12.9561C39.7816 15.4103 39.8052 17.8587 39.7698 20.313C39.758 21.1861 40.0471 21.5578 40.9498 21.4929C41.7757 21.4339 42.6076 21.4693 43.4394 21.4811C44.6725 21.4988 45.7639 21.5755 46.643 20.2481C47.5043 18.9502 49.5456 19.1153 50.6548 20.254C51.7639 21.3926 51.7344 23.2156 50.5899 24.3248C49.3981 25.4752 47.4689 25.5047 46.4837 24.1832C45.8111 23.2805 45.056 23.1212 44.0707 23.1507C42.525 23.192 40.9793 23.1566 39.4336 23.1566C38.5073 23.1566 38.0589 22.7437 38.0884 21.7702C38.1297 20.3779 38.1002 18.9856 38.0943 17.5873ZM49.7167 22.2894C49.6931 21.5814 49.3509 21.1625 48.6194 21.1507C47.9114 21.1389 47.4394 21.5401 47.4158 22.2068C47.3922 22.9265 47.8819 23.428 48.5958 23.4398C49.2683 23.4575 49.6636 22.9973 49.7167 22.2894Z" fill="#C10016"/>
<path d="M22.8319 26.0593C22.8319 27.6463 22.8083 29.2333 22.8378 30.8144C22.8555 31.8232 22.3953 32.2657 21.4101 32.2657C19.2567 32.2598 17.1092 32.2834 14.9558 32.2598C14.2302 32.2539 13.6992 32.3955 13.2331 33.0504C12.3895 34.2362 11.2036 34.543 9.94111 34.0887C8.77297 33.6639 7.97061 32.5135 8.00601 31.2982C8.04141 30.1241 8.97356 28.9206 10.1063 28.6079C11.3452 28.2598 12.6019 28.6964 13.3452 29.8646C13.711 30.4368 14.1358 30.5784 14.7494 30.5725C16.4839 30.5489 18.2243 30.5312 19.9588 30.5784C20.8378 30.602 21.1623 30.3129 21.1505 29.4162C21.1033 26.9265 21.1328 24.4309 21.1387 21.9413C21.1387 21.5991 21.1269 21.2569 21.1682 20.9265C21.2331 20.3956 21.475 19.9531 22.0886 19.9944C22.6431 20.0357 22.826 20.4722 22.826 20.9678C22.8378 22.6669 22.8319 24.366 22.8319 26.0652C22.8319 26.0593 22.8319 26.0593 22.8319 26.0593ZM10.8497 30.2303C10.2007 30.2893 9.75232 30.6905 9.74642 31.3749C9.74052 32.1241 10.2302 32.5843 10.9736 32.5548C11.6756 32.5253 12.0473 32.0474 12.0473 31.3395C12.0532 30.602 11.6343 30.2539 10.8497 30.2303Z" fill="#C10016"/>
<path d="M31.764 25.9766C31.764 24.3896 31.764 22.8085 31.764 21.2214C31.764 20.6256 31.8348 19.9825 32.5959 19.9943C33.3215 20.0061 33.4572 20.6256 33.4572 21.2273C33.469 23.9471 33.4926 26.6609 33.4513 29.3807C33.4395 30.2421 33.6932 30.6019 34.6076 30.5783C36.3775 30.5193 38.1534 30.5488 39.9292 30.5665C40.5073 30.5724 40.8908 30.4013 41.2271 29.8822C42.0236 28.6668 43.2979 28.2303 44.5663 28.6314C45.6578 28.9736 46.5368 30.1241 46.584 31.2627C46.6371 32.4662 45.8348 33.6462 44.6725 34.0769C43.3687 34.5606 42.2123 34.2361 41.2979 32.9854C40.8849 32.4131 40.4188 32.2538 39.7699 32.2598C37.6578 32.2774 35.5398 32.2774 33.4277 32.2598C32.0177 32.248 31.7581 31.9943 31.7522 30.6196C31.7581 29.068 31.764 27.5223 31.764 25.9766ZM42.5368 31.3394C42.5663 32.0238 42.9026 32.5193 43.6106 32.5547C44.3598 32.5901 44.8554 32.1359 44.8554 31.3866C44.8554 30.7081 44.4306 30.2598 43.705 30.2421C42.9734 30.2185 42.584 30.596 42.5368 31.3394Z" fill="#C10016"/>
<path d="M28.2064 26.1945C28.2064 27.7049 28.2182 29.2152 28.2005 30.7255C28.1946 31.3391 28.4011 31.7638 28.9085 32.1591C30.4424 33.3509 30.6312 35.1916 29.4218 36.5072C28.3067 37.7284 26.3126 37.7343 25.1858 36.5131C23.9705 35.1975 24.1475 33.3391 25.6814 32.165C26.236 31.7402 26.4011 31.2683 26.4011 30.6252C26.3893 27.6813 26.3775 24.7373 26.407 21.7934C26.4129 21.0854 26.2301 20.0294 27.292 20.0235C28.3598 20.0176 28.1651 21.0736 28.1887 21.7816C28.23 23.2506 28.2005 24.7196 28.2064 26.1945ZM27.2271 33.404C26.5309 33.4453 26.1298 33.8759 26.1416 34.5603C26.1593 35.2329 26.5899 35.7284 27.2802 35.7225C28.0236 35.7225 28.4719 35.2152 28.4483 34.4777C28.4306 33.7874 27.9882 33.3981 27.2271 33.404Z" fill="#C10016"/>
<path d="M27.2388 43.1622C26.7137 43.1622 26.1887 43.1858 25.6636 43.1563C25.1621 43.1268 24.7845 42.8908 24.7786 42.3363C24.7727 41.8407 25.1267 41.5516 25.5692 41.5339C26.7314 41.4926 27.8937 41.4926 29.0559 41.5339C29.4925 41.5516 29.8406 41.8466 29.8347 42.3422C29.8229 42.8967 29.4335 43.1268 28.9379 43.1504C28.3656 43.1799 27.7993 43.1622 27.2388 43.1622Z" fill="#C10016"/>
<path d="M30.9971 11.3865C30.9971 13.5045 29.3924 15.0856 27.2567 15.0679C25.18 15.0502 23.6166 13.4809 23.6048 11.4101C23.593 9.35704 25.3039 7.65203 27.3452 7.68153C29.3452 7.71103 30.9971 9.38654 30.9971 11.3865ZM27.3098 13.3629C28.4838 13.357 29.3098 12.5193 29.2803 11.357C29.2508 10.2656 28.413 9.41604 27.3452 9.39244C26.2243 9.36884 25.3393 10.2361 25.3216 11.3806C25.3039 12.5429 26.1299 13.3688 27.3098 13.3629Z" fill="#C10016"/>
</svg>
