<svg width="45" height="50" viewBox="0 0 45 50" fill="none" xmlns="http://www.w3.org/2000/svg">
<path d="M28.4296 37.2598C29.1093 37.1238 29.5955 36.7421 30.108 36.4441C32.5497 35.0376 34.981 33.6154 37.4123 32.1985C38.4946 31.5711 39.624 31.0796 40.8789 30.9175C42.4893 30.7083 43.948 31.5135 44.4709 32.8939C45.0617 34.4468 44.518 36.1147 43.0801 37.0088C38.2907 39.9787 33.4909 42.9276 28.691 45.8817C27.0858 46.8699 25.3708 47.0739 23.5617 46.5928C20.4194 45.7563 17.277 44.9197 14.1398 44.0831C13.7843 43.989 13.4392 43.8217 13.0679 44.0151C12.4667 44.3236 11.8915 44.5223 12.498 45.4478C13.3712 46.7811 13.0157 47.8163 11.6353 48.6215C10.9974 48.9928 10.3648 49.3744 9.70596 49.7091C8.62887 50.2581 7.58838 50.0332 6.99754 49.0084C4.71788 45.0504 2.47481 41.0819 0.257881 37.0977C-0.285893 36.1199 0.0591945 35.0899 1.02126 34.4834C1.75849 34.018 2.52186 33.5945 3.2957 33.1972C4.40416 32.6325 5.44465 32.8887 6.04071 34.0024C6.459 34.7919 6.80409 34.7553 7.47858 34.337C9.2197 33.2651 11.0183 32.2874 12.7804 31.2469C14.8457 30.0339 16.9423 29.7777 19.222 30.7188C21.4494 31.639 23.7552 32.3554 26.129 32.8573C28.0583 33.2704 28.8845 34.8651 28.4296 37.2598ZM27.0178 39.1421C24.5133 39.027 22.1657 38.1748 19.7762 37.5369C19.222 37.3905 18.7933 37.1134 18.9658 36.4964C19.154 35.8271 19.6717 35.8271 20.2677 35.9997C21.8154 36.4389 23.3631 36.8729 24.9316 37.2441C26.0453 37.5055 26.8139 37.0559 26.976 36.1775C27.1329 35.3357 26.6205 34.635 25.5904 34.4154C23.1539 33.8926 20.801 33.1187 18.4952 32.1985C16.8169 31.5292 15.2953 31.6861 13.7843 32.5593C11.8392 33.6782 9.89419 34.8128 7.93869 35.916C7.49949 36.1618 7.374 36.3605 7.65635 36.8467C8.7805 38.7447 9.86804 40.6741 10.9347 42.6139C11.1961 43.0897 11.4575 43.1681 11.8549 42.8335C12.6915 42.1224 13.5803 42.2113 14.579 42.4936C17.6743 43.372 20.7906 44.1668 23.8964 45.0033C25.2976 45.3798 26.6152 45.2595 27.8649 44.4909C32.6334 41.5525 37.4071 38.6192 42.1703 35.6755C43.0121 35.1579 43.284 34.3684 42.9598 33.5318C42.6043 32.6063 41.8514 32.4442 40.9887 32.554C39.9377 32.69 39.007 33.1553 38.1025 33.6782C35.5248 35.1788 32.9418 36.6794 30.3642 38.1852C29.3289 38.7865 28.2413 39.1891 27.0178 39.1421ZM11.3373 46.6347C11.1857 46.3575 11.0497 46.0909 10.9033 45.8295C9.14127 42.7028 7.374 39.5813 5.60674 36.4598C4.41985 34.3631 4.43553 34.3945 2.36501 35.55C1.6696 35.9369 1.60163 36.2768 1.99378 36.9565C3.8081 40.0885 5.57537 43.2518 7.35832 46.4046C8.62887 48.6477 8.62887 48.6477 10.8196 47.2255C10.9295 47.1523 11.0602 47.0948 11.1491 47.0007C11.2327 46.9013 11.2693 46.7706 11.3373 46.6347Z" fill="white"/>
<path d="M27.9171 0.000750407C28.8478 -0.0149354 29.6059 0.403353 30.2752 0.988956C31.1222 1.73142 32.0686 2.04513 33.2084 2.07128C35.4672 2.11833 36.4188 2.93922 36.8685 5.16138C37.0933 6.27507 37.6109 7.11687 38.4527 7.86456C40.0997 9.32857 40.335 10.5102 39.2997 12.403C38.7037 13.4958 38.5155 14.5885 38.7351 15.7859C39.0174 17.297 38.5573 18.5152 37.2135 19.31C36.7482 19.5871 36.8632 19.8537 37.0201 20.2197C37.6893 21.7569 38.3481 23.2994 39.0122 24.8366C39.1899 25.2444 39.3782 25.6575 39.0226 26.0549C38.7089 26.3999 38.3011 26.3999 37.9089 26.2379C35.7548 25.349 34.2385 25.898 33.428 28.162C33.2921 28.5384 33.015 28.8626 32.5287 28.8469C31.9849 28.8312 31.8176 28.4234 31.6399 28.0156C31.0699 26.6927 30.4634 25.3856 29.9458 24.0418C29.5693 23.0693 28.7118 23.1216 27.9589 22.9961C27.2217 22.8759 26.8452 23.3308 26.5524 24C25.789 25.7516 24.9577 27.4718 24.1473 29.2025C23.9643 29.5946 23.8022 30.0234 23.2636 30.0547C22.7251 30.0809 22.5159 29.6835 22.3016 29.3018C22.2859 29.2704 22.265 29.2443 22.2493 29.2182C21.7369 28.4391 21.5225 27.2261 20.733 26.9489C19.9592 26.6718 18.9082 27.1267 17.9932 27.2993C17.5435 27.3829 17.1148 27.4613 16.7959 27.0535C16.4769 26.6405 16.6861 26.2326 16.8743 25.83C17.7004 24.068 18.5004 22.3007 19.3422 20.5491C19.5879 20.0367 19.6036 19.7805 18.9919 19.493C17.439 18.7662 16.8586 17.7152 17.1096 15.995C17.3083 14.6095 17.1148 13.386 16.4089 12.1468C15.5567 10.6462 15.8024 9.28151 17.1096 8.16259C18.1814 7.24236 18.7984 6.17572 19.0755 4.78492C19.4258 3.03334 20.4402 2.1497 22.2388 2.11833C23.7028 2.09742 24.9054 1.65822 25.9825 0.706611C26.5054 0.215123 27.1799 -0.0149354 27.9171 0.000750407ZM18.6834 16.1101C18.5997 17.2865 19.0442 17.8407 19.8232 18.0917C21.4441 18.6093 22.631 19.6028 23.4205 21.1086C23.8858 21.9922 24.6806 22.2432 25.559 21.8929C27.138 21.2655 28.67 21.255 30.2543 21.8877C31.1327 22.238 31.9327 22.0184 32.4032 21.1295C33.198 19.6341 34.3692 18.625 35.99 18.1022C36.9051 17.8094 37.339 17.1296 37.1456 16.1467C36.8214 14.4997 37.0305 12.952 37.9508 11.5141C38.5155 10.6357 38.322 9.83574 37.522 9.20308C36.2149 8.17828 35.462 6.86067 35.2319 5.21366C35.1012 4.25683 34.4999 3.666 33.5221 3.70783C31.7392 3.78103 30.249 3.17974 28.9314 2.01899C28.2988 1.45953 27.5511 1.44384 26.9132 2.00853C25.5642 3.20065 24.0427 3.78626 22.2284 3.71828C21.35 3.68168 20.7487 4.22546 20.6284 5.09863C20.3879 6.86067 19.5566 8.23579 18.1762 9.3338C17.5645 9.82006 17.3239 10.5155 17.7422 11.2213C18.72 12.8474 19.1487 14.5467 18.6834 16.1101ZM23.0283 27.7019C23.6924 26.2901 24.2048 25.2131 24.712 24.1307C24.8793 23.77 24.691 23.6549 24.3669 23.6079C23.1957 23.451 22.4793 22.6981 21.8885 21.7465C21.6689 21.3909 21.5225 20.9517 21.0206 20.7269C20.3095 22.2641 19.6036 23.7804 18.7304 25.6627C21.0781 24.5908 22.4218 25.2549 23.0283 27.7019ZM32.6699 26.196C33.3548 25.4745 33.4908 24.4078 34.3064 24.0575C35.143 23.6915 36.0371 24.4078 37.0096 24.3137C36.5129 23.153 36.0057 22.0602 35.5822 20.9361C35.2633 20.089 34.9548 20.2616 34.5365 20.8367C34.0136 21.5687 33.6006 22.3739 32.9261 23.0118C32.5339 23.383 31.6503 23.221 31.6921 23.932C31.7235 24.4654 32.0947 24.983 32.3248 25.5059C32.4137 25.715 32.5287 25.9137 32.6699 26.196Z" fill="white"/>
<path d="M3.92318 36.0833C4.44604 36.1774 4.73362 36.4649 4.68656 36.9773C4.64473 37.4322 4.36238 37.7093 3.88658 37.6832C3.35849 37.6571 3.10752 37.3172 3.14412 36.8153C3.17549 36.3551 3.49444 36.1303 3.92318 36.0833Z" fill="white"/>
<path d="M35.2895 11.8017C35.3 15.9323 32.0164 19.2158 27.8911 19.2054C23.8128 19.1949 20.5397 15.9218 20.5344 11.854C20.5292 7.73905 23.8337 4.42935 27.9381 4.43458C31.9955 4.44503 35.2791 7.73905 35.2895 11.8017ZM33.6687 11.9324C33.7053 8.7168 31.1955 6.10773 28.0166 6.05544C24.8323 6.00838 22.1919 8.55994 22.1501 11.7232C22.1135 14.9441 24.618 17.5374 27.8126 17.5845C31.023 17.6368 33.6321 15.1166 33.6687 11.9324Z" fill="white"/>
<path d="M26.4793 14.9126C26.2284 14.9335 26.014 14.8342 25.8467 14.6617C25.1565 13.9767 24.4663 13.297 23.7971 12.5964C23.4781 12.2617 23.4624 11.8644 23.7918 11.5193C24.116 11.1742 24.4925 11.1846 24.8742 11.4461C24.9265 11.4827 24.9735 11.535 25.0258 11.5768C25.5696 11.9742 25.899 12.9415 26.5839 12.7846C27.1852 12.6486 27.6506 11.9219 28.1734 11.4513C29.0204 10.6879 29.8622 9.92455 30.7041 9.15595C31.1433 8.75334 31.6295 8.51283 32.0844 9.06706C32.4922 9.56378 32.1994 9.99252 31.7916 10.3638C30.2753 11.7336 28.7695 13.1088 27.2532 14.4787C27.0231 14.6773 26.8087 14.9022 26.4793 14.9126Z" fill="white"/>
</svg>
