<svg width="51" height="50" viewBox="0 0 51 50" fill="none" xmlns="http://www.w3.org/2000/svg">
<path d="M39.0851 25.0446C39.0801 32.8806 32.8433 39.0874 24.9798 39.0849C17.1437 39.0799 10.9344 32.8406 10.9419 24.9796C10.9494 17.1036 17.2012 10.9267 25.1472 10.9392C32.8982 10.9517 39.0876 17.216 39.0851 25.0446ZM25.0222 30.002C26.2466 29.8921 27.501 29.7622 28.7578 29.6747C29.3351 29.6347 29.5949 29.4173 29.6724 28.8076C29.9972 26.2564 30.0022 23.7152 29.6599 21.1665C29.5949 20.6743 29.425 20.4369 28.9003 20.3644C26.3191 20.0071 23.7454 20.0071 21.1642 20.3569C20.597 20.4344 20.4221 20.6868 20.3496 21.2165C20.0073 23.7002 20.0348 26.179 20.3246 28.6652C20.3996 29.3149 20.612 29.6522 21.3141 29.6897C22.541 29.7522 23.7629 29.8896 25.0222 30.002ZM28.428 18.4654C28.8303 18.5379 29.1202 18.3854 28.9852 17.9582C28.4205 16.1541 27.7758 14.3775 26.2091 13.1606C25.4545 12.5734 24.45 12.6159 23.6954 13.2456C22.2362 14.4674 21.6015 16.1716 21.0468 17.9107C20.9168 18.3155 21.1117 18.5504 21.5465 18.4954C23.8403 18.208 26.1342 18.308 28.428 18.4654ZM12.771 25.0296C12.7535 25.6218 13.0108 26.094 13.4007 26.5113C14.62 27.8157 16.2217 28.4303 17.8634 28.9626C18.3256 29.1125 18.548 28.9101 18.4956 28.4253C18.2432 26.164 18.2432 23.9026 18.4931 21.6413C18.553 21.1041 18.3356 20.8992 17.8184 21.0666C16.2392 21.5838 14.7025 22.1785 13.5006 23.3979C13.0508 23.8552 12.7385 24.3649 12.771 25.0296ZM37.251 25.0271C37.2835 24.3624 36.9687 23.8527 36.5214 23.3979C35.322 22.1785 33.7803 21.5863 32.2036 21.0666C31.6864 20.8967 31.4715 21.1116 31.5314 21.6463C31.7838 23.8752 31.7788 26.1065 31.5364 28.3354C31.484 28.8276 31.6039 29.1425 32.1611 28.9626C33.8053 28.4353 35.4045 27.8157 36.6238 26.5113C37.0161 26.0915 37.2685 25.6193 37.251 25.0271ZM25.1297 37.2484C25.6045 37.2683 26.0567 37.0335 26.454 36.6736C27.8058 35.4493 28.4305 33.8151 28.9677 32.141C29.1202 31.6662 28.8803 31.4738 28.4105 31.5263C26.1492 31.7786 23.8878 31.7786 21.6265 31.5263C21.1717 31.4763 20.8943 31.6387 21.0493 32.126C21.594 33.8326 22.2312 35.4943 23.6305 36.7261C24.0377 37.0859 24.5075 37.2733 25.1297 37.2484ZM13.4931 21.0316C15.1298 20.0996 16.7065 19.4424 18.3831 19.0451C18.6805 18.9751 18.9278 18.8102 19.0053 18.4929C19.4351 16.7688 20.0848 15.1296 21.0268 13.5179C18.0908 14.0102 14.1253 17.8757 13.4931 21.0316ZM36.5664 21.0716C35.8517 17.8907 31.9637 13.9777 29.0077 13.5454C29.9372 15.1146 30.5744 16.7288 30.9942 18.4304C31.0692 18.7353 31.2691 18.9477 31.5764 19.0226C33.278 19.4399 34.8947 20.0746 36.5664 21.0716ZM13.5331 29.0025C13.9079 31.8586 18.1707 36.1964 20.9918 36.4313C20.0898 34.9045 19.4501 33.3229 19.0478 31.6487C18.9778 31.3539 18.8204 31.099 18.5031 31.019C16.7814 30.5867 15.1373 29.9421 13.5331 29.0025ZM36.6763 29.01C35.5119 29.5298 34.6074 30.1395 33.6229 30.3269C31.7063 30.6892 30.7019 31.6937 30.332 33.6077C30.1396 34.6072 29.5275 35.5242 29.0152 36.6836C32.7508 35.1944 35.2046 32.7656 36.6763 29.01Z" fill="white"/>
<path d="M34.4249 8.75028C35.7218 9.1076 37.0586 8.99016 38.3604 9.18256C38.7702 9.24253 38.8702 8.99016 38.7727 8.63534C38.4579 7.51341 38.1406 6.39148 37.8232 5.26955C37.7183 4.89224 37.5134 4.90723 37.2585 5.12712C36.6688 5.63186 36.1441 5.38949 35.5868 5.02717C27.7883 -0.0202629 18.2632 0.824308 11.4341 7.19107C10.7895 7.79327 10.0748 7.70331 9.35268 7.7333C8.96788 7.75079 9.01536 7.42096 9.11031 7.16109C9.27272 6.72131 9.61505 6.41397 9.93489 6.09163C16.4341 -0.485027 27.2436 -1.94179 35.2395 2.72834C36.0716 3.21559 36.5838 3.35302 37.221 2.44848C37.8307 1.58142 38.6853 1.79631 38.9951 2.84078C39.6673 5.10713 40.3119 7.38098 40.9291 9.66232C41.1965 10.6493 40.8442 11.1241 39.8247 11.0591C37.3709 10.9017 34.9197 10.6968 32.4734 10.4544C31.5864 10.367 31.344 9.66232 31.8487 8.88771C32.7683 7.47343 32.7683 7.47343 31.2216 6.7488C25.8243 4.22008 18.8354 5.39199 14.4926 9.55237C14.0728 9.95467 13.7055 10.4219 13.1707 10.6868C12.7185 10.9117 12.4836 10.8567 12.4311 10.2495C12.3562 9.40245 12.611 8.80525 13.2407 8.22055C18.6979 3.14563 27.2536 2.16862 33.5354 5.94171C35.212 6.9462 35.2395 7.03365 34.4249 8.75028Z" fill="white"/>
<path d="M8.73808 15.6619C9.11039 14.325 8.98046 13.0157 9.18786 11.7489C9.25532 11.3291 9.06792 11.1292 8.62814 11.2541C7.53869 11.5614 6.44675 11.8713 5.3573 12.1736C4.98749 12.2761 4.85006 12.4385 5.13991 12.7783C5.64466 13.3705 5.39978 13.9028 5.02497 14.45C2.89605 17.5609 1.80911 21.0466 1.78162 24.7772C1.74164 29.9171 3.30834 34.5423 6.9365 38.3129C7.53869 38.94 7.7286 39.5872 7.75608 40.3868C7.78107 41.0989 7.43874 41.0914 6.98647 40.8166C6.65914 40.6167 6.36679 40.3493 6.09193 40.077C-0.489725 33.5728 -1.94149 22.7658 2.73364 14.7773C3.22339 13.9402 3.34582 13.4305 2.44878 12.7958C1.58422 12.1836 1.80161 11.3366 2.84858 11.0242C5.11493 10.3521 7.38877 9.70739 9.67011 9.0877C10.6546 8.82034 11.1269 9.17516 11.0619 10.1946C10.907 12.6159 10.7021 15.0347 10.4722 17.4485C10.3797 18.413 9.6951 18.6878 8.88301 18.1606C7.47622 17.2461 7.47623 17.2461 6.74909 18.8028C4.22538 24.195 5.40478 31.1915 9.56266 35.5318C9.96496 35.9516 10.4522 36.2989 10.7046 36.8436C10.917 37.3034 10.8495 37.5432 10.2473 37.5807C9.41524 37.6307 8.80305 37.4033 8.21585 36.7661C3.06847 31.214 2.16892 22.6208 6.10442 16.2216C6.97148 14.8123 7.22135 14.7498 8.73808 15.6619Z" fill="white"/>
<path d="M41.2814 34.3573C40.9191 35.6991 41.0341 37.0084 40.8367 38.2778C40.7592 38.78 41.0116 38.9025 41.4739 38.765C42.4983 38.4602 43.5278 38.1728 44.5573 37.8855C44.9671 37.7705 45.2344 37.6406 44.8421 37.1783C44.4049 36.6661 44.5948 36.1589 44.9321 35.6691C47.1385 32.4782 48.2354 28.8976 48.2404 25.0645C48.2454 19.9946 46.6712 15.4344 43.0955 11.7138C42.4983 11.0916 42.2884 10.4494 42.2634 9.64234C42.2435 8.9452 42.5633 8.92021 43.0281 9.20007C43.3554 9.39747 43.6502 9.66483 43.9251 9.93719C50.5367 16.4664 51.966 27.3184 47.2384 35.3293C46.7837 36.1014 46.6787 36.5712 47.5033 37.1609C48.4353 37.8255 48.2554 38.6776 47.1685 38.9999C44.9021 39.6721 42.6258 40.3143 40.3444 40.9314C39.3899 41.1888 38.9027 40.8515 38.9601 39.912C39.115 37.4257 39.3199 34.942 39.5648 32.4607C39.6523 31.5787 40.3619 31.3463 41.1415 31.8561C42.5408 32.7756 42.5408 32.7756 43.2729 31.2089C45.7617 25.8841 44.6322 18.9176 40.5843 14.6198C40.3844 14.4074 40.1595 14.2175 39.9746 13.9926C39.6298 13.5678 38.9676 13.2405 39.3374 12.5459C39.4974 12.246 41.0366 12.4934 41.3839 12.8457C43.7952 15.2895 45.3394 18.2055 46.014 21.5638C46.8861 25.9041 46.2339 30.002 43.9126 33.8026C43.0505 35.2143 42.8082 35.2718 41.2814 34.3573Z" fill="white"/>
<path d="M25.1623 49.9992C21.3717 50.0292 17.8435 49.0747 14.5927 47.1607C13.8656 46.7334 13.3958 46.6909 12.9335 47.4455C12.6912 47.8378 12.3438 48.1527 11.8116 48.0552C11.2719 47.9578 11.1145 47.518 10.987 47.0757C10.3548 44.8644 9.71767 42.6555 9.11298 40.4366C8.81313 39.3397 9.15545 38.8874 10.3074 38.9599C12.6962 39.1148 15.0824 39.3197 17.4662 39.5496C18.4282 39.642 18.6981 40.3267 18.1634 41.1413C17.2463 42.543 17.2463 42.543 18.813 43.2727C24.1503 45.7614 31.0943 44.6345 35.3996 40.584C35.612 40.3841 35.8019 40.1593 36.0268 39.9768C36.4516 39.632 36.7789 38.9699 37.4736 39.3372C37.7759 39.4971 37.5285 41.0363 37.1737 41.3861C34.73 43.7949 31.8139 45.3441 28.4581 46.0163C24.0829 46.8933 19.9575 46.2237 16.1369 43.8674C14.9 43.1028 14.8526 42.9828 15.4872 41.6685C15.6596 41.3112 15.5697 41.1912 15.2324 41.1587C14.0405 41.0438 12.8486 40.9364 11.6567 40.8339C11.2369 40.7989 11.1544 41.0413 11.2494 41.3886C11.5542 42.4806 11.8641 43.57 12.1689 44.662C12.2689 45.0218 12.4213 45.1892 12.7686 44.8893C13.3133 44.4196 13.8306 44.577 14.3603 44.9418C17.5512 47.1482 21.1344 48.2401 24.9674 48.2426C30.0373 48.2451 34.5975 46.6684 38.3131 43.0903C38.9378 42.4881 39.5875 42.2957 40.3871 42.2682C41.1042 42.2432 41.0867 42.593 40.8144 43.0403C40.6145 43.3676 40.3471 43.6625 40.0697 43.9298C35.8994 47.9153 30.9394 49.9618 25.1623 49.9992Z" fill="white"/>
</svg>
