<svg width="20" height="20" viewBox="0 0 20 20" fill="none" xmlns="http://www.w3.org/2000/svg">
<path d="M19.983 1.4229L17.4808 17.6534C17.4417 18.0445 17.2071 18.3965 16.8552 18.5921C16.6597 18.6703 16.4642 18.7485 16.2297 18.7485C16.0733 18.7485 15.9169 18.7094 15.7605 18.6312L10.9906 16.6366L8.99663 19.6089C8.84024 19.8827 8.56656 20 8.29287 20C7.8628 20 7.51093 19.648 7.51093 19.2178V15.4633C7.51093 15.1504 7.58912 14.8766 7.74551 14.6811L16.2688 3.73037L4.77411 14.0944L0.747069 12.4127C0.316997 12.2172 0.00421795 11.8261 0.00421795 11.3176C-0.0348795 10.7701 0.199705 10.379 0.629777 10.1444L18.1454 0.171387C18.5364 -0.0632709 19.0838 -0.0632709 19.4747 0.210497C19.8657 0.484265 20.0612 0.953581 19.983 1.4229Z" fill="#C10016"/>
</svg>
